EncodeSansSemiExpanded-SemiBold.ufo
<glyph name="exclam" format="2">
  <advance width="592.7525252525253"/>
  <unicode hex="0021"/>
  <outline>
    <contour>
      <point x="214.5530303030303" y="432.72727272727275" type="line"/>
      <point x="381.1717171717172" y="432.72727272727275" type="line"/>
      <point x="439.91666666666674" y="947.2828282828283" type="line"/>
      <point x="439.91666666666674" y="1480.0" type="line"/>
      <point x="152.83585858585857" y="1480.0" type="line"/>
      <point x="152.83585858585857" y="947.2828282828283" type="line"/>
    </contour>
    <contour>
      <point x="296.37626262626264" y="-15.404040404040405" type="curve" smooth="yes"/>
      <point x="406.1414141414142" y="-15.404040404040405"/>
      <point x="475.64393939393943" y="46.69444444444445"/>
      <point x="475.64393939393943" y="140.62626262626264" type="curve" smooth="yes"/>
      <point x="475.64393939393943" y="234.55808080808086"/>
      <point x="408.30303030303037" y="297.5757575757576"/>
      <point x="296.37626262626264" y="297.5757575757576" type="curve" smooth="yes"/>
      <point x="184.44949494949495" y="297.5757575757576"/>
      <point x="117.10858585858584" y="236.71969696969703"/>
      <point x="117.10858585858584" y="140.62626262626264" type="curve" smooth="yes"/>
      <point x="117.10858585858584" y="44.53282828282829"/>
      <point x="186.61111111111111" y="-15.404040404040405"/>
    </contour>
  </outline>
</glyph>
<glyph name="quotedbl" format="2">
  <advance width="901.9494949494949"/>
  <unicode hex="0022"/>
  <outline>
    <contour>
      <point x="159.1818181818182" y="866.8333333333333" type="line"/>
      <point x="323.47474747474746" y="866.8333333333333" type="line"/>
      <point x="375.0883838383839" y="1616.0" type="line"/>
      <point x="107.5681818181818" y="1616.0" type="line"/>
    </contour>
    <contour>
      <point x="578.4747474747475" y="866.8333333333333" type="line"/>
      <point x="742.7676767676769" y="866.8333333333333" type="line"/>
      <point x="794.3813131313132" y="1616.0" type="line"/>
      <point x="526.8611111111111" y="1616.0" type="line"/>
    </contour>
  </outline>
</glyph>
<glyph name="numbersign" format="2">
  <advance width="1274.2929292929293"/>
  <unicode hex="0023"/>
  <outline>
    <contour>
      <point x="660.7121212121212" y="0.0" type="line"/>
      <point x="873.4318181818182" y="0.0" type="line"/>
      <point x="1042.4318181818182" y="1480.0" type="line"/>
      <point x="829.7121212121212" y="1480.0" type="line"/>
    </contour>
    <contour>
      <point x="105.0" y="408.07575757575756" type="line"/>
      <point x="1169.2929292929293" y="408.07575757575756" type="line"/>
      <point x="1169.2929292929293" y="617.2828282828283" type="line"/>
      <point x="105.0" y="617.2828282828283" type="line"/>
    </contour>
    <contour>
      <point x="231.8611111111111" y="0.0" type="line"/>
      <point x="444.5808080808081" y="0.0" type="line"/>
      <point x="613.5808080808081" y="1480.0" type="line"/>
      <point x="400.8611111111111" y="1480.0" type="line"/>
    </contour>
    <contour>
      <point x="105.0" y="862.7171717171717" type="line"/>
      <point x="1169.2929292929293" y="862.7171717171717" type="line"/>
      <point x="1169.2929292929293" y="1071.9242424242425" type="line"/>
      <point x="105.0" y="1071.9242424242425" type="line"/>
    </contour>
  </outline>
</glyph>
<glyph name="dollar" format="2">
  <advance width="1197.6464646464647"/>
  <unicode hex="0024"/>
  <outline>
    <contour>
      <point x="522.0151515151515" y="-19.08080808080808" type="curve" smooth="yes"/>
      <point x="904.5151515151515" y="-19.08080808080808"/>
      <point x="1126.0328282828284" y="146.4671717171717"/>
      <point x="1126.0328282828284" y="426.04292929292933" type="curve" smooth="yes"/>
      <point x="1126.0328282828284" y="647.3232323232323"/>
      <point x="996.3585858585859" y="779.8737373737374"/>
      <point x="681.1212121212121" y="848.6565656565657" type="curve" smooth="yes"/>
      <point x="575.7525252525253" y="872.3030303030304" type="line" smooth="yes"/>
      <point x="402.05808080808083" y="912.320707070707"/>
      <point x="346.8055555555556" y="965.0050505050505"/>
      <point x="346.8055555555556" y="1073.361111111111" type="curve" smooth="yes"/>
      <point x="346.8055555555556" y="1199.6919191919192"/>
      <point x="442.3712121212121" y="1277.7146464646464"/>
      <point x="704.6868686868687" y="1277.7146464646464" type="curve" smooth="yes"/>
      <point x="819.2272727272727" y="1277.7146464646464"/>
      <point x="948.560606060606" y="1260.6338383838383"/>
      <point x="1052.5227272727273" y="1230.2676767676767" type="curve"/>
      <point x="1052.5227272727273" y="1454.7146464646464" type="line"/>
      <point x="951.1035353535353" y="1482.310606060606"/>
      <point x="822.9570707070708" y="1499.080808080808"/>
      <point x="691.6641414141415" y="1499.080808080808" type="curve" smooth="yes"/>
      <point x="275.280303030303" y="1499.080808080808"/>
      <point x="71.61363636363636" y="1335.3813131313132"/>
      <point x="71.61363636363636" y="1060.9848484848485" type="curve" smooth="yes"/>
      <point x="71.61363636363636" y="837.3131313131313"/>
      <point x="202.28787878787878" y="704.5050505050505"/>
      <point x="489.51262626262627" y="641.5328282828283" type="curve" smooth="yes"/>
      <point x="594.8813131313132" y="617.8863636363636" type="line" smooth="yes"/>
      <point x="786.4924242424242" y="574.5176767676768"/>
      <point x="850.840909090909" y="523.239898989899"/>
      <point x="850.840909090909" y="410.3030303030303" type="curve" smooth="yes"/>
      <point x="850.840909090909" y="277.1060606060606"/>
      <point x="759.1919191919192" y="202.28535353535358"/>
      <point x="520.1515151515151" y="202.28535353535358" type="curve" smooth="yes"/>
      <point x="403.0858585858586" y="202.28535353535358"/>
      <point x="235.85353535353534" y="224.1085858585859"/>
      <point x="102.66414141414141" y="266.94696969696975" type="curve"/>
      <point x="102.66414141414141" y="42.5" type="line"/>
      <point x="229.72979797979798" y="2.891414141414142"/>
      <point x="378.44191919191917" y="-19.08080808080808"/>
    </contour>
    <contour>
      <point x="470.82070707070704" y="-240.0" type="line"/>
      <point x="727.2045454545455" y="-240.0" type="line"/>
      <point x="727.2045454545455" y="40.12626262626264" type="line"/>
      <point x="470.82070707070704" y="37.82828282828284" type="line"/>
    </contour>
    <contour>
      <point x="470.82070707070704" y="1447.5757575757575" type="line"/>
      <point x="727.2045454545455" y="1447.5757575757575" type="line"/>
      <point x="727.2045454545455" y="1720.0" type="line"/>
      <point x="470.82070707070704" y="1720.0" type="line"/>
    </contour>
  </outline>
</glyph>
<glyph name="ampersand" format="2">
  <advance width="1652.9141414141413"/>
  <unicode hex="0026"/>
  <outline>
    <contour>
      <point x="1534.4343434343434" y="-20.0" type="line"/>
      <point x="1652.9141414141413" y="178.6388888888889" type="line"/>
      <point x="760.6666666666667" y="764.5505050505051" type="line" smooth="yes"/>
      <point x="598.8863636363636" y="879.6515151515151"/>
      <point x="554.5454545454545" y="946.9974747474747"/>
      <point x="554.5454545454545" y="1046.8358585858587" type="curve" smooth="yes"/>
      <point x="554.5454545454545" y="1190.340909090909"/>
      <point x="645.1085858585859" y="1277.7146464646464"/>
      <point x="910.4267676767677" y="1277.7146464646464" type="curve" smooth="yes"/>
      <point x="1001.6717171717172" y="1277.7146464646464"/>
      <point x="1093.7777777777778" y="1266.2146464646464"/>
      <point x="1168.2247474747473" y="1248.3484848484848" type="curve"/>
      <point x="1168.2247474747473" y="1472.7954545454545" type="line"/>
      <point x="1089.578282828283" y="1488.7424242424242"/>
      <point x="999.6464646464647" y="1499.080808080808"/>
      <point x="893.4722222222222" y="1499.080808080808" type="curve" smooth="yes"/>
      <point x="477.3712121212121" y="1499.080808080808"/>
      <point x="279.35353535353534" y="1332.2474747474748"/>
      <point x="279.35353535353534" y="1055.2525252525252" type="curve" smooth="yes"/>
      <point x="279.35353535353534" y="892.2752525252525"/>
      <point x="353.4772727272727" y="754.1035353535353"/>
      <point x="642.1868686868687" y="565.9116161616162" type="curve" smooth="yes"/>
    </contour>
    <contour>
      <point x="732.4141414141415" y="-18.0" type="curve" smooth="yes"/>
      <point x="1155.858585858586" y="-18.0"/>
      <point x="1402.1313131313132" y="187.41161616161617"/>
      <point x="1402.1313131313132" y="579.8257575757576" type="curve" smooth="yes"/>
      <point x="1402.1313131313132" y="662.1666666666667"/>
      <point x="1389.2525252525252" y="754.3030303030304"/>
      <point x="1364.2373737373737" y="838.89898989899" type="curve"/>
      <point x="1144.5454545454545" y="838.89898989899" type="line"/>
      <point x="1169.7904040404042" y="754.3030303030304"/>
      <point x="1185.0883838383838" y="659.7070707070707"/>
      <point x="1185.0883838383838" y="578.1237373737374" type="curve" smooth="yes"/>
      <point x="1185.0883838383838" y="289.1237373737374"/>
      <point x="1018.1262626262626" y="176.0757575757576"/>
      <point x="762.2449494949495" y="176.0757575757576" type="curve" smooth="yes"/>
      <point x="516.5580808080808" y="176.0757575757576"/>
      <point x="401.78282828282835" y="277.6691919191919"/>
      <point x="401.78282828282835" y="432.3989898989899" type="curve" smooth="yes"/>
      <point x="401.78282828282835" y="549.2348484848485"/>
      <point x="458.77525252525254" y="633.5681818181818"/>
      <point x="567.4949494949495" y="692.4368686868687" type="curve"/>
      <point x="424.00757575757575" y="802.0858585858585" type="line"/>
      <point x="248.24747474747474" y="738.3914141414141"/>
      <point x="127.13131313131312" y="596.9444444444445"/>
      <point x="127.13131313131312" y="403.7020202020202" type="curve" smooth="yes"/>
      <point x="127.13131313131312" y="152.13636363636363"/>
      <point x="325.530303030303" y="-18.0"/>
    </contour>
  </outline>
</glyph>
<glyph name="quotesingle" format="2">
  <advance width="482.6565656565657"/>
  <unicode hex="0027"/>
  <outline>
    <contour>
      <point x="159.1818181818182" y="866.8333333333333" type="line"/>
      <point x="323.47474747474746" y="866.8333333333333" type="line"/>
      <point x="375.0883838383839" y="1616.0" type="line"/>
      <point x="107.5681818181818" y="1616.0" type="line"/>
    </contour>
  </outline>
</glyph>
<glyph name="parenleft" format="2">
  <advance width="735.1717171717172"/>
  <unicode hex="0028"/>
  <outline>
    <contour>
      <point x="491.9368686868687" y="-440.0" type="curve"/>
      <point x="784.0328282828284" y="-440.0" type="line"/>
      <point x="505.9545454545455" y="-131.0530303030303"/>
      <point x="397.2525252525253" y="196.6540404040404"/>
      <point x="397.2525252525253" y="588.0" type="curve" smooth="yes"/>
      <point x="397.2525252525253" y="979.3459595959596"/>
      <point x="505.9545454545455" y="1307.0530303030303"/>
      <point x="784.0328282828284" y="1616.0" type="curve"/>
      <point x="491.9368686868687" y="1616.0" type="line"/>
      <point x="228.00757575757575" y="1337.8863636363637"/>
      <point x="120.16919191919192" y="982.6439393939394"/>
      <point x="120.16919191919192" y="588.0" type="curve" smooth="yes"/>
      <point x="120.16919191919192" y="193.3560606060606"/>
      <point x="228.00757575757575" y="-161.88636363636363"/>
    </contour>
  </outline>
</glyph>
<glyph name="parenright" format="2">
  <advance width="735.1717171717172"/>
  <unicode hex="0029"/>
  <outline>
    <contour>
      <point x="-48.86111111111114" y="-440.0" type="curve"/>
      <point x="243.2348484848485" y="-440.0" type="line"/>
      <point x="507.16414141414145" y="-161.88636363636363"/>
      <point x="615.0025252525253" y="193.3560606060606"/>
      <point x="615.0025252525253" y="588.0" type="curve" smooth="yes"/>
      <point x="615.0025252525253" y="982.6439393939394"/>
      <point x="507.16414141414145" y="1337.8863636363637"/>
      <point x="243.2348484848485" y="1616.0" type="curve"/>
      <point x="-48.86111111111114" y="1616.0" type="line"/>
      <point x="229.21717171717168" y="1307.0530303030303"/>
      <point x="337.9191919191919" y="979.3459595959596"/>
      <point x="337.9191919191919" y="588.0" type="curve" smooth="yes"/>
      <point x="337.9191919191919" y="196.6540404040404"/>
      <point x="229.21717171717168" y="-131.0530303030303"/>
    </contour>
  </outline>
</glyph>
<glyph name="asterisk" format="2">
  <advance width="997.1616161616162"/>
  <unicode hex="002A"/>
  <outline>
    <contour>
      <point x="600.7777777777778" y="1152.310606060606" type="line"/>
      <point x="786.0782828282829" y="1182.4772727272727" type="line"/>
      <point x="967.1616161616162" y="1240.7752525252524" type="line"/>
      <point x="911.2247474747475" y="1411.828282828283" type="line"/>
      <point x="731.0606060606061" y="1353.260101010101" type="line"/>
      <point x="558.0833333333334" y="1264.4520202020203" type="line"/>
      <point x="588.6742424242425" y="1456.8333333333333" type="line"/>
      <point x="588.6742424242425" y="1616.0" type="line"/>
      <point x="408.48737373737373" y="1616.0" type="line"/>
      <point x="408.48737373737373" y="1456.8333333333333" type="line"/>
      <point x="439.07828282828285" y="1264.4520202020203" type="line"/>
      <point x="266.1010101010101" y="1353.260101010101" type="line"/>
      <point x="85.93686868686869" y="1411.828282828283" type="line"/>
      <point x="30.0" y="1240.7752525252524" type="line"/>
      <point x="211.08333333333334" y="1182.4772727272727" type="line"/>
      <point x="396.3838383838384" y="1152.310606060606" type="line"/>
      <point x="261.6818181818182" y="1016.8459595959596" type="line"/>
      <point x="163.88131313131314" y="882.2070707070707" type="line"/>
      <point x="309.91161616161617" y="776.3863636363636" type="line"/>
      <point x="407.71212121212125" y="910.2146464646464" type="line"/>
      <point x="498.5808080808081" y="1091.780303030303" type="line"/>
      <point x="589.4494949494949" y="910.2146464646464" type="line"/>
      <point x="687.25" y="776.3863636363636" type="line"/>
      <point x="833.280303030303" y="882.2070707070707" type="line"/>
      <point x="735.479797979798" y="1016.8459595959596" type="line"/>
    </contour>
  </outline>
</glyph>
<glyph name="plus" format="2">
  <advance width="1123.3686868686868"/>
  <unicode hex="002B"/>
  <outline>
    <contour>
      <point x="452.83838383838383" y="326.1212121212121" type="line"/>
      <point x="670.530303030303" y="326.1212121212121" type="line"/>
      <point x="670.530303030303" y="656.1262626262626" type="line"/>
      <point x="984.5883838383838" y="656.1262626262626" type="line"/>
      <point x="984.5883838383838" y="863.8737373737374" type="line"/>
      <point x="670.530303030303" y="863.8737373737374" type="line"/>
      <point x="670.530303030303" y="1193.878787878788" type="line"/>
      <point x="452.83838383838383" y="1193.878787878788" type="line"/>
      <point x="452.83838383838383" y="863.8737373737374" type="line"/>
      <point x="138.78030303030303" y="863.8737373737374" type="line"/>
      <point x="138.78030303030303" y="656.1262626262626" type="line"/>
      <point x="452.83838383838383" y="656.1262626262626" type="line"/>
    </contour>
  </outline>
</glyph>
<glyph name="comma" format="2">
  <advance width="552.7525252525253"/>
  <unicode hex="002C"/>
  <outline>
    <contour>
      <point x="159.3661616161616" y="-332.42424242424244" type="curve"/>
      <point x="314.14898989898995" y="-332.42424242424244" type="line"/>
      <point x="398.08333333333337" y="-212.4848484848485"/>
      <point x="454.0227272727273" y="-55.252525252525245"/>
      <point x="454.0227272727273" y="99.82070707070709" type="curve" smooth="yes"/>
      <point x="454.0227272727273" y="244.66414141414145"/>
      <point x="389.6540404040404" y="315.409090909091"/>
      <point x="272.2146464646465" y="315.409090909091" type="curve" smooth="yes"/>
      <point x="163.53030303030303" y="315.409090909091"/>
      <point x="97.10858585858584" y="252.12121212121218"/>
      <point x="97.10858585858584" y="150.46212121212125" type="curve" smooth="yes"/>
      <point x="97.10858585858584" y="48.69444444444445"/>
      <point x="167.15151515151516" y="-15.404040404040405"/>
      <point x="276.37626262626264" y="-15.404040404040405" type="curve" smooth="yes"/>
      <point x="311.07323232323233" y="-15.404040404040405" type="line"/>
      <point x="254.92424242424244" y="33.61616161616162" type="line"/>
      <point x="254.92424242424244" y="-85.67676767676768"/>
      <point x="219.68434343434345" y="-196.8080808080808"/>
    </contour>
  </outline>
</glyph>
<glyph name="hyphen" format="2">
  <advance width="963.8383838383838"/>
  <unicode hex="002D"/>
  <outline>
    <contour>
      <point x="138.78030303030303" y="454.2348484848485" type="line"/>
      <point x="825.0580808080808" y="454.2348484848485" type="line"/>
      <point x="825.0580808080808" y="676.5732323232323" type="line"/>
      <point x="138.78030303030303" y="676.5732323232323" type="line"/>
    </contour>
  </outline>
</glyph>
<glyph name="period" format="2">
  <advance width="552.7525252525253"/>
  <unicode hex="002E"/>
  <outline>
    <contour>
      <point x="276.37626262626264" y="-15.404040404040405" type="curve" smooth="yes"/>
      <point x="386.1414141414142" y="-15.404040404040405"/>
      <point x="455.64393939393943" y="49.93686868686869"/>
      <point x="455.64393939393943" y="149.54292929292933" type="curve" smooth="yes"/>
      <point x="455.64393939393943" y="249.14898989898992"/>
      <point x="388.30303030303037" y="315.409090909091"/>
      <point x="276.37626262626264" y="315.409090909091" type="curve" smooth="yes"/>
      <point x="164.44949494949495" y="315.409090909091"/>
      <point x="97.10858585858584" y="251.3106060606061"/>
      <point x="97.10858585858584" y="149.54292929292933" type="curve" smooth="yes"/>
      <point x="97.10858585858584" y="47.77525252525253"/>
      <point x="166.61111111111111" y="-15.404040404040405"/>
    </contour>
  </outline>
</glyph>
<glyph name="slash" format="2">
  <advance width="790.2272727272727"/>
  <unicode hex="002F"/>
  <outline>
    <contour>
      <point x="0.0" y="-240.0" type="line"/>
      <point x="270.3409090909091" y="-240.0" type="line"/>
      <point x="790.2272727272727" y="1616.0" type="line"/>
      <point x="519.8863636363636" y="1616.0" type="line"/>
    </contour>
  </outline>
</glyph>
<glyph name="zero" format="2">
  <advance width="1390.5934343434344"/>
  <unicode hex="0030"/>
  <note>
600
</note>
  <outline>
    <contour>
      <point x="694.8914141414142" y="-19.08080808080808" type="curve" smooth="yes"/>
      <point x="1052.7828282828282" y="-19.08080808080808"/>
      <point x="1280.4242424242425" y="207.56060606060606"/>
      <point x="1280.4242424242425" y="740.0" type="curve" smooth="yes"/>
      <point x="1280.4242424242425" y="1272.439393939394"/>
      <point x="1055.080808080808" y="1499.080808080808"/>
      <point x="694.8914141414142" y="1499.080808080808" type="curve" smooth="yes"/>
      <point x="334.7020202020202" y="1499.080808080808"/>
      <point x="110.16919191919192" y="1272.439393939394"/>
      <point x="110.16919191919192" y="740.0" type="curve" smooth="yes"/>
      <point x="110.16919191919192" y="207.56060606060606"/>
      <point x="337.0" y="-19.08080808080808"/>
    </contour>
    <contour>
      <point x="695.7020202020202" y="208.22979797979804" type="curve" smooth="yes"/>
      <point x="502.01010101010104" y="208.22979797979804"/>
      <point x="382.659090909091" y="331.91414141414145"/>
      <point x="382.659090909091" y="741.8383838383838" type="curve" smooth="yes"/>
      <point x="382.659090909091" y="1148.0858585858587"/>
      <point x="503.63131313131316" y="1271.7702020202019"/>
      <point x="695.7020202020202" y="1271.7702020202019" type="curve" smooth="yes"/>
      <point x="886.9621212121212" y="1271.7702020202019"/>
      <point x="1007.9343434343434" y="1148.0858585858587"/>
      <point x="1007.9343434343434" y="738.1616161616162" type="curve" smooth="yes"/>
      <point x="1007.9343434343434" y="331.91414141414145"/>
      <point x="886.9621212121212" y="208.22979797979804"/>
    </contour>
  </outline>
</glyph>
<glyph name="one" format="2">
  <advance width="869.4116161616162"/>
  <unicode hex="0031"/>
  <outline>
    <contour>
      <point x="424.3989898989899" y="0.0" type="line"/>
      <point x="701.5353535353536" y="0.0" type="line"/>
      <point x="701.5353535353536" y="1485.080808080808" type="line"/>
      <point x="519.1919191919192" y="1485.080808080808" type="line"/>
      <point x="32.60606060606061" y="1139.4772727272727" type="line"/>
      <point x="32.60606060606061" y="876.9696969696969" type="line"/>
      <point x="519.1919191919192" y="1221.1944444444443" type="line"/>
      <point x="424.3989898989899" y="1318.4545454545455" type="line"/>
    </contour>
  </outline>
</glyph>
<glyph name="two" format="2">
  <advance width="1112.7828282828282"/>
  <unicode hex="0032"/>
  <outline>
    <contour>
      <point x="58.01767676767676" y="0.0" type="line"/>
      <point x="1051.2929292929293" y="0.0" type="line"/>
      <point x="1051.2929292929293" y="224.77020202020205" type="line"/>
      <point x="357.70202020202026" y="224.77020202020205" type="line"/>
      <point x="365.4065656565657" y="152.40404040404042" type="line"/>
      <point x="737.0277777777778" y="583.1464646464647" type="line" smooth="yes"/>
      <point x="911.1262626262626" y="783.9393939393939"/>
      <point x="970.6136363636364" y="921.4116161616162"/>
      <point x="970.8434343434344" y="1079.8333333333333" type="curve" smooth="yes"/>
      <point x="971.3030303030303" y="1367.111111111111"/>
      <point x="786.3232323232323" y="1499.080808080808"/>
      <point x="418.02272727272725" y="1499.080808080808" type="curve" smooth="yes"/>
      <point x="284.9823232323232" y="1499.080808080808"/>
      <point x="134.13888888888889" y="1474.3383838383838"/>
      <point x="39.97727272727273" y="1441.121212121212" type="curve"/>
      <point x="39.97727272727273" y="1216.6742424242425" type="line"/>
      <point x="138.87121212121212" y="1253.621212121212"/>
      <point x="266.35353535353534" y="1277.7146464646464"/>
      <point x="395.05555555555554" y="1277.7146464646464" type="curve" smooth="yes"/>
      <point x="606.8863636363636" y="1277.7146464646464"/>
      <point x="697.3813131313132" y="1207.0328282828282"/>
      <point x="697.3813131313132" y="1051.9747474747473" type="curve" smooth="yes"/>
      <point x="697.3813131313132" y="946.3434343434343"/>
      <point x="647.6893939393939" y="843.4166666666666"/>
      <point x="505.020202020202" y="674.0" type="curve" smooth="yes"/>
      <point x="58.01767676767676" y="146.18939393939397" type="line"/>
    </contour>
  </outline>
</glyph>
<glyph name="three" format="2">
  <advance width="1126.6363636363637"/>
  <unicode hex="0033"/>
  <outline>
    <contour>
      <point x="456.3156565656566" y="-19.08080808080808" type="curve" smooth="yes"/>
      <point x="868.3409090909091" y="-19.08080808080808"/>
      <point x="1057.0934343434344" y="144.79545454545456"/>
      <point x="1057.0934343434344" y="410.92929292929296" type="curve" smooth="yes"/>
      <point x="1057.0934343434344" y="620.7828282828283"/>
      <point x="926.6717171717172" y="744.2323232323232"/>
      <point x="700.4595959595961" y="774.8939393939394" type="curve"/>
      <point x="700.229797979798" y="755.540404040404" type="line"/>
      <point x="887.5479797979799" y="795.3383838383838"/>
      <point x="1006.3232323232323" y="923.6641414141415"/>
      <point x="1006.3232323232323" y="1105.939393939394" type="curve" smooth="yes"/>
      <point x="1006.3232323232323" y="1354.3939393939395"/>
      <point x="824.2878787878788" y="1499.080808080808"/>
      <point x="467.4823232323232" y="1499.080808080808" type="curve" smooth="yes"/>
      <point x="336.79545454545456" y="1499.080808080808"/>
      <point x="189.8838383838384" y="1477.3383838383838"/>
      <point x="86.42424242424242" y="1443.189393939394" type="curve"/>
      <point x="86.42424242424242" y="1237.1161616161617" type="line"/>
      <point x="197.02020202020202" y="1274.7247474747473"/>
      <point x="325.19191919191917" y="1294.4671717171716"/>
      <point x="441.62373737373736" y="1294.4671717171716" type="curve" smooth="yes"/>
      <point x="644.2146464646464" y="1294.4671717171716"/>
      <point x="740.4267676767677" y="1218.621212121212"/>
      <point x="740.4267676767677" y="1084.6742424242425" type="curve" smooth="yes"/>
      <point x="740.4267676767677" y="939.9242424242424"/>
      <point x="633.3838383838383" y="861.010101010101"/>
      <point x="391.5025252525253" y="861.010101010101" type="curve" smooth="yes"/>
      <point x="233.3232323232323" y="861.010101010101" type="line"/>
      <point x="233.3232323232323" y="654.5050505050505" type="line"/>
      <point x="462.8510101010101" y="654.5050505050505" type="line" smooth="yes"/>
      <point x="701.5505050505051" y="654.5050505050505"/>
      <point x="796.8712121212121" y="572.4141414141415"/>
      <point x="796.8712121212121" y="426.520202020202" type="curve" smooth="yes"/>
      <point x="796.8712121212121" y="271.6237373737374"/>
      <point x="690.6313131313132" y="185.53282828282832"/>
      <point x="444.7651515151515" y="185.53282828282832" type="curve" smooth="yes"/>
      <point x="316.7146464646465" y="185.53282828282832"/>
      <point x="173.73232323232324" y="207.6136363636364"/>
      <point x="52.39393939393939" y="242.81818181818184" type="curve"/>
      <point x="52.39393939393939" y="36.744949494949495" type="line"/>
      <point x="173.08080808080808" y="1.3787878787878785"/>
      <point x="312.80808080808083" y="-19.08080808080808"/>
    </contour>
  </outline>
</glyph>
<glyph name="four" format="2">
  <advance width="1312.8080808080808"/>
  <unicode hex="0034"/>
  <outline>
    <contour>
      <point x="43.03030303030303" y="318.8813131313131" type="line"/>
      <point x="1274.8055555555557" y="318.8813131313131" type="line"/>
      <point x="1274.8055555555557" y="534.7348484848485" type="line"/>
      <point x="285.57828282828285" y="534.7348484848485" type="line"/>
      <point x="315.0075757575758" y="467.3939393939394" type="line"/>
      <point x="881.0833333333334" y="1480.0" type="line"/>
      <point x="611.6994949494949" y="1480.0" type="line"/>
      <point x="43.03030303030303" y="468.3131313131313" type="line"/>
    </contour>
    <contour>
      <point x="816.5757575757575" y="0.0" type="line"/>
      <point x="1067.2323232323233" y="0.0" type="line"/>
      <point x="1067.2323232323233" y="980.0" type="line"/>
      <point x="844.6262626262626" y="980.0" type="line"/>
      <point x="816.5757575757575" y="534.7348484848485" type="line"/>
    </contour>
  </outline>
</glyph>
<glyph name="five" format="2">
  <advance width="1139.8661616161617"/>
  <unicode hex="0035"/>
  <outline>
    <contour>
      <point x="482.7348484848485" y="-19.08080808080808" type="curve" smooth="yes"/>
      <point x="883.3282828282829" y="-19.08080808080808"/>
      <point x="1082.4722222222222" y="141.8080808080808"/>
      <point x="1083.2828282828282" y="434.979797979798" type="curve" smooth="yes"/>
      <point x="1084.0934343434344" y="711.3813131313132"/>
      <point x="903.4065656565657" y="858.1616161616162"/>
      <point x="430.699494949495" y="883.6212121212121" type="curve" smooth="yes"/>
      <point x="219.98737373737376" y="894.8510101010102" type="line"/>
      <point x="397.63131313131316" y="794.459595959596" type="line"/>
      <point x="439.0782828282829" y="1385.040404040404" type="line"/>
      <point x="318.54545454545456" y="1270.901515151515" type="line"/>
      <point x="1021.0126262626263" y="1270.901515151515" type="line"/>
      <point x="1021.0126262626263" y="1480.0" type="line"/>
      <point x="184.89646464646464" y="1480.0" type="line"/>
      <point x="131.96464646464645" y="692.6691919191919" type="line"/>
      <point x="342.67676767676767" y="681.4393939393939" type="line" smooth="yes"/>
      <point x="719.1717171717171" y="660.1414141414141"/>
      <point x="822.25" y="584.7146464646464"/>
      <point x="822.25" y="430.9671717171717" type="curve" smooth="yes"/>
      <point x="822.25" y="272.33838383838383"/>
      <point x="713.9419191919192" y="188.77525252525257"/>
      <point x="471.4141414141414" y="188.77525252525257" type="curve" smooth="yes"/>
      <point x="341.29545454545456" y="188.77525252525257"/>
      <point x="198.31313131313132" y="211.35606060606065"/>
      <point x="78.58333333333333" y="246.60101010101013" type="curve"/>
      <point x="78.58333333333333" y="40.52777777777778" type="line"/>
      <point x="198.12121212121212" y="3.9595959595959593"/>
      <point x="338.30808080808083" y="-19.08080808080808"/>
    </contour>
  </outline>
</glyph>
<glyph name="six" format="2">
  <advance width="1288.3333333333335"/>
  <unicode hex="0036"/>
  <outline>
    <contour>
      <point x="707.7979797979798" y="-19.08080808080808" type="curve" smooth="yes"/>
      <point x="1026.1186868686868" y="-19.08080808080808"/>
      <point x="1225.709595959596" y="148.87121212121212"/>
      <point x="1225.709595959596" y="433.76262626262627" type="curve" smooth="yes"/>
      <point x="1225.709595959596" y="737.5681818181819"/>
      <point x="1025.4166666666667" y="876.6363636363636"/>
      <point x="731.6464646464647" y="876.6363636363636" type="curve" smooth="yes"/>
      <point x="585.3333333333334" y="876.6363636363636"/>
      <point x="431.60101010101016" y="829.8510101010102"/>
      <point x="344.489898989899" y="753.1186868686868" type="curve"/>
      <point x="344.489898989899" y="560.0530303030303" type="line"/>
      <point x="433.6691919191919" y="642.3838383838383"/>
      <point x="565.2752525252525" y="678.7777777777777"/>
      <point x="679.280303030303" y="678.7777777777777" type="curve" smooth="yes"/>
      <point x="863.0151515151515" y="678.7777777777777"/>
      <point x="973.8636363636364" y="600.1338383838383"/>
      <point x="973.8636363636364" y="426.6691919191919" type="curve" smooth="yes"/>
      <point x="973.8636363636364" y="257.6363636363636"/>
      <point x="866.0277777777778" y="179.31818181818184"/>
      <point x="708.5681818181819" y="179.31818181818184" type="curve" smooth="yes"/>
      <point x="510.1035353535354" y="179.31818181818184"/>
      <point x="388.0782828282829" y="293.79040404040404"/>
      <point x="388.0782828282829" y="652.5505050505051" type="curve" smooth="yes"/>
      <point x="388.0782828282829" y="763.9848484848485" type="line" smooth="yes"/>
      <point x="388.0782828282829" y="1117.8207070707072"/>
      <point x="538.2626262626263" y="1290.1439393939395"/>
      <point x="850.3409090909091" y="1290.1439393939395" type="curve" smooth="yes"/>
      <point x="948.6616161616162" y="1290.1439393939395"/>
      <point x="1058.7550505050506" y="1274.9419191919192"/>
      <point x="1149.7121212121212" y="1240.671717171717" type="curve"/>
      <point x="1149.7121212121212" y="1451.0681818181818" type="line"/>
      <point x="1056.4722222222222" y="1486.540404040404"/>
      <point x="949.1767676767677" y="1499.080808080808"/>
      <point x="834.709595959596" y="1499.080808080808" type="curve" smooth="yes"/>
      <point x="370.80808080808083" y="1499.080808080808"/>
      <point x="119.20959595959596" y="1228.7070707070707"/>
      <point x="119.20959595959596" y="689.7575757575758" type="curve" smooth="yes"/>
      <point x="119.20959595959596" y="192.83333333333334"/>
      <point x="353.37626262626264" y="-19.08080808080808"/>
    </contour>
  </outline>
</glyph>
<glyph name="seven" format="2">
  <advance width="1056.7828282828282"/>
  <unicode hex="0037"/>
  <outline>
    <contour>
      <point x="181.00252525252523" y="0.0" type="line"/>
      <point x="465.44949494949503" y="0.0" type="line"/>
      <point x="997.9040404040404" y="1333.810606060606" type="line"/>
      <point x="997.9040404040404" y="1480.0" type="line"/>
      <point x="12.6489898989899" y="1480.0" type="line"/>
      <point x="12.6489898989899" y="1255.229797979798" type="line"/>
      <point x="820.4747474747475" y="1255.229797979798" type="line"/>
      <point x="733.020202020202" y="1334.729797979798" type="line"/>
    </contour>
  </outline>
</glyph>
<glyph name="eight" format="2">
  <advance width="1390.5934343434344"/>
  <unicode hex="0038"/>
  <outline>
    <contour>
      <point x="700.7979797979798" y="-19.08080808080808" type="curve" smooth="yes"/>
      <point x="1099.5631313131314" y="-19.08080808080808"/>
      <point x="1292.2095959595958" y="159.56060606060606"/>
      <point x="1292.2095959595958" y="401.49242424242425" type="curve" smooth="yes"/>
      <point x="1292.2095959595958" y="614.2348484848485"/>
      <point x="1166.5176767676767" y="748.8939393939394"/>
      <point x="785.2020202020202" y="836.5782828282828" type="curve" smooth="yes"/>
      <point x="477.9015151515152" y="905.5631313131313"/>
      <point x="404.29797979797985" y="974.8686868686868"/>
      <point x="404.29797979797985" y="1104.6136363636363" type="curve" smooth="yes"/>
      <point x="404.29797979797985" y="1224.901515151515"/>
      <point x="497.07828282828285" y="1307.9772727272727"/>
      <point x="704.9141414141415" y="1307.9772727272727" type="curve" smooth="yes"/>
      <point x="900.1313131313132" y="1307.9772727272727"/>
      <point x="1004.1969696969697" y="1233.361111111111"/>
      <point x="1004.1969696969697" y="1097.830808080808" type="curve" smooth="yes"/>
      <point x="1004.1969696969697" y="973.9116161616162"/>
      <point x="935.7449494949495" y="887.7575757575758"/>
      <point x="765.9494949494949" y="815.4444444444445" type="curve"/>
      <point x="935.6262626262627" y="745.9267676767677" type="line"/>
      <point x="1154.7020202020203" y="822.6691919191919"/>
      <point x="1245.6666666666667" y="958.25"/>
      <point x="1245.6666666666667" y="1126.080808080808" type="curve" smooth="yes"/>
      <point x="1245.6666666666667" y="1358.621212121212"/>
      <point x="1050.9823232323233" y="1499.080808080808"/>
      <point x="710.7373737373738" y="1499.080808080808" type="curve" smooth="yes"/>
      <point x="333.4090909090909" y="1499.080808080808"/>
      <point x="142.07575757575756" y="1335.6540404040404"/>
      <point x="142.07575757575756" y="1093.9671717171718" type="curve" smooth="yes"/>
      <point x="142.07575757575756" y="878.5202020202021"/>
      <point x="272.94191919191917" y="726.8232323232323"/>
      <point x="656.1641414141415" y="644.4343434343434" type="curve" smooth="yes"/>
      <point x="947.9520202020202" y="581.9343434343434"/>
      <point x="1033.229797979798" y="515.7121212121212"/>
      <point x="1033.229797979798" y="384.8333333333333" type="curve" smooth="yes"/>
      <point x="1033.229797979798" y="249.85606060606062"/>
      <point x="926.3661616161617" y="172.0227272727273"/>
      <point x="702.2979797979798" y="172.0227272727273" type="curve" smooth="yes"/>
      <point x="469.07828282828285" y="172.0227272727273"/>
      <point x="355.5934343434344" y="254.09848484848487"/>
      <point x="355.5934343434344" y="402.0479797979798" type="curve" smooth="yes"/>
      <point x="355.5934343434344" y="524.5353535353536"/>
      <point x="437.2373737373738" y="635.0429292929293"/>
      <point x="618.5707070707072" y="687.679292929293" type="curve"/>
      <point x="430.5050505050505" y="755.2247474747475" type="line"/>
      <point x="216.8989898989899" y="691.1969696969697"/>
      <point x="95.68181818181817" y="553.60101010101"/>
      <point x="95.68181818181817" y="368.5151515151515" type="curve" smooth="yes"/>
      <point x="95.68181818181817" y="134.90151515151516"/>
      <point x="282.979797979798" y="-19.08080808080808"/>
    </contour>
  </outline>
</glyph>
<glyph name="nine" format="2">
  <advance width="1288.3333333333335"/>
  <unicode hex="0039"/>
  <outline>
    <contour>
      <point x="580.5353535353536" y="1499.080808080808" type="curve" smooth="yes"/>
      <point x="262.2146464646465" y="1499.080808080808"/>
      <point x="62.62373737373737" y="1331.128787878788"/>
      <point x="62.62373737373737" y="1046.2373737373737" type="curve" smooth="yes"/>
      <point x="62.62373737373737" y="742.4318181818181"/>
      <point x="262.9166666666667" y="603.3636363636364"/>
      <point x="556.6868686868687" y="603.3636363636364" type="curve" smooth="yes"/>
      <point x="703.0" y="603.3636363636364"/>
      <point x="856.7323232323232" y="650.1489898989898"/>
      <point x="943.8434343434343" y="726.8813131313132" type="curve"/>
      <point x="943.8434343434343" y="919.9469696969697" type="line"/>
      <point x="854.6641414141415" y="837.6161616161617"/>
      <point x="723.0580808080808" y="801.2222222222223"/>
      <point x="609.0530303030303" y="801.2222222222223" type="curve" smooth="yes"/>
      <point x="425.31818181818187" y="801.2222222222223"/>
      <point x="314.469696969697" y="879.8661616161617"/>
      <point x="314.469696969697" y="1053.330808080808" type="curve" smooth="yes"/>
      <point x="314.469696969697" y="1222.3636363636363"/>
      <point x="422.3055555555556" y="1300.6818181818182"/>
      <point x="579.7651515151515" y="1300.6818181818182" type="curve" smooth="yes"/>
      <point x="778.2297979797979" y="1300.6818181818182"/>
      <point x="900.2550505050505" y="1186.2095959595958"/>
      <point x="900.2550505050505" y="827.4494949494949" type="curve" smooth="yes"/>
      <point x="900.2550505050505" y="716.0151515151515" type="line" smooth="yes"/>
      <point x="900.2550505050505" y="362.17929292929296"/>
      <point x="750.070707070707" y="189.85606060606062"/>
      <point x="437.99242424242425" y="189.85606060606062" type="curve" smooth="yes"/>
      <point x="339.6717171717172" y="189.85606060606062"/>
      <point x="229.57828282828282" y="205.05808080808083"/>
      <point x="138.62121212121212" y="239.32828282828288" type="curve"/>
      <point x="138.62121212121212" y="28.931818181818183" type="line"/>
      <point x="231.86111111111111" y="-6.540404040404041"/>
      <point x="339.15656565656565" y="-19.08080808080808"/>
      <point x="453.6237373737374" y="-19.08080808080808" type="curve" smooth="yes"/>
      <point x="917.5252525252525" y="-19.08080808080808"/>
      <point x="1169.1237373737374" y="251.2929292929293"/>
      <point x="1169.1237373737374" y="790.2424242424242" type="curve" smooth="yes"/>
      <point x="1169.1237373737374" y="1287.1666666666667"/>
      <point x="934.9570707070707" y="1499.080808080808"/>
    </contour>
  </outline>
</glyph>
<glyph name="colon" format="2">
  <advance width="552.7525252525253"/>
  <unicode hex="003A"/>
  <outline>
    <contour>
      <point x="276.37626262626264" y="-15.404040404040405" type="curve" smooth="yes"/>
      <point x="386.1414141414142" y="-15.404040404040405"/>
      <point x="455.64393939393943" y="49.93686868686869"/>
      <point x="455.64393939393943" y="149.54292929292933" type="curve" smooth="yes"/>
      <point x="455.64393939393943" y="249.14898989898992"/>
      <point x="388.30303030303037" y="315.409090909091"/>
      <point x="276.37626262626264" y="315.409090909091" type="curve" smooth="yes"/>
      <point x="164.44949494949495" y="315.409090909091"/>
      <point x="97.10858585858584" y="251.3106060606061"/>
      <point x="97.10858585858584" y="149.54292929292933" type="curve" smooth="yes"/>
      <point x="97.10858585858584" y="47.77525252525253"/>
      <point x="166.61111111111111" y="-15.404040404040405"/>
    </contour>
    <contour>
      <point x="276.37626262626264" y="775.3989898989898" type="curve" smooth="yes"/>
      <point x="386.1414141414142" y="775.3989898989898"/>
      <point x="455.64393939393943" y="840.739898989899"/>
      <point x="455.64393939393943" y="940.3459595959596" type="curve" smooth="yes"/>
      <point x="455.64393939393943" y="1039.95202020202"/>
      <point x="388.30303030303037" y="1106.2121212121212"/>
      <point x="276.37626262626264" y="1106.2121212121212" type="curve" smooth="yes"/>
      <point x="164.44949494949495" y="1106.2121212121212"/>
      <point x="97.10858585858584" y="1042.1136363636363"/>
      <point x="97.10858585858584" y="940.3459595959596" type="curve" smooth="yes"/>
      <point x="97.10858585858584" y="838.5782828282828"/>
      <point x="166.61111111111111" y="775.3989898989898"/>
    </contour>
  </outline>
</glyph>
<glyph name="semicolon" format="2">
  <advance width="552.7525252525253"/>
  <unicode hex="003B"/>
  <outline>
    <contour>
      <point x="159.3661616161616" y="-332.42424242424244" type="curve"/>
      <point x="314.14898989898995" y="-332.42424242424244" type="line"/>
      <point x="398.08333333333337" y="-212.4848484848485"/>
      <point x="454.0227272727273" y="-55.252525252525245"/>
      <point x="454.0227272727273" y="99.82070707070709" type="curve" smooth="yes"/>
      <point x="454.0227272727273" y="244.66414141414145"/>
      <point x="389.6540404040404" y="315.409090909091"/>
      <point x="272.2146464646465" y="315.409090909091" type="curve" smooth="yes"/>
      <point x="163.53030303030303" y="315.409090909091"/>
      <point x="97.10858585858584" y="252.12121212121218"/>
      <point x="97.10858585858584" y="150.46212121212125" type="curve" smooth="yes"/>
      <point x="97.10858585858584" y="48.69444444444445"/>
      <point x="167.15151515151516" y="-15.404040404040405"/>
      <point x="276.37626262626264" y="-15.404040404040405" type="curve" smooth="yes"/>
      <point x="311.07323232323233" y="-15.404040404040405" type="line"/>
      <point x="254.92424242424244" y="33.61616161616162" type="line"/>
      <point x="254.92424242424244" y="-85.67676767676768"/>
      <point x="219.68434343434345" y="-196.8080808080808"/>
    </contour>
    <contour>
      <point x="276.37626262626264" y="775.3989898989898" type="curve" smooth="yes"/>
      <point x="386.1414141414142" y="775.3989898989898"/>
      <point x="455.64393939393943" y="840.739898989899"/>
      <point x="455.64393939393943" y="940.3459595959596" type="curve" smooth="yes"/>
      <point x="455.64393939393943" y="1039.95202020202"/>
      <point x="388.30303030303037" y="1106.2121212121212"/>
      <point x="276.37626262626264" y="1106.2121212121212" type="curve" smooth="yes"/>
      <point x="164.44949494949495" y="1106.2121212121212"/>
      <point x="97.10858585858584" y="1042.1136363636363"/>
      <point x="97.10858585858584" y="940.3459595959596" type="curve" smooth="yes"/>
      <point x="97.10858585858584" y="838.5782828282828"/>
      <point x="166.61111111111111" y="775.3989898989898"/>
    </contour>
  </outline>
</glyph>
<glyph name="less" format="2">
  <advance width="1123.3686868686868"/>
  <unicode hex="003C"/>
  <outline>
    <contour>
      <point x="984.5883838383838" y="307.10606060606057" type="line"/>
      <point x="984.5883838383838" y="518.530303030303" type="line"/>
      <point x="293.83838383838383" y="780.9166666666666" type="line"/>
      <point x="293.83838383838383" y="743.1363636363636" type="line"/>
      <point x="984.5883838383838" y="1001.469696969697" type="line"/>
      <point x="984.5883838383838" y="1212.8939393939395" type="line"/>
      <point x="138.78030303030303" y="884.8939393939394" type="line"/>
      <point x="138.78030303030303" y="635.1060606060606" type="line"/>
    </contour>
  </outline>
</glyph>
<glyph name="equal" format="2">
  <advance width="1123.3686868686868"/>
  <unicode hex="003D"/>
  <outline>
    <contour>
      <point x="138.78030303030303" y="872.1717171717172" type="line"/>
      <point x="984.5883838383838" y="872.1717171717172" type="line"/>
      <point x="984.5883838383838" y="1079.919191919192" type="line"/>
      <point x="138.78030303030303" y="1079.919191919192" type="line"/>
    </contour>
    <contour>
      <point x="138.78030303030303" y="440.0808080808081" type="line"/>
      <point x="984.5883838383838" y="440.0808080808081" type="line"/>
      <point x="984.5883838383838" y="647.8282828282828" type="line"/>
      <point x="138.78030303030303" y="647.8282828282828" type="line"/>
    </contour>
  </outline>
</glyph>
<glyph name="greater" format="2">
  <advance width="1123.3686868686868"/>
  <unicode hex="003E"/>
  <outline>
    <contour>
      <point x="138.78030303030303" y="307.10606060606057" type="line"/>
      <point x="984.5883838383838" y="635.1060606060606" type="line"/>
      <point x="984.5883838383838" y="884.8939393939394" type="line"/>
      <point x="138.78030303030303" y="1212.8939393939395" type="line"/>
      <point x="138.78030303030303" y="1001.469696969697" type="line"/>
      <point x="829.530303030303" y="743.1363636363636" type="line"/>
      <point x="829.530303030303" y="780.9166666666666" type="line"/>
      <point x="138.78030303030303" y="518.530303030303" type="line"/>
    </contour>
  </outline>
</glyph>
<glyph name="question" format="2">
  <advance width="1018.1186868686868"/>
  <unicode hex="003F"/>
  <outline>
    <contour>
      <point x="379.4343434343434" y="425.3737373737374" type="line"/>
      <point x="546.0530303030303" y="425.3737373737374" type="line"/>
      <point x="566.0505050505051" y="672.9343434343434" type="line"/>
      <point x="830.8282828282829" y="756.2525252525253"/>
      <point x="959.4141414141415" y="884.7247474747475"/>
      <point x="959.4141414141415" y="1101.8863636363635" type="curve" smooth="yes"/>
      <point x="959.4141414141415" y="1354.3939393939395"/>
      <point x="777.3787878787879" y="1499.080808080808"/>
      <point x="420.57323232323233" y="1499.080808080808" type="curve" smooth="yes"/>
      <point x="289.8863636363636" y="1499.080808080808"/>
      <point x="142.97474747474746" y="1477.3383838383838"/>
      <point x="39.515151515151516" y="1443.189393939394" type="curve"/>
      <point x="39.515151515151516" y="1229.010101010101" type="line"/>
      <point x="150.11111111111111" y="1266.6186868686868"/>
      <point x="276.66161616161617" y="1286.361111111111"/>
      <point x="392.8636363636364" y="1286.361111111111" type="curve" smooth="yes"/>
      <point x="597.3055555555555" y="1286.361111111111"/>
      <point x="693.5176767676768" y="1212.9469696969697"/>
      <point x="693.5176767676768" y="1083.0530303030303" type="curve" smooth="yes"/>
      <point x="693.5176767676768" y="954.7525252525253"/>
      <point x="611.8787878787879" y="869.9217171717172"/>
      <point x="332.5782828282828" y="807.25" type="curve"/>
    </contour>
    <contour>
      <point x="463.14898989898995" y="-15.404040404040405" type="curve" smooth="yes"/>
      <point x="573.8333333333334" y="-15.404040404040405"/>
      <point x="642.4166666666667" y="47.613636363636374"/>
      <point x="642.4166666666667" y="140.62626262626264" type="curve" smooth="yes"/>
      <point x="642.4166666666667" y="234.55808080808086"/>
      <point x="575.0757575757576" y="297.5757575757576"/>
      <point x="463.14898989898995" y="297.5757575757576" type="curve" smooth="yes"/>
      <point x="351.22222222222223" y="297.5757575757576"/>
      <point x="283.8813131313131" y="236.71969696969703"/>
      <point x="283.8813131313131" y="140.62626262626264" type="curve" smooth="yes"/>
      <point x="283.8813131313131" y="45.45202020202021"/>
      <point x="353.3838383838384" y="-15.404040404040405"/>
    </contour>
  </outline>
</glyph>
<glyph name="at" format="2">
  <advance width="2149.719696969697"/>
  <unicode hex="0040"/>
  <outline>
    <contour>
      <point x="1124.1237373737374" y="-460.0" type="curve" smooth="yes"/>
      <point x="1283.361111111111" y="-460.0"/>
      <point x="1440.5454545454545" y="-440.6212121212121"/>
      <point x="1586.3080808080808" y="-405.0808080808081" type="curve"/>
      <point x="1586.3080808080808" y="-227.37878787878785" type="line"/>
      <point x="1429.5833333333333" y="-264.9873737373737"/>
      <point x="1281.7525252525252" y="-283.2171717171717"/>
      <point x="1124.1237373737374" y="-283.2171717171717" type="curve" smooth="yes"/>
      <point x="562.4520202020202" y="-283.2171717171717"/>
      <point x="304.56818181818187" y="-50.083333333333314"/>
      <point x="304.56818181818187" y="521.8383838383838" type="curve" smooth="yes"/>
      <point x="304.56818181818187" y="1086.4065656565656"/>
      <point x="561.0732323232323" y="1321.2171717171716"/>
      <point x="1082.0959595959596" y="1321.2171717171716" type="curve" smooth="yes"/>
      <point x="1603.2398989898988" y="1321.2171717171716"/>
      <point x="1857.2575757575758" y="1093.4873737373737"/>
      <point x="1859.959595959596" y="568.0505050505051" type="curve" smooth="yes"/>
      <point x="1861.8510101010102" y="248.29545454545456"/>
      <point x="1776.2752525252527" y="155.00000000000003"/>
      <point x="1671.8358585858587" y="155.00000000000003" type="curve" smooth="yes"/>
      <point x="1597.4646464646466" y="155.00000000000003"/>
      <point x="1555.8813131313132" y="192.88131313131316"/>
      <point x="1555.8813131313132" y="294.3636363636364" type="curve" smooth="yes"/>
      <point x="1555.8813131313132" y="660.2777777777777" type="line" smooth="yes"/>
      <point x="1555.8813131313132" y="987.6818181818181"/>
      <point x="1396.5883838383838" y="1097.080808080808"/>
      <point x="1061.7070707070707" y="1097.080808080808" type="curve" smooth="yes"/>
      <point x="945.9545454545455" y="1097.080808080808"/>
      <point x="813.4040404040404" y="1077.689393939394"/>
      <point x="706.8005050505051" y="1041.5277777777778" type="curve"/>
      <point x="706.260101010101" y="838.6969696969696" type="line"/>
      <point x="809.6944444444445" y="874.9545454545454"/>
      <point x="928.219696969697" y="892.4671717171717"/>
      <point x="1017.8535353535353" y="892.4671717171717" type="curve" smooth="yes"/>
      <point x="1206.7070707070707" y="892.4671717171717"/>
      <point x="1290.0934343434344" y="840.9520202020201"/>
      <point x="1290.0934343434344" y="670.3560606060606" type="curve" smooth="yes"/>
      <point x="1290.0934343434344" y="262.7727272727273" type="line"/>
      <point x="1229.0707070707072" y="199.2727272727273"/>
      <point x="1133.8459595959596" y="170.51010101010104"/>
      <point x="1058.9267676767677" y="170.51010101010104" type="curve" smooth="yes"/>
      <point x="947.3434343434344" y="170.51010101010104"/>
      <point x="879.7045454545455" y="218.85606060606062"/>
      <point x="879.7045454545455" y="316.54292929292933" type="curve" smooth="yes"/>
      <point x="879.7045454545455" y="413.4040404040404"/>
      <point x="941.1565656565658" y="460.19444444444446"/>
      <point x="1080.6717171717173" y="474.42676767676767" type="curve" smooth="yes"/>
      <point x="1367.2045454545455" y="502.0934343434343" type="line"/>
      <point x="1344.6439393939395" y="651.3156565656566" type="line"/>
      <point x="1058.2045454545455" y="623.64898989899" type="line" smooth="yes"/>
      <point x="744.8964646464647" y="598.0126262626263"/>
      <point x="609.5378787878788" y="488.73232323232327"/>
      <point x="609.5378787878788" y="290.73737373737373" type="curve" smooth="yes"/>
      <point x="609.5378787878788" y="102.0909090909091"/>
      <point x="741.8333333333334" y="-19.242424242424242"/>
      <point x="977.4469696969697" y="-19.242424242424242" type="curve" smooth="yes"/>
      <point x="1111.030303030303" y="-19.242424242424242"/>
      <point x="1236.4646464646464" y="26.868686868686865"/>
      <point x="1296.3484848484848" y="130.16161616161617" type="curve"/>
      <point x="1312.8737373737374" y="130.16161616161617" type="line"/>
      <point x="1364.3661616161617" y="33.12373737373737"/>
      <point x="1463.2904040404042" y="-19.242424242424242"/>
      <point x="1610.8232323232323" y="-19.242424242424242" type="curve" smooth="yes"/>
      <point x="1867.3030303030303" y="-19.242424242424242"/>
      <point x="2048.8611111111113" y="144.13636363636363"/>
      <point x="2049.5505050505053" y="575.1313131313132" type="curve" smooth="yes"/>
      <point x="2050.2398989898993" y="1187.3358585858587"/>
      <point x="1707.3459595959596" y="1498.0"/>
      <point x="1082.0959595959596" y="1498.0" type="curve" smooth="yes"/>
      <point x="458.1161616161616" y="1498.0"/>
      <point x="100.16919191919192" y="1187.3358585858587"/>
      <point x="100.16919191919192" y="520.0" type="curve" smooth="yes"/>
      <point x="100.16919191919192" y="-149.6338383838384"/>
      <point x="459.2651515151515" y="-459.31060606060606"/>
    </contour>
  </outline>
</glyph>
<glyph name="B" format="2">
  <advance width="1372.489898989899"/>
  <unicode hex="0042"/>
  <anchor x="705.6085858585859" y="0.0" name="bottom"/>
  <anchor x="705.6085858585859" y="1480.0" name="top"/>
  <outline>
    <contour>
      <point x="578.6313131313132" y="-15.404040404040405" type="curve" smooth="yes"/>
      <point x="1117.2853535353536" y="-15.404040404040405"/>
      <point x="1306.6464646464647" y="140.76767676767676"/>
      <point x="1306.6464646464647" y="413.44191919191917" type="curve" smooth="yes"/>
      <point x="1306.6464646464647" y="617.7651515151515"/>
      <point x="1188.6489898989898" y="742.3787878787879"/>
      <point x="981.3106060606061" y="769.14898989899" type="curve"/>
      <point x="979.2424242424242" y="755.540404040404" type="line"/>
      <point x="1167.4722222222222" y="788.310606060606"/>
      <point x="1265.578282828283" y="919.3939393939394"/>
      <point x="1265.578282828283" y="1089.0858585858587" type="curve" smooth="yes"/>
      <point x="1265.578282828283" y="1358.3939393939395"/>
      <point x="1080.151515151515" y="1497.2424242424242"/>
      <point x="635.8686868686868" y="1497.2424242424242" type="curve" smooth="yes"/>
      <point x="468.5328282828283" y="1497.2424242424242"/>
      <point x="298.42676767676767" y="1476.8661616161617"/>
      <point x="157.87626262626262" y="1445.921717171717" type="curve"/>
      <point x="157.87626262626262" y="12.72979797979798" type="line"/>
      <point x="294.17424242424244" y="-5.3106060606060606"/>
      <point x="450.92929292929296" y="-15.404040404040405"/>
    </contour>
    <contour>
      <point x="648.1818181818182" y="185.15656565656568" type="curve" smooth="yes"/>
      <point x="568.8888888888889" y="185.15656565656568"/>
      <point x="503.58585858585866" y="187.72474747474752"/>
      <point x="428.79797979797985" y="197.13131313131316" type="curve"/>
      <point x="428.79797979797985" y="1276.0454545454545" type="line"/>
      <point x="496.9520202020202" y="1288.7626262626263"/>
      <point x="571.4570707070708" y="1296.6818181818182"/>
      <point x="666.9015151515152" y="1296.6818181818182" type="curve" smooth="yes"/>
      <point x="913.3585858585859" y="1296.6818181818182"/>
      <point x="1005.2348484848485" y="1231.121212121212"/>
      <point x="1005.2348484848485" y="1077.1969696969697" type="curve" smooth="yes"/>
      <point x="1005.2348484848485" y="930.3282828282828"/>
      <point x="916.0479797979798" y="859.929292929293"/>
      <point x="694.8661616161617" y="859.929292929293" type="curve" smooth="yes"/>
      <point x="396.0454545454546" y="859.929292929293" type="line"/>
      <point x="396.0454545454546" y="655.3156565656566" type="line"/>
      <point x="724.0126262626263" y="655.3156565656566" type="line" smooth="yes"/>
      <point x="955.0050505050505" y="655.3156565656566"/>
      <point x="1051.2878787878788" y="583.3484848484849"/>
      <point x="1051.2878787878788" y="423.27777777777777" type="curve" smooth="yes"/>
      <point x="1051.2878787878788" y="265.0707070707071"/>
      <point x="958.5075757575758" y="185.15656565656568"/>
    </contour>
  </outline>
</glyph>
<glyph name="C" format="2">
  <advance width="1297.2828282828282"/>
  <unicode hex="0043"/>
  <anchor x="787.189393939394" y="0.0" name="bottom"/>
  <anchor x="779.1464646464647" y="1520.0" name="top"/>
  <outline>
    <contour>
      <point x="885.6616161616162" y="-19.08080808080808" type="curve" smooth="yes"/>
      <point x="1014.0959595959596" y="-19.08080808080808"/>
      <point x="1137.080808080808" y="-0.7424242424242431"/>
      <point x="1242.8257575757575" y="32.11111111111111" type="curve"/>
      <point x="1242.8257575757575" y="260.0707070707071" type="line"/>
      <point x="1128.2121212121212" y="226.12121212121218"/>
      <point x="1021.8207070707072" y="209.85101010101016"/>
      <point x="906.1161616161617" y="209.85101010101016" type="curve" smooth="yes"/>
      <point x="571.4646464646465" y="209.85101010101016"/>
      <point x="390.4924242424243" y="354.5454545454546"/>
      <point x="390.4924242424243" y="740.9191919191919" type="curve" smooth="yes"/>
      <point x="390.4924242424243" y="1114.6818181818182"/>
      <point x="567.4898989898991" y="1270.1489898989898"/>
      <point x="919.9671717171718" y="1270.1489898989898" type="curve" smooth="yes"/>
      <point x="1033.4823232323233" y="1270.1489898989898"/>
      <point x="1139.9848484848485" y="1256.6616161616162"/>
      <point x="1242.8257575757575" y="1230.888888888889" type="curve"/>
      <point x="1242.8257575757575" y="1458.8484848484848" type="line"/>
      <point x="1133.3383838383838" y="1485.8636363636363"/>
      <point x="1023.3661616161617" y="1499.080808080808"/>
      <point x="900.5" y="1499.080808080808" type="curve" smooth="yes"/>
      <point x="390.24242424242425" y="1499.080808080808"/>
      <point x="100.16919191919192" y="1244.8737373737374"/>
      <point x="100.16919191919192" y="736.9191919191919" type="curve" smooth="yes"/>
      <point x="100.16919191919192" y="204.34343434343435"/>
      <point x="391.70454545454544" y="-19.08080808080808"/>
    </contour>
  </outline>
</glyph>
<glyph name="E" format="2">
  <advance width="1310.8232323232323"/>
  <unicode hex="0045"/>
  <anchor x="710.5858585858587" y="0.0" name="bottom"/>
  <anchor x="1138.891414141414" y="0.0" name="ogonek"/>
  <anchor x="709.2070707070707" y="1520.0" name="top"/>
  <anchor x="41.06818181818182" y="1480.0" name="topleft"/>
  <outline>
    <contour>
      <point x="157.87626262626262" y="0.0" type="line"/>
      <point x="1226.9974747474748" y="0.0" type="line"/>
      <point x="1226.9974747474748" y="217.31313131313138" type="line"/>
      <point x="431.7702020202021" y="217.31313131313138" type="line"/>
      <point x="431.7702020202021" y="1262.6868686868686" type="line"/>
      <point x="1216.9974747474748" y="1262.6868686868686" type="line"/>
      <point x="1216.9974747474748" y="1480.0" type="line"/>
      <point x="157.87626262626262" y="1480.0" type="line"/>
    </contour>
    <contour>
      <point x="308.52525252525254" y="649.10101010101" type="line"/>
      <point x="1115.1742424242425" y="649.10101010101" type="line"/>
      <point x="1115.1742424242425" y="866.4141414141415" type="line"/>
      <point x="308.52525252525254" y="866.4141414141415" type="line"/>
    </contour>
  </outline>
</glyph>
<glyph name="F" format="2">
  <advance width="1273.2676767676767"/>
  <unicode hex="0046"/>
  <outline>
    <contour>
      <point x="157.87626262626262" y="0.0" type="line"/>
      <point x="435.0126262626263" y="0.0" type="line"/>
      <point x="435.0126262626263" y="1258.0934343434344" type="line"/>
      <point x="1212.4015151515152" y="1258.0934343434344" type="line"/>
      <point x="1212.4015151515152" y="1480.0" type="line"/>
      <point x="157.87626262626262" y="1480.0" type="line"/>
    </contour>
    <contour>
      <point x="328.3888888888889" y="620.459595959596" type="line"/>
      <point x="1108.9570707070707" y="620.459595959596" type="line"/>
      <point x="1108.9570707070707" y="842.3661616161617" type="line"/>
      <point x="328.3888888888889" y="842.3661616161617" type="line"/>
    </contour>
  </outline>
</glyph>
<glyph name="G" format="2">
  <advance width="1495.7727272727273"/>
  <unicode hex="0047"/>
  <anchor x="829.0757575757576" y="0.0" name="bottom"/>
  <anchor x="829.0757575757576" y="1520.0" name="top"/>
  <outline>
    <contour>
      <point x="960.9646464646464" y="-15.404040404040405" type="curve" smooth="yes"/>
      <point x="1088.5959595959596" y="-15.404040404040405"/>
      <point x="1206.6161616161617" y="-4.540404040404041"/>
      <point x="1344.1565656565658" y="17.95959595959596" type="curve"/>
      <point x="1344.1565656565658" y="720.0" type="line"/>
      <point x="1084.8535353535353" y="720.0" type="line"/>
      <point x="1084.8535353535353" y="114.51010101010104" type="line"/>
      <point x="1215.4747474747473" y="233.04292929292933" type="line"/>
      <point x="1136.8383838383838" y="219.5555555555556"/>
      <point x="1042.6363636363637" y="211.63636363636368"/>
      <point x="943.6717171717172" y="211.63636363636368" type="curve" smooth="yes"/>
      <point x="570.9646464646465" y="211.63636363636368"/>
      <point x="389.5606060606061" y="378.64646464646466"/>
      <point x="388.8712121212122" y="733.1641414141415" type="curve" smooth="yes"/>
      <point x="388.18181818181824" y="1114.1010101010102"/>
      <point x="587.9141414141415" y="1269.3383838383838"/>
      <point x="968.7474747474748" y="1270.1489898989898" type="curve" smooth="yes"/>
      <point x="1075.1792929292928" y="1270.1489898989898"/>
      <point x="1181.828282828283" y="1258.919191919192"/>
      <point x="1299.659090909091" y="1230.0782828282827" type="curve"/>
      <point x="1299.659090909091" y="1458.0378787878788" type="line"/>
      <point x="1182.4949494949497" y="1485.5934343434344"/>
      <point x="1064.4292929292928" y="1499.080808080808"/>
      <point x="947.2525252525253" y="1499.080808080808" type="curve" smooth="yes"/>
      <point x="409.67929292929296" y="1499.080808080808"/>
      <point x="99.47979797979797" y="1246.0227272727273"/>
      <point x="100.16919191919192" y="735.8383838383838" type="curve" smooth="yes"/>
      <point x="100.85858585858585" y="230.25505050505052"/>
      <point x="387.68939393939394" y="-15.404040404040405"/>
    </contour>
  </outline>
</glyph>
<glyph name="H" format="2">
  <advance width="1595.080808080808"/>
  <unicode hex="0048"/>
  <anchor x="798.0808080808081" y="0.0" name="bottom"/>
  <anchor x="798.0808080808081" y="1181.340909090909" name="center"/>
  <anchor x="798.0808080808081" y="1520.0" name="top"/>
  <anchor x="41.608585858585855" y="1480.0" name="topleft"/>
  <outline>
    <contour>
      <point x="157.87626262626262" y="0.0" type="line"/>
      <point x="435.0126262626263" y="0.0" type="line"/>
      <point x="435.0126262626263" y="636.9419191919192" type="line"/>
      <point x="1160.0681818181818" y="636.9419191919192" type="line"/>
      <point x="1160.0681818181818" y="0.0" type="line"/>
      <point x="1437.2045454545455" y="0.0" type="line"/>
      <point x="1437.2045454545455" y="1480.0" type="line"/>
      <point x="1160.0681818181818" y="1480.0" type="line"/>
      <point x="1160.0681818181818" y="878.5732323232323" type="line"/>
      <point x="435.0126262626263" y="878.5732323232323" type="line"/>
      <point x="435.0126262626263" y="1480.0" type="line"/>
      <point x="157.87626262626262" y="1480.0" type="line"/>
    </contour>
  </outline>
</glyph>
<glyph name="I" format="2">
  <advance width="592.8888888888889"/>
  <unicode hex="0049"/>
  <anchor x="295.6338383838384" y="0.0" name="bottom"/>
  <anchor x="435.0126262626263" y="0.0" name="ogonek"/>
  <anchor x="296.44444444444446" y="1520.0" name="top"/>
  <outline>
    <contour>
      <point x="157.87626262626262" y="0.0" type="line"/>
      <point x="435.0126262626263" y="0.0" type="line"/>
      <point x="435.0126262626263" y="1480.0" type="line"/>
      <point x="157.87626262626262" y="1480.0" type="line"/>
    </contour>
  </outline>
</glyph>
<glyph name="J" format="2">
  <advance width="592.8888888888889"/>
  <unicode hex="004A"/>
  <anchor x="461.6691919191919" y="0.0" name="bottom"/>
  <anchor x="297.2550505050505" y="1520.0" name="top"/>
  <outline>
    <contour>
      <point x="164.2954545454546" y="-348.64646464646466" type="line"/>
      <point x="360.8383838383839" y="-141.2171717171717"/>
      <point x="429.2676767676768" y="47.39898989898991"/>
      <point x="435.0126262626263" y="287.97727272727275" type="curve"/>
      <point x="435.0126262626263" y="1480.0" type="line"/>
      <point x="159.49747474747474" y="1480.0" type="line"/>
      <point x="159.49747474747474" y="295.1868686868687" type="line" smooth="yes"/>
      <point x="159.49747474747474" y="75.85858585858587"/>
      <point x="112.35858585858585" y="-73.12121212121211"/>
      <point x="-10.929292929292934" y="-230.19444444444443" type="curve"/>
    </contour>
  </outline>
</glyph>
<glyph name="K" format="2">
  <advance width="1370.4166666666667"/>
  <unicode hex="004B"/>
  <anchor x="714.9015151515152" y="0.0" name="bottom"/>
  <anchor x="710.8484848484849" y="1480.0" name="top"/>
  <outline>
    <contour>
      <point x="1093.7474747474748" y="0.0" type="line"/>
      <point x="1399.111111111111" y="0.0" type="line"/>
      <point x="813.5555555555557" y="795.0757575757576" type="line"/>
      <point x="808.1515151515152" y="724.60101010101" type="line"/>
      <point x="1354.6792929292928" y="1480.0" type="line"/>
      <point x="1059.151515151515" y="1480.0" type="line"/>
      <point x="534.5126262626263" y="755.2979797979798" type="line"/>
    </contour>
    <contour>
      <point x="157.87626262626262" y="0.0" type="line"/>
      <point x="435.0126262626263" y="0.0" type="line"/>
      <point x="435.0126262626263" y="1480.0" type="line"/>
      <point x="157.87626262626262" y="1480.0" type="line"/>
    </contour>
    <contour>
      <point x="394.69444444444446" y="636.9419191919192" type="line"/>
      <point x="650.8459595959596" y="636.9419191919192" type="line"/>
      <point x="650.8459595959596" y="878.3434343434344" type="line"/>
      <point x="394.69444444444446" y="878.3434343434344" type="line"/>
    </contour>
  </outline>
</glyph>
<glyph name="M" format="2">
  <advance width="1934.5555555555557"/>
  <unicode hex="004D"/>
  <anchor x="983.760101010101" y="0.0" name="bottom"/>
  <anchor x="983.760101010101" y="1480.0" name="top"/>
  <outline>
    <contour>
      <point x="161.87626262626262" y="0.0" type="line"/>
      <point x="421.3409090909091" y="0.0" type="line"/>
      <point x="421.3409090909091" y="1247.9090909090908" type="line"/>
      <point x="346.94444444444446" y="1247.9090909090908" type="line"/>
      <point x="849.8383838383838" y="210.8080808080808" type="line"/>
      <point x="1084.7171717171718" y="210.8080808080808" type="line"/>
      <point x="1575.0732323232323" y="1247.9090909090908" type="line"/>
      <point x="1513.2146464646464" y="1247.9090909090908" type="line"/>
      <point x="1513.2146464646464" y="0.0" type="line"/>
      <point x="1772.679292929293" y="0.0" type="line"/>
      <point x="1772.679292929293" y="1480.0" type="line"/>
      <point x="1438.7853535353536" y="1480.0" type="line"/>
      <point x="951.6565656565657" y="438.9747474747475" type="line"/>
      <point x="992.3030303030303" y="438.9747474747475" type="line"/>
      <point x="495.7702020202021" y="1480.0" type="line"/>
      <point x="161.87626262626262" y="1480.0" type="line"/>
    </contour>
  </outline>
</glyph>
<glyph name="P" format="2">
  <advance width="1357.891414141414"/>
  <unicode hex="0050"/>
  <outline>
    <contour>
      <point x="157.87626262626262" y="0.0" type="line"/>
      <point x="435.0126262626263" y="0.0" type="line"/>
      <point x="435.0126262626263" y="455.38383838383834" type="line"/>
      <point x="496.1414141414142" y="451.2474747474747"/>
      <point x="549.5782828282829" y="448.5580808080808"/>
      <point x="611.9494949494949" y="448.5580808080808" type="curve" smooth="yes"/>
      <point x="1058.0025252525252" y="448.5580808080808"/>
      <point x="1272.9545454545455" y="630.2727272727273"/>
      <point x="1272.9545454545455" y="973.9141414141415" type="curve" smooth="yes"/>
      <point x="1272.9545454545455" y="1336.6641414141413"/>
      <point x="1047.2979797979797" y="1497.2424242424242"/>
      <point x="607.5580808080808" y="1497.2424242424242" type="curve" smooth="yes"/>
      <point x="442.59343434343435" y="1497.2424242424242"/>
      <point x="300.85858585858585" y="1480.919191919192"/>
      <point x="157.87626262626262" y="1453.4469696969697" type="curve"/>
    </contour>
    <contour>
      <point x="614.8005050505051" y="653.4419191919192" type="curve" smooth="yes"/>
      <point x="546.969696969697" y="653.4419191919192"/>
      <point x="494.24747474747477" y="656.820707070707"/>
      <point x="435.0126262626263" y="664.8484848484849" type="curve"/>
      <point x="435.0126262626263" y="1276.5454545454545" type="line"/>
      <point x="495.0606060606061" y="1287.141414141414"/>
      <point x="555.2449494949495" y="1292.358585858586"/>
      <point x="631.3358585858587" y="1292.358585858586" type="curve" smooth="yes"/>
      <point x="882.4924242424242" y="1292.358585858586"/>
      <point x="1002.8964646464647" y="1196.2424242424242"/>
      <point x="1002.8964646464647" y="972.2247474747475" type="curve" smooth="yes"/>
      <point x="1002.8964646464647" y="751.0479797979798"/>
      <point x="887.5479797979798" y="653.4419191919192"/>
    </contour>
  </outline>
</glyph>
<glyph name="Q" format="2">
  <advance width="1631.0404040404042"/>
  <unicode hex="0051"/>
  <outline>
    <contour>
      <point x="1468.3232323232323" y="-290.24242424242425" type="curve"/>
      <point x="1510.828282828283" y="-75.09090909090908" type="line"/>
      <point x="1257.699494949495" y="-48.86363636363635"/>
      <point x="998.8459595959596" y="-2.7575757575757436"/>
      <point x="780.5202020202021" y="80.28030303030305" type="curve"/>
      <point x="696.4191919191919" y="12.26515151515152" type="line"/>
      <point x="1253.29797979798" y="-55.10858585858586"/>
      <point x="1530.8712121212122" y="232.0858585858586"/>
      <point x="1530.8712121212122" y="740.0" type="curve" smooth="yes"/>
      <point x="1530.8712121212122" y="1252.9141414141413"/>
      <point x="1247.7171717171718" y="1499.080808080808"/>
      <point x="815.5202020202021" y="1499.080808080808" type="curve" smooth="yes"/>
      <point x="383.32323232323233" y="1499.080808080808"/>
      <point x="100.16919191919192" y="1250.3989898989898"/>
      <point x="100.16919191919192" y="731.8939393939394" type="curve" smooth="yes"/>
      <point x="100.16919191919192" y="178.38131313131314"/>
      <point x="398.9318181818182" y="-151.12121212121212"/>
    </contour>
    <contour>
      <point x="815.5202020202021" y="204.86616161616166" type="curve" smooth="yes"/>
      <point x="547.6969696969697" y="204.86616161616166"/>
      <point x="384.0075757575758" y="355.94191919191917"/>
      <point x="384.0075757575758" y="746.1616161616162" type="curve" smooth="yes"/>
      <point x="384.0075757575758" y="1122.4368686868686"/>
      <point x="551.75" y="1275.1338383838383"/>
      <point x="815.5202020202021" y="1275.1338383838383" type="curve" smooth="yes"/>
      <point x="1079.2904040404042" y="1275.1338383838383"/>
      <point x="1247.0328282828282" y="1120.0050505050506"/>
      <point x="1247.0328282828282" y="733.8383838383838" type="curve" smooth="yes"/>
      <point x="1247.0328282828282" y="359.99494949494954"/>
      <point x="1081.7222222222222" y="204.86616161616166"/>
    </contour>
  </outline>
</glyph>
<glyph name="U" format="2">
  <advance width="1563.0277777777778"/>
  <unicode hex="0055"/>
  <anchor x="784.2702020202021" y="0.0" name="bottom"/>
  <anchor x="988.8358585858587" y="1.3787878787878785" name="ogonek"/>
  <anchor x="784.2702020202021" y="1520.0" name="top"/>
  <anchor x="1149.3636363636363" y="1480.0" name="topright"/>
  <outline>
    <contour>
      <point x="784.2702020202021" y="-19.08080808080808" type="curve" smooth="yes"/>
      <point x="1220.1035353535353" y="-19.08080808080808"/>
      <point x="1412.0707070707072" y="190.9090909090909"/>
      <point x="1412.0707070707072" y="614.510101010101" type="curve" smooth="yes"/>
      <point x="1412.0707070707072" y="1480.0" type="line"/>
      <point x="1140.1767676767677" y="1480.0" type="line"/>
      <point x="1140.1767676767677" y="588.5681818181819" type="line" smooth="yes"/>
      <point x="1140.1767676767677" y="322.4545454545455"/>
      <point x="1025.439393939394" y="207.95959595959602"/>
      <point x="784.2702020202021" y="207.95959595959602" type="curve" smooth="yes"/>
      <point x="543.1010101010102" y="207.95959595959602"/>
      <point x="428.0934343434344" y="322.4545454545455"/>
      <point x="428.0934343434344" y="588.5681818181819" type="curve" smooth="yes"/>
      <point x="428.0934343434344" y="1480.0" type="line"/>
      <point x="150.9570707070707" y="1480.0" type="line"/>
      <point x="150.9570707070707" y="614.510101010101" type="line" smooth="yes"/>
      <point x="150.9570707070707" y="190.9090909090909"/>
      <point x="343.84343434343435" y="-19.08080808080808"/>
    </contour>
  </outline>
</glyph>
<glyph name="V" format="2">
  <advance width="1484.8232323232323"/>
  <unicode hex="0056"/>
  <outline>
    <contour>
      <point x="540.8560606060606" y="0.0" type="line"/>
      <point x="943.9671717171718" y="0.0" type="line"/>
      <point x="1475.4015151515152" y="1480.0" type="line"/>
      <point x="1202.330808080808" y="1480.0" type="line"/>
      <point x="718.2676767676768" y="118.08838383838386" type="line"/>
      <point x="781.2828282828283" y="118.08838383838386" type="line"/>
      <point x="301.89393939393943" y="1480.0" type="line"/>
      <point x="9.42171717171717" y="1480.0" type="line"/>
    </contour>
  </outline>
</glyph>
<glyph name="X" format="2">
  <advance width="1414.699494949495"/>
  <unicode hex="0058"/>
  <outline>
    <contour>
      <point x="1119.8232323232323" y="0.0" type="line"/>
      <point x="1431.280303030303" y="0.0" type="line"/>
      <point x="868.9545454545455" y="765.8333333333334" type="line"/>
      <point x="708.0252525252525" y="957.7449494949495" type="line"/>
      <point x="323.68181818181824" y="1480.0" type="line"/>
      <point x="11.643939393939387" y="1480.0" type="line"/>
      <point x="542.3535353535353" y="761.6313131313132" type="line"/>
      <point x="703.2828282828283" y="570.300505050505" type="line"/>
    </contour>
    <contour>
      <point x="-17.810606060606077" y="0.0" type="line"/>
      <point x="287.05303030303037" y="0.0" type="line"/>
      <point x="703.2828282828283" y="570.300505050505" type="line"/>
      <point x="868.9545454545455" y="765.8333333333334" type="line"/>
      <point x="1394.530303030303" y="1480.0" type="line"/>
      <point x="1092.2474747474748" y="1480.0" type="line"/>
      <point x="708.0252525252525" y="957.7449494949495" type="line"/>
      <point x="542.3535353535353" y="761.6313131313132" type="line"/>
    </contour>
  </outline>
</glyph>
<glyph name="bracketleft" format="2">
  <advance width="735.1717171717172"/>
  <unicode hex="005B"/>
  <outline>
    <contour>
      <point x="177.87626262626262" y="-440.0" type="line"/>
      <point x="758.4191919191919" y="-440.0" type="line"/>
      <point x="758.4191919191919" y="-224.1464646464646" type="line"/>
      <point x="449.33838383838383" y="-224.1464646464646" type="line"/>
      <point x="449.33838383838383" y="1400.1464646464647" type="line"/>
      <point x="766.5252525252525" y="1400.1464646464647" type="line"/>
      <point x="766.5252525252525" y="1616.0" type="line"/>
      <point x="177.87626262626262" y="1616.0" type="line"/>
    </contour>
  </outline>
</glyph>
<glyph name="backslash" format="2">
  <advance width="792.9848484848485"/>
  <unicode hex="005C"/>
  <outline>
    <contour>
      <point x="521.2651515151515" y="-240.0" type="line"/>
      <point x="792.9848484848485" y="-240.0" type="line"/>
      <point x="271.719696969697" y="1616.0" type="line"/>
      <point x="0.0" y="1616.0" type="line"/>
    </contour>
  </outline>
</glyph>
<glyph name="bracketright" format="2">
  <advance width="735.1717171717172"/>
  <unicode hex="005D"/>
  <outline>
    <contour>
      <point x="-23.247474747474744" y="-440.0" type="line"/>
      <point x="557.2954545454546" y="-440.0" type="line"/>
      <point x="557.2954545454546" y="1616.0" type="line"/>
      <point x="-31.35353535353535" y="1616.0" type="line"/>
      <point x="-31.35353535353535" y="1400.1464646464647" type="line"/>
      <point x="285.8333333333333" y="1400.1464646464647" type="line"/>
      <point x="285.8333333333333" y="-224.1464646464646" type="line"/>
      <point x="-23.247474747474744" y="-224.1464646464646" type="line"/>
    </contour>
  </outline>
</glyph>
<glyph name="underscore" format="2">
  <advance width="1261.0252525252527"/>
  <unicode hex="005F"/>
  <outline>
    <contour>
      <point x="92.0959595959596" y="-216.66414141414145" type="line"/>
      <point x="1168.9292929292928" y="-216.66414141414145" type="line"/>
      <point x="1168.9292929292928" y="-0.8106060606060608" type="line"/>
      <point x="92.0959595959596" y="-0.8106060606060608" type="line"/>
    </contour>
  </outline>
</glyph>
<glyph name="grave" format="2">
  <advance width="1154.0404040404042"/>
  <unicode hex="0060"/>
  <anchor x="577.0202020202021" y="1200.0" name="_top"/>
  <anchor x="577.0202020202021" y="1610.0404040404042" name="top"/>
  <outline>
    <contour>
      <point x="449.530303030303" y="1240.2222222222222" type="line"/>
      <point x="704.510101010101" y="1240.2222222222222" type="line"/>
      <point x="462.4570707070707" y="1616.0" type="line"/>
      <point x="166.91666666666666" y="1616.0" type="line"/>
    </contour>
  </outline>
</glyph>
<glyph name="b" format="2">
  <advance width="1281.358585858586"/>
  <unicode hex="0062"/>
  <anchor x="643.469696969697" y="0.0" name="bottom"/>
  <anchor x="277.52525252525254" y="1616.0" name="top"/>
  <outline>
    <contour>
      <point x="565.5227272727273" y="-19.891414141414142" type="curve" smooth="yes"/>
      <point x="983.0732323232323" y="-20.161616161616163"/>
      <point x="1194.9722222222222" y="181.28030303030303"/>
      <point x="1194.9722222222222" y="568.9166666666666" type="curve" smooth="yes"/>
      <point x="1194.9722222222222" y="947.9747474747475"/>
      <point x="990.0833333333334" y="1107.888888888889"/>
      <point x="743.3409090909091" y="1107.888888888889" type="curve" smooth="yes"/>
      <point x="608.0681818181819" y="1107.888888888889"/>
      <point x="500.4848484848485" y="1060.3055555555557"/>
      <point x="426.41666666666674" y="981.7373737373738" type="curve"/>
      <point x="413.1212121212121" y="981.7373737373738" type="line"/>
      <point x="413.1212121212121" y="1616.0" type="line"/>
      <point x="141.6590909090909" y="1616.0" type="line"/>
      <point x="141.6590909090909" y="38.88888888888889" type="line"/>
      <point x="272.0025252525253" y="-1.6893939393939394"/>
      <point x="423.4368686868687" y="-19.891414141414142"/>
    </contour>
    <contour>
      <point x="589.6262626262626" y="187.69444444444449" type="curve" smooth="yes"/>
      <point x="521.5782828282829" y="187.69444444444449"/>
      <point x="459.28787878787887" y="197.0606060606061"/>
      <point x="413.1212121212121" y="209.80555555555557" type="curve"/>
      <point x="413.1212121212121" y="794.0858585858585" type="line"/>
      <point x="475.69444444444446" y="858.0984848484848"/>
      <point x="563.0151515151515" y="886.2525252525252"/>
      <point x="649.3636363636364" y="886.2525252525252" type="curve" smooth="yes"/>
      <point x="810.5378787878788" y="886.2525252525252"/>
      <point x="923.0227272727273" y="804.3661616161617"/>
      <point x="923.0227272727273" y="547.6767676767677" type="curve" smooth="yes"/>
      <point x="923.0227272727273" y="296.11111111111114"/>
      <point x="810.9166666666666" y="187.69444444444449"/>
    </contour>
  </outline>
</glyph>
<glyph name="f" format="2">
  <advance width="827.8510101010102"/>
  <unicode hex="0066"/>
  <outline>
    <contour>
      <point x="227.4242424242424" y="0.0" type="line"/>
      <point x="498.0757575757576" y="0.0" type="line"/>
      <point x="498.0757575757576" y="1192.5328282828282" type="line" smooth="yes"/>
      <point x="498.0757575757576" y="1352.4671717171716"/>
      <point x="575.9318181818182" y="1420.3080808080808"/>
      <point x="748.5732323232323" y="1420.3080808080808" type="curve" smooth="yes"/>
      <point x="790.2373737373737" y="1420.3080808080808"/>
      <point x="831.3080808080808" y="1416.699494949495"/>
      <point x="875.2828282828284" y="1410.171717171717" type="curve"/>
      <point x="875.2828282828284" y="1623.540404040404" type="line"/>
      <point x="820.7575757575758" y="1631.540404040404"/>
      <point x="769.540404040404" y="1636.0"/>
      <point x="709.6111111111111" y="1636.0" type="curve" smooth="yes"/>
      <point x="398.1010101010101" y="1636.0"/>
      <point x="227.4242424242424" y="1470.3358585858587"/>
      <point x="227.4242424242424" y="1180.8181818181818" type="curve" smooth="yes"/>
    </contour>
    <contour>
      <point x="29.84848484848485" y="874.9545454545454" type="line"/>
      <point x="827.8383838383838" y="874.9545454545454" type="line"/>
      <point x="827.8383838383838" y="1090.8080808080808" type="line"/>
      <point x="29.84848484848485" y="1090.8080808080808" type="line"/>
    </contour>
  </outline>
</glyph>
<glyph name="i" format="2">
  <advance width="555.0505050505051"/>
  <unicode hex="0069"/>
  <anchor x="277.52525252525254" y="1200.0" name="_top"/>
  <anchor x="277.52525252525254" y="0.0" name="bottom"/>
  <anchor x="413.3914141414142" y="0.0" name="ogonek"/>
  <anchor x="277.52525252525254" y="1200.0" name="top"/>
  <outline>
    <contour>
      <point x="141.6590909090909" y="0.0" type="line"/>
      <point x="413.3914141414142" y="0.0" type="line"/>
      <point x="413.3914141414142" y="1090.8080808080808" type="line"/>
      <point x="141.6590909090909" y="1090.8080808080808" type="line"/>
    </contour>
    <contour>
      <point x="277.52525252525254" y="1277.3181818181818" type="curve" smooth="yes"/>
      <point x="392.96464646464653" y="1277.3181818181818"/>
      <point x="448.6868686868687" y="1328.8787878787878"/>
      <point x="448.6868686868687" y="1419.8383838383838" type="curve" smooth="yes"/>
      <point x="448.6868686868687" y="1510.79797979798"/>
      <point x="392.96464646464653" y="1563.2777777777778"/>
      <point x="277.52525252525254" y="1563.2777777777778" type="curve" smooth="yes"/>
      <point x="162.08585858585857" y="1563.2777777777778"/>
      <point x="106.36363636363635" y="1510.79797979798"/>
      <point x="106.36363636363635" y="1419.8383838383838" type="curve" smooth="yes"/>
      <point x="106.36363636363635" y="1328.8787878787878"/>
      <point x="162.08585858585857" y="1277.3181818181818"/>
    </contour>
  </outline>
</glyph>
<glyph name="j" format="2">
  <advance width="555.0505050505051"/>
  <unicode hex="006A"/>
  <anchor x="273.47222222222223" y="1204.1363636363637" name="_top"/>
  <anchor x="273.47222222222223" y="1204.1363636363637" name="top"/>
  <outline>
    <contour>
      <point x="144.8358585858586" y="-468.64646464646466" type="line"/>
      <point x="339.4873737373738" y="-261.2171717171717"/>
      <point x="413.3914141414142" y="-67.32828282828282"/>
      <point x="413.3914141414142" y="184.739898989899" type="curve" smooth="yes"/>
      <point x="413.3914141414142" y="1090.8080808080808" type="line"/>
      <point x="141.6590909090909" y="1090.8080808080808" type="line"/>
      <point x="141.6590909090909" y="173.56565656565658" type="line" smooth="yes"/>
      <point x="141.6590909090909" y="-45.762626262626256"/>
      <point x="94.520202020202" y="-194.74242424242422"/>
      <point x="-28.767676767676768" y="-351.8156565656565" type="curve"/>
    </contour>
    <contour>
      <point x="273.47222222222223" y="1281.4545454545455" type="curve" smooth="yes"/>
      <point x="388.91161616161617" y="1281.4545454545455"/>
      <point x="444.63383838383845" y="1333.0151515151515"/>
      <point x="444.63383838383845" y="1423.9747474747476" type="curve" smooth="yes"/>
      <point x="444.63383838383845" y="1514.9343434343434"/>
      <point x="388.91161616161617" y="1567.4141414141413"/>
      <point x="273.47222222222223" y="1567.4141414141413" type="curve" smooth="yes"/>
      <point x="158.0328282828283" y="1567.4141414141413"/>
      <point x="102.31060606060605" y="1514.9343434343434"/>
      <point x="102.31060606060605" y="1423.9747474747476" type="curve" smooth="yes"/>
      <point x="102.31060606060605" y="1333.0151515151515"/>
      <point x="158.0328282828283" y="1281.4545454545455"/>
    </contour>
  </outline>
</glyph>
<glyph name="l" format="2">
  <advance width="554.7803030303031"/>
  <unicode hex="006C"/>
  <anchor x="276.7146464646465" y="0.0" name="bottom"/>
  <anchor x="524.2070707070708" y="1616.0" name="caronalt"/>
  <anchor x="653.1439393939395" y="794.0" name="periodcentered"/>
  <anchor x="277.52525252525254" y="714.0" name="slash"/>
  <anchor x="277.52525252525254" y="1616.0" name="top"/>
  <outline>
    <contour>
      <point x="141.6590909090909" y="0.0" type="line"/>
      <point x="413.1212121212121" y="0.0" type="line"/>
      <point x="413.1212121212121" y="1616.0" type="line"/>
      <point x="141.6590909090909" y="1616.0" type="line"/>
    </contour>
  </outline>
</glyph>
<glyph name="m" format="2">
  <advance width="1873.5025252525252"/>
  <unicode hex="006D"/>
  <anchor x="947.8459595959596" y="0.0" name="bottom"/>
  <anchor x="947.8459595959596" y="1200.0" name="top"/>
  <outline>
    <contour>
      <point x="141.6590909090909" y="0.0" type="line"/>
      <point x="413.1212121212121" y="0.0" type="line"/>
      <point x="413.1212121212121" y="760.9545454545455" type="line"/>
      <point x="470.84595959595964" y="839.3459595959596"/>
      <point x="557.8434343434344" y="875.7146464646464"/>
      <point x="641.4318181818182" y="875.7146464646464" type="curve" smooth="yes"/>
      <point x="747.5782828282828" y="875.7146464646464"/>
      <point x="814.1414141414141" y="822.0732323232323"/>
      <point x="814.1414141414141" y="659.8535353535353" type="curve" smooth="yes"/>
      <point x="814.1414141414141" y="0.0" type="line"/>
      <point x="1080.469696969697" y="0.0" type="line"/>
      <point x="1080.469696969697" y="679.7272727272727" type="line" smooth="yes"/>
      <point x="1080.469696969697" y="987.0833333333334"/>
      <point x="930.7045454545455" y="1107.888888888889"/>
      <point x="723.8585858585859" y="1107.888888888889" type="curve" smooth="yes"/>
      <point x="593.7247474747476" y="1107.888888888889"/>
      <point x="480.20959595959596" y="1061.9419191919192"/>
      <point x="397.5050505050506" y="976.1010101010102" type="curve"/>
      <point x="383.5606060606061" y="976.1010101010102" type="line"/>
      <point x="365.6717171717172" y="1090.8080808080808" type="line"/>
      <point x="141.6590909090909" y="1090.8080808080808" type="line"/>
    </contour>
    <contour>
      <point x="1472.328282828283" y="0.0" type="line"/>
      <point x="1742.9797979797981" y="0.0" type="line"/>
      <point x="1742.9797979797981" y="674.0530303030303" type="line" smooth="yes"/>
      <point x="1742.9797979797981" y="986.5429292929293"/>
      <point x="1587.6338383838383" y="1107.888888888889"/>
      <point x="1368.4520202020203" y="1107.888888888889" type="curve" smooth="yes"/>
      <point x="1241.858585858586" y="1107.888888888889"/>
      <point x="1104.0454545454545" y="1061.550505050505"/>
      <point x="992.9494949494949" y="934.8964646464647" type="curve"/>
      <point x="1052.5353535353536" y="745.7878787878788" type="line"/>
      <point x="1111.489898989899" y="839.3459595959596"/>
      <point x="1204.8560606060605" y="875.7146464646464"/>
      <point x="1293.3080808080808" y="875.7146464646464" type="curve" smooth="yes"/>
      <point x="1399.3333333333333" y="875.7146464646464"/>
      <point x="1472.328282828283" y="822.0732323232323"/>
      <point x="1472.328282828283" y="659.8535353535353" type="curve" smooth="yes"/>
    </contour>
  </outline>
</glyph>
<glyph name="n" format="2">
  <advance width="1276.5530303030303"/>
  <unicode hex="006E"/>
  <anchor x="12.878787878787879" y="1200.0" name="apostrophe"/>
  <anchor x="644.7297979797979" y="0.0" name="bottom"/>
  <anchor x="644.7297979797979" y="1200.0" name="top"/>
  <outline>
    <contour>
      <point x="141.6590909090909" y="0.0" type="line"/>
      <point x="413.1212121212121" y="0.0" type="line"/>
      <point x="413.1212121212121" y="763.7121212121212" type="line"/>
      <point x="481.48232323232327" y="842.1035353535353"/>
      <point x="584.7929292929293" y="875.7146464646464"/>
      <point x="674.3686868686868" y="875.7146464646464" type="curve" smooth="yes"/>
      <point x="799.4368686868687" y="875.7146464646464"/>
      <point x="874.5681818181818" y="820.6944444444445"/>
      <point x="874.5681818181818" y="658.3939393939394" type="curve" smooth="yes"/>
      <point x="874.5681818181818" y="0.0" type="line"/>
      <point x="1146.030303030303" y="0.0" type="line"/>
      <point x="1146.030303030303" y="672.5252525252525" type="line" smooth="yes"/>
      <point x="1146.030303030303" y="985.5833333333334"/>
      <point x="982.4671717171717" y="1107.888888888889"/>
      <point x="750.4848484848485" y="1107.888888888889" type="curve" smooth="yes"/>
      <point x="613.3484848484849" y="1107.888888888889"/>
      <point x="488.11616161616166" y="1061.0227272727273"/>
      <point x="397.5050505050506" y="976.3308080808081" type="curve"/>
      <point x="383.5606060606061" y="976.3308080808081" type="line"/>
      <point x="365.6717171717172" y="1090.8080808080808" type="line"/>
      <point x="141.6590909090909" y="1090.8080808080808" type="line"/>
    </contour>
  </outline>
</glyph>
<glyph name="p" format="2">
  <advance width="1281.358585858586"/>
  <unicode hex="0070"/>
  <outline>
    <contour>
      <point x="141.6590909090909" y="-440.0" type="line"/>
      <point x="413.1212121212121" y="-440.0" type="line"/>
      <point x="413.1212121212121" y="-7.227272727272729" type="line"/>
      <point x="464.53030303030306" y="-13.674242424242426"/>
      <point x="527.7651515151515" y="-19.891414141414142"/>
      <point x="590.8106060606061" y="-19.891414141414142" type="curve" smooth="yes"/>
      <point x="980.8712121212122" y="-19.891414141414142"/>
      <point x="1194.9722222222222" y="183.98232323232324"/>
      <point x="1194.9722222222222" y="566.7550505050505" type="curve" smooth="yes"/>
      <point x="1194.9722222222222" y="955.540404040404"/>
      <point x="980.7474747474748" y="1107.888888888889"/>
      <point x="721.2095959595961" y="1107.888888888889" type="curve" smooth="yes"/>
      <point x="583.479797979798" y="1107.888888888889"/>
      <point x="472.77525252525254" y="1054.361111111111"/>
      <point x="399.66666666666674" y="972.4949494949495" type="curve"/>
      <point x="386.41161616161617" y="972.4949494949495" type="line"/>
      <point x="369.7247474747475" y="1090.8080808080808" type="line"/>
      <point x="141.6590909090909" y="1090.8080808080808" type="line"/>
    </contour>
    <contour>
      <point x="582.9621212121212" y="188.50505050505055" type="curve" smooth="yes"/>
      <point x="522.3888888888889" y="188.50505050505055"/>
      <point x="459.28787878787887" y="196.03282828282832"/>
      <point x="413.1212121212121" y="206.54797979797982" type="curve"/>
      <point x="413.1212121212121" y="784.6262626262626" type="line"/>
      <point x="474.3434343434344" y="857.0176767676767"/>
      <point x="563.1363636363636" y="886.5227272727273"/>
      <point x="648.8080808080808" y="886.5227272727273" type="curve" smooth="yes"/>
      <point x="809.7272727272727" y="886.5227272727273"/>
      <point x="923.0227272727273" y="804.6363636363636"/>
      <point x="923.0227272727273" y="546.3257575757576" type="curve" smooth="yes"/>
      <point x="923.0227272727273" y="296.9217171717172"/>
      <point x="810.9166666666666" y="188.50505050505055"/>
    </contour>
  </outline>
</glyph>
<glyph name="q" format="2">
  <advance width="1281.358585858586"/>
  <unicode hex="0071"/>
  <outline>
    <contour>
      <point x="868.2373737373737" y="-440.0" type="line"/>
      <point x="1139.6994949494951" y="-440.0" type="line"/>
      <point x="1139.6994949494951" y="1049.108585858586" type="line"/>
      <point x="1017.1111111111111" y="1087.0252525252524"/>
      <point x="857.9217171717172" y="1107.888888888889"/>
      <point x="715.8358585858587" y="1107.888888888889" type="curve" smooth="yes"/>
      <point x="298.2853535353535" y="1107.888888888889"/>
      <point x="86.38636363636363" y="906.7171717171717"/>
      <point x="86.38636363636363" y="519.0808080808081" type="curve" smooth="yes"/>
      <point x="86.38636363636363" y="140.02272727272728"/>
      <point x="291.27525252525254" y="-19.891414141414142"/>
      <point x="538.0176767676768" y="-19.891414141414142" type="curve" smooth="yes"/>
      <point x="673.290404040404" y="-19.891414141414142"/>
      <point x="780.8737373737374" y="27.69191919191919"/>
      <point x="854.9419191919192" y="106.26010101010101" type="curve"/>
      <point x="868.2373737373737" y="106.26010101010101" type="line"/>
    </contour>
    <contour>
      <point x="631.9949494949495" y="201.74494949494954" type="curve" smooth="yes"/>
      <point x="470.8207070707071" y="201.74494949494954"/>
      <point x="358.33585858585866" y="283.63131313131316"/>
      <point x="358.33585858585866" y="540.320707070707" type="curve" smooth="yes"/>
      <point x="358.33585858585866" y="791.8863636363636"/>
      <point x="474.2247474747475" y="900.3030303030303"/>
      <point x="691.4621212121212" y="900.3030303030303" type="curve" smooth="yes"/>
      <point x="760.320707070707" y="900.3030303030303"/>
      <point x="822.070707070707" y="891.6262626262626"/>
      <point x="868.2373737373737" y="880.070707070707" type="curve"/>
      <point x="868.2373737373737" y="293.91161616161617" type="line"/>
      <point x="805.6641414141413" y="229.89898989898995"/>
      <point x="716.9646464646464" y="201.74494949494954"/>
    </contour>
  </outline>
</glyph>
<glyph name="t" format="2">
  <advance width="863.8888888888889"/>
  <unicode hex="0074"/>
  <anchor x="525.6666666666667" y="0.0" name="bottom"/>
  <anchor x="639.4267676767677" y="1616.0" name="caronalt"/>
  <anchor x="219.4242424242424" y="602.4469696969697" name="stroke"/>
  <anchor x="355.29040404040404" y="1501.6161616161617" name="top"/>
  <anchor x="782.8585858585859" y="1616.0" name="topright"/>
  <outline>
    <contour>
      <point x="628.9873737373738" y="-19.891414141414142" type="curve" smooth="yes"/>
      <point x="697.5378787878788" y="-19.891414141414142"/>
      <point x="769.5984848484849" y="-10.797979797979798"/>
      <point x="831.219696969697" y="3.202020202020204" type="curve"/>
      <point x="831.219696969697" y="217.65151515151518" type="line"/>
      <point x="778.7171717171717" y="207.2045454545455"/>
      <point x="740.7020202020202" y="202.28535353535358"/>
      <point x="701.0782828282829" y="202.28535353535358" type="curve" smooth="yes"/>
      <point x="558.0833333333334" y="202.28535353535358"/>
      <point x="490.8863636363637" y="259.3585858585859"/>
      <point x="490.8863636363637" y="426.3560606060606" type="curve" smooth="yes"/>
      <point x="490.8863636363637" y="1480.0" type="line"/>
      <point x="267.6843434343434" y="1480.0" type="line"/>
      <point x="219.4242424242424" y="1090.8080808080808" type="line"/>
      <point x="219.4242424242424" y="379.22979797979804" type="line" smooth="yes"/>
      <point x="219.4242424242424" y="105.41414141414143"/>
      <point x="365.68939393939394" y="-19.891414141414142"/>
    </contour>
    <contour>
      <point x="21.84848484848485" y="874.9545454545454" type="line"/>
      <point x="820.64898989899" y="874.9545454545454" type="line"/>
      <point x="820.64898989899" y="1090.8080808080808" type="line"/>
      <point x="21.84848484848485" y="1090.8080808080808" type="line"/>
    </contour>
  </outline>
</glyph>
<glyph name="v" format="2">
  <advance width="1208.0580808080808"/>
  <unicode hex="0076"/>
  <anchor x="604.8333333333334" y="0.0" name="bottom"/>
  <anchor x="604.8333333333334" y="1200.0" name="top"/>
  <outline>
    <contour>
      <point x="435.51262626262627" y="0.0" type="line"/>
      <point x="771.7348484848485" y="0.0" type="line"/>
      <point x="1200.6060606060605" y="1090.8080808080808" type="line"/>
      <point x="933.209595959596" y="1090.8080808080808" type="line"/>
      <point x="603.0075757575758" y="209.92929292929298" type="line"/>
      <point x="623.8712121212121" y="209.92929292929298" type="line"/>
      <point x="293.669191919192" y="1090.8080808080808" type="line"/>
      <point x="7.452020202020195" y="1090.8080808080808" type="line"/>
    </contour>
  </outline>
</glyph>
<glyph name="x" format="2">
  <advance width="1159.8156565656566"/>
  <unicode hex="0078"/>
  <anchor x="580.7121212121212" y="0.0" name="bottom"/>
  <anchor x="580.9823232323233" y="1200.0" name="top"/>
  <outline>
    <contour>
      <point x="850.4848484848485" y="0.0" type="line"/>
      <point x="1154.2954545454545" y="0.0" type="line"/>
      <point x="738.3181818181819" y="553.2954545454545" type="line"/>
      <point x="583.6843434343434" y="736.0328282828283" type="line"/>
      <point x="318.62878787878793" y="1090.8080808080808" type="line"/>
      <point x="14.818181818181813" y="1090.8080808080808" type="line"/>
      <point x="420.2954545454545" y="549.4040404040404" type="line"/>
      <point x="577.9015151515152" y="367.43686868686865" type="line"/>
    </contour>
    <contour>
      <point x="6.858585858585851" y="0.0" type="line"/>
      <point x="303.14393939393943" y="0.0" type="line"/>
      <point x="577.9015151515152" y="367.43686868686865" type="line"/>
      <point x="738.3181818181819" y="553.2954545454545" type="line"/>
      <point x="1141.9040404040404" y="1090.8080808080808" type="line"/>
      <point x="846.9974747474747" y="1090.8080808080808" type="line"/>
      <point x="583.6843434343434" y="736.0328282828283" type="line"/>
      <point x="420.2954545454545" y="549.4040404040404" type="line"/>
    </contour>
  </outline>
</glyph>
<glyph name="y" format="2">
  <advance width="1208.0580808080808"/>
  <unicode hex="0079"/>
  <anchor x="969.9621212121212" y="0.0" name="bottom"/>
  <anchor x="604.8333333333334" y="1200.0" name="top"/>
  <outline>
    <contour>
      <point x="331.22727272727275" y="-440.0" type="line"/>
      <point x="598.3131313131314" y="-440.0" type="line"/>
      <point x="1200.6060606060605" y="1090.8080808080808" type="line"/>
      <point x="933.209595959596" y="1090.8080808080808" type="line"/>
      <point x="603.0075757575758" y="209.92929292929298" type="line"/>
      <point x="505.68939393939394" y="0.0" type="line"/>
    </contour>
    <contour>
      <point x="435.51262626262627" y="0.0" type="line"/>
      <point x="694.1136363636364" y="0.0" type="line"/>
      <point x="293.669191919192" y="1090.8080808080808" type="line"/>
      <point x="7.452020202020195" y="1090.8080808080808" type="line"/>
    </contour>
  </outline>
</glyph>
<glyph name="z" format="2">
  <advance width="1060.520202020202"/>
  <unicode hex="007A"/>
  <anchor x="537.6439393939395" y="0.0" name="bottom"/>
  <anchor x="537.6439393939395" y="1200.0" name="top"/>
  <outline>
    <contour>
      <point x="72.60606060606061" y="0.0" type="line"/>
      <point x="1001.6414141414141" y="0.0" type="line"/>
      <point x="1001.6414141414141" y="215.8535353535354" type="line"/>
      <point x="381.7777777777778" y="215.8535353535354" type="line"/>
      <point x="381.7777777777778" y="165.68434343434348" type="line"/>
      <point x="990.2626262626263" y="918.4090909090909" type="line"/>
      <point x="990.2626262626263" y="1090.8080808080808" type="line"/>
      <point x="83.98484848484848" y="1090.8080808080808" type="line"/>
      <point x="83.98484848484848" y="874.9545454545454" type="line"/>
      <point x="681.090909090909" y="874.9545454545454" type="line"/>
      <point x="681.090909090909" y="925.1237373737373" type="line"/>
      <point x="72.60606060606061" y="172.39898989898992" type="line"/>
    </contour>
  </outline>
</glyph>
<glyph name="braceleft" format="2">
  <advance width="775.1717171717172"/>
  <unicode hex="007B"/>
  <outline>
    <contour>
      <point x="640.320707070707" y="-460.0" type="curve" smooth="yes"/>
      <point x="704.0454545454545" y="-460.0"/>
      <point x="760.5833333333333" y="-454.9191919191919"/>
      <point x="806.5252525252525" y="-447.83838383838383" type="curve"/>
      <point x="806.5252525252525" y="-239.98484848484844" type="line"/>
      <point x="683.3358585858587" y="-239.98484848484844" type="line" smooth="yes"/>
      <point x="554.4949494949495" y="-239.98484848484844"/>
      <point x="489.33838383838383" y="-189.85606060606057"/>
      <point x="489.33838383838383" y="-60.325757575757564" type="curve" smooth="yes"/>
      <point x="489.33838383838383" y="366.70707070707067" type="line" smooth="yes"/>
      <point x="489.33838383838383" y="539.7272727272727"/>
      <point x="406.5909090909091" y="631.1818181818182"/>
      <point x="204.45454545454544" y="643.1313131313132" type="curve"/>
      <point x="204.45454545454544" y="611.6767676767677" type="line"/>
      <point x="406.5909090909091" y="623.6262626262626"/>
      <point x="489.33838383838383" y="715.0808080808081"/>
      <point x="489.33838383838383" y="888.1010101010102" type="curve" smooth="yes"/>
      <point x="489.33838383838383" y="1236.3257575757575" type="line" smooth="yes"/>
      <point x="489.33838383838383" y="1365.8560606060605"/>
      <point x="554.4949494949495" y="1415.9848484848485"/>
      <point x="683.3358585858587" y="1415.9848484848485" type="curve" smooth="yes"/>
      <point x="806.5252525252525" y="1415.9848484848485" type="line"/>
      <point x="806.5252525252525" y="1623.8383838383838" type="line"/>
      <point x="760.5833333333333" y="1630.919191919192"/>
      <point x="704.0454545454545" y="1636.0"/>
      <point x="640.320707070707" y="1636.0" type="curve" smooth="yes"/>
      <point x="360.6010101010101" y="1636.0"/>
      <point x="217.87626262626262" y="1502.6944444444443"/>
      <point x="217.87626262626262" y="1247.388888888889" type="curve" smooth="yes"/>
      <point x="217.87626262626262" y="884.4494949494949" type="line" smooth="yes"/>
      <point x="217.87626262626262" y="785.0075757575758"/>
      <point x="164.52272727272725" y="735.3308080808081"/>
      <point x="69.67676767676768" y="735.3308080808081" type="curve" smooth="yes"/>
      <point x="21.886363636363626" y="735.3308080808081" type="line"/>
      <point x="21.886363636363626" y="519.4772727272727" type="line"/>
      <point x="69.67676767676768" y="519.4772727272727" type="line" smooth="yes"/>
      <point x="164.52272727272725" y="519.4772727272727"/>
      <point x="217.87626262626262" y="469.800505050505"/>
      <point x="217.87626262626262" y="370.35858585858585" type="curve" smooth="yes"/>
      <point x="217.87626262626262" y="-71.38888888888889" type="line" smooth="yes"/>
      <point x="217.87626262626262" y="-326.69444444444446"/>
      <point x="360.6010101010101" y="-460.0"/>
    </contour>
  </outline>
</glyph>
<glyph name="bar" format="2">
  <advance width="563.1666666666667"/>
  <unicode hex="007C"/>
  <outline>
    <contour>
      <point x="157.87626262626262" y="-440.0" type="line"/>
      <point x="405.29040404040404" y="-440.0" type="line"/>
      <point x="405.29040404040404" y="1616.0" type="line"/>
      <point x="157.87626262626262" y="1616.0" type="line"/>
    </contour>
  </outline>
</glyph>
<glyph name="braceright" format="2">
  <advance width="775.1717171717172"/>
  <unicode hex="007D"/>
  <outline>
    <contour>
      <point x="134.8510101010101" y="-460.0" type="curve" smooth="yes"/>
      <point x="414.57070707070704" y="-460.0"/>
      <point x="557.2954545454546" y="-326.69444444444446"/>
      <point x="557.2954545454546" y="-71.38888888888889" type="curve" smooth="yes"/>
      <point x="557.2954545454546" y="370.35858585858585" type="line" smooth="yes"/>
      <point x="557.2954545454546" y="469.800505050505"/>
      <point x="610.64898989899" y="519.4772727272727"/>
      <point x="705.4949494949495" y="519.4772727272727" type="curve" smooth="yes"/>
      <point x="753.2853535353536" y="519.4772727272727" type="line"/>
      <point x="753.2853535353536" y="735.3308080808081" type="line"/>
      <point x="705.4949494949495" y="735.3308080808081" type="line" smooth="yes"/>
      <point x="610.64898989899" y="735.3308080808081"/>
      <point x="557.2954545454546" y="785.0075757575758"/>
      <point x="557.2954545454546" y="884.4494949494949" type="curve" smooth="yes"/>
      <point x="557.2954545454546" y="1247.388888888889" type="line" smooth="yes"/>
      <point x="557.2954545454546" y="1502.6944444444443"/>
      <point x="414.57070707070704" y="1636.0"/>
      <point x="134.8510101010101" y="1636.0" type="curve" smooth="yes"/>
      <point x="71.12626262626264" y="1636.0"/>
      <point x="14.588383838383844" y="1630.919191919192"/>
      <point x="-31.35353535353535" y="1623.8383838383838" type="curve"/>
      <point x="-31.35353535353535" y="1415.9848484848485" type="line"/>
      <point x="91.83585858585859" y="1415.9848484848485" type="line" smooth="yes"/>
      <point x="220.67676767676767" y="1415.9848484848485"/>
      <point x="285.8333333333333" y="1365.8560606060605"/>
      <point x="285.8333333333333" y="1236.3257575757575" type="curve" smooth="yes"/>
      <point x="285.8333333333333" y="888.1010101010102" type="line" smooth="yes"/>
      <point x="285.8333333333333" y="715.0808080808081"/>
      <point x="369.39141414141415" y="623.6262626262626"/>
      <point x="570.7171717171717" y="611.6767676767677" type="curve"/>
      <point x="570.7171717171717" y="643.1313131313132" type="line"/>
      <point x="369.39141414141415" y="631.1818181818182"/>
      <point x="285.8333333333333" y="539.7272727272727"/>
      <point x="285.8333333333333" y="366.70707070707067" type="curve" smooth="yes"/>
      <point x="285.8333333333333" y="-60.325757575757564" type="line" smooth="yes"/>
      <point x="285.8333333333333" y="-189.85606060606057"/>
      <point x="220.67676767676767" y="-239.98484848484844"/>
      <point x="91.83585858585859" y="-239.98484848484844" type="curve" smooth="yes"/>
      <point x="-31.35353535353535" y="-239.98484848484844" type="line"/>
      <point x="-31.35353535353535" y="-447.83838383838383" type="line"/>
      <point x="14.588383838383844" y="-454.9191919191919"/>
      <point x="71.12626262626264" y="-460.0"/>
    </contour>
  </outline>
</glyph>
<glyph name="asciitilde" format="2">
  <advance width="1123.3686868686868"/>
  <unicode hex="007E"/>
  <outline>
    <contour>
      <point x="754.760101010101" y="596.4494949494949" type="curve" smooth="yes"/>
      <point x="851.9444444444445" y="596.4494949494949"/>
      <point x="926.2676767676768" y="627.3686868686868"/>
      <point x="984.5883838383838" y="692.9343434343434" type="curve"/>
      <point x="984.5883838383838" y="910.0353535353536" type="line"/>
      <point x="914.3762626262626" y="834.7929292929293"/>
      <point x="844.7020202020202" y="800.9545454545455"/>
      <point x="756.0025252525253" y="800.9545454545455" type="curve" smooth="yes"/>
      <point x="635.25" y="800.9545454545455"/>
      <point x="520.0631313131313" y="918.0353535353536"/>
      <point x="368.60858585858585" y="918.0353535353536" type="curve" smooth="yes"/>
      <point x="271.42424242424244" y="918.0353535353536"/>
      <point x="197.1010101010101" y="887.1161616161617"/>
      <point x="138.78030303030303" y="821.5505050505051" type="curve"/>
      <point x="138.78030303030303" y="604.4494949494949" type="line"/>
      <point x="208.99242424242425" y="679.6919191919192"/>
      <point x="278.6666666666667" y="713.530303030303"/>
      <point x="367.3661616161616" y="713.530303030303" type="curve" smooth="yes"/>
      <point x="488.1186868686869" y="713.530303030303"/>
      <point x="603.3055555555555" y="596.4494949494949"/>
    </contour>
  </outline>
</glyph>
<glyph name="exclamdown" format="2">
  <advance width="592.7525252525253"/>
  <unicode hex="00A1"/>
  <outline>
    <contour>
      <point x="214.5530303030303" y="640.2474747474747" type="line"/>
      <point x="152.83585858585857" y="134.60858585858585" type="line"/>
      <point x="152.83585858585857" y="-380.0" type="line"/>
      <point x="439.91666666666674" y="-380.0" type="line"/>
      <point x="439.91666666666674" y="134.60858585858585" type="line"/>
      <point x="381.1717171717172" y="640.2474747474747" type="line"/>
    </contour>
    <contour>
      <point x="296.37626262626264" y="1106.2121212121212" type="curve" smooth="yes"/>
      <point x="186.61111111111111" y="1106.2121212121212"/>
      <point x="117.10858585858584" y="1043.0328282828282"/>
      <point x="117.10858585858584" y="941.2651515151515" type="curve" smooth="yes"/>
      <point x="117.10858585858584" y="839.4974747474747"/>
      <point x="184.44949494949495" y="775.3989898989898"/>
      <point x="296.37626262626264" y="775.3989898989898" type="curve" smooth="yes"/>
      <point x="408.30303030303037" y="775.3989898989898"/>
      <point x="475.64393939393943" y="841.6590909090909"/>
      <point x="475.64393939393943" y="941.2651515151515" type="curve" smooth="yes"/>
      <point x="475.64393939393943" y="1040.871212121212"/>
      <point x="406.1414141414142" y="1106.2121212121212"/>
    </contour>
  </outline>
</glyph>
<glyph name="cent" format="2">
  <advance width="1014.4166666666667"/>
  <unicode hex="00A2"/>
  <outline>
    <contour>
      <point x="660.8156565656566" y="-20.161616161616163" type="curve" smooth="yes"/>
      <point x="766.7979797979798" y="-20.161616161616163"/>
      <point x="869.0252525252525" y="-3.661616161616162"/>
      <point x="954.3106060606061" y="24.934343434343432" type="curve"/>
      <point x="954.3106060606061" y="239.38383838383842" type="line"/>
      <point x="848.229797979798" y="209.98989898989902"/>
      <point x="772.7676767676768" y="197.69191919191923"/>
      <point x="695.1464646464647" y="197.69191919191923" type="curve" smooth="yes"/>
      <point x="478.6237373737374" y="197.69191919191923"/>
      <point x="365.0909090909091" y="299.3358585858586"/>
      <point x="365.0909090909091" y="546.1616161616162" type="curve" smooth="yes"/>
      <point x="365.0909090909091" y="787.8787878787879"/>
      <point x="475.719696969697" y="890.0353535353535"/>
      <point x="723.040404040404" y="890.0353535353535" type="curve" smooth="yes"/>
      <point x="802.7702020202021" y="890.0353535353535"/>
      <point x="873.3383838383838" y="880.7373737373737"/>
      <point x="954.3106060606061" y="863.9116161616162" type="curve"/>
      <point x="954.3106060606061" y="1078.361111111111" type="line"/>
      <point x="873.4469696969697" y="1098.199494949495"/>
      <point x="789.179292929293" y="1107.888888888889"/>
      <point x="694.4671717171717" y="1107.888888888889" type="curve" smooth="yes"/>
      <point x="301.37626262626264" y="1107.888888888889"/>
      <point x="86.38636363636363" y="923.2449494949495"/>
      <point x="86.38636363636363" y="543.5126262626262" type="curve" smooth="yes"/>
      <point x="86.38636363636363" y="164.98232323232324"/>
      <point x="289.79545454545456" y="-20.161616161616163"/>
    </contour>
    <contour>
      <point x="516.4116161616162" y="-240.0" type="line"/>
      <point x="751.179292929293" y="-240.0" type="line"/>
      <point x="751.179292929293" y="32.424242424242436" type="line"/>
      <point x="516.4116161616162" y="32.424242424242436" type="line"/>
    </contour>
    <contour>
      <point x="516.4116161616162" y="1058.3838383838383" type="line"/>
      <point x="751.179292929293" y="1058.3838383838383" type="line"/>
      <point x="751.179292929293" y="1330.8080808080808" type="line"/>
      <point x="516.4116161616162" y="1330.8080808080808" type="line"/>
    </contour>
  </outline>
</glyph>
<glyph name="sterling" format="2">
  <advance width="1406.5429292929293"/>
  <unicode hex="00A3"/>
  <outline>
    <contour>
      <point x="296.1969696969697" y="81.71717171717174" type="line"/>
      <point x="563.6060606060607" y="81.71717171717174" type="line"/>
      <point x="563.6060606060607" y="1014.2525252525253" type="line" smooth="yes"/>
      <point x="563.6060606060607" y="1206.4772727272727"/>
      <point x="669.929292929293" y="1277.7146464646464"/>
      <point x="933.8661616161617" y="1277.7146464646464" type="curve" smooth="yes"/>
      <point x="1048.4065656565656" y="1277.7146464646464"/>
      <point x="1177.739898989899" y="1260.6338383838383"/>
      <point x="1281.7020202020203" y="1230.2676767676767" type="curve"/>
      <point x="1281.7020202020203" y="1454.7146464646464" type="line"/>
      <point x="1180.2828282828282" y="1482.310606060606"/>
      <point x="1052.1363636363637" y="1499.080808080808"/>
      <point x="920.6136363636364" y="1499.080808080808" type="curve" smooth="yes"/>
      <point x="504.45959595959596" y="1499.080808080808"/>
      <point x="296.1969696969697" y="1333.25"/>
      <point x="296.1969696969697" y="1002.3636363636364" type="curve" smooth="yes"/>
    </contour>
    <contour>
      <point x="80.0" y="0.0" type="line"/>
      <point x="1329.9166666666667" y="0.0" type="line"/>
      <point x="1329.9166666666667" y="216.39393939393946" type="line"/>
      <point x="80.0" y="216.39393939393946" type="line"/>
    </contour>
    <contour>
      <point x="80.0" y="650.179292929293" type="line"/>
      <point x="1077.7878787878788" y="650.179292929293" type="line"/>
      <point x="1077.7878787878788" y="849.820707070707" type="line"/>
      <point x="80.0" y="849.820707070707" type="line"/>
    </contour>
  </outline>
</glyph>
<glyph name="yen" format="2">
  <advance width="1343.9166666666667"/>
  <unicode hex="00A5"/>
  <outline>
    <contour>
      <point x="535.1464646464647" y="0.0" type="line"/>
      <point x="812.2828282828284" y="0.0" type="line"/>
      <point x="812.2828282828284" y="743.2474747474747" type="line"/>
      <point x="755.4545454545455" y="550.6742424242424" type="line"/>
      <point x="1364.5707070707072" y="1480.0" type="line"/>
      <point x="1086.4040404040404" y="1480.0" type="line"/>
      <point x="637.260101010101" y="800.9520202020202" type="line"/>
      <point x="721.2752525252525" y="800.9520202020202" type="line"/>
      <point x="268.57828282828285" y="1480.0" type="line"/>
      <point x="-29.57070707070708" y="1480.0" type="line"/>
      <point x="591.9747474747475" y="550.6742424242424" type="line"/>
      <point x="535.1464646464647" y="746.489898989899" type="line"/>
    </contour>
    <contour>
      <point x="210.55050505050505" y="271.09343434343435" type="line"/>
      <point x="1136.878787878788" y="271.09343434343435" type="line"/>
      <point x="1136.878787878788" y="433.44696969696975" type="line"/>
      <point x="210.55050505050505" y="433.44696969696975" type="line"/>
    </contour>
    <contour>
      <point x="210.55050505050505" y="614.5530303030303" type="line"/>
      <point x="1136.878787878788" y="614.5530303030303" type="line"/>
      <point x="1136.878787878788" y="776.9065656565657" type="line"/>
      <point x="210.55050505050505" y="776.9065656565657" type="line"/>
    </contour>
  </outline>
</glyph>
<glyph name="brokenbar" format="2">
  <advance width="563.1666666666667"/>
  <unicode hex="00A6"/>
  <outline>
    <contour>
      <point x="157.87626262626262" y="836.0" type="line"/>
      <point x="405.29040404040404" y="836.0" type="line"/>
      <point x="405.29040404040404" y="1616.0" type="line"/>
      <point x="157.87626262626262" y="1616.0" type="line"/>
    </contour>
    <contour>
      <point x="157.87626262626262" y="-440.0" type="line"/>
      <point x="405.29040404040404" y="-440.0" type="line"/>
      <point x="405.29040404040404" y="340.0" type="line"/>
      <point x="157.87626262626262" y="340.0" type="line"/>
    </contour>
  </outline>
</glyph>
<glyph name="section" format="2">
  <advance width="1159.5353535353536"/>
  <unicode hex="00A7"/>
  <outline>
    <contour>
      <point x="498.26010101010104" y="-20.161616161616163" type="curve" smooth="yes"/>
      <point x="838.5681818181819" y="-20.161616161616163"/>
      <point x="1002.0732323232323" y="109.88888888888889"/>
      <point x="1002.0732323232323" y="316.9368686868687" type="curve" smooth="yes"/>
      <point x="1002.0732323232323" y="476.47474747474746"/>
      <point x="901.6464646464647" y="562.1237373737374"/>
      <point x="705.8459595959596" y="599.530303030303" type="curve" smooth="yes"/>
      <point x="486.74242424242425" y="639.3383838383838" type="line" smooth="yes"/>
      <point x="374.72979797979804" y="661.030303030303"/>
      <point x="339.5227272727273" y="711.739898989899"/>
      <point x="339.5227272727273" y="779.9520202020202" type="curve" smooth="yes"/>
      <point x="339.5227272727273" y="829.2828282828283"/>
      <point x="361.9040404040404" y="874.9090909090909"/>
      <point x="416.26010101010104" y="919.3813131313132" type="curve"/>
      <point x="273.7020202020202" y="1016.7323232323232" type="line"/>
      <point x="172.12626262626262" y="958.6388888888889"/>
      <point x="112.87373737373737" y="874.3156565656566"/>
      <point x="112.87373737373737" y="763.9419191919192" type="curve" smooth="yes"/>
      <point x="112.87373737373737" y="593.7045454545455"/>
      <point x="216.6641414141414" y="498.47474747474746"/>
      <point x="403.8838383838384" y="462.8787878787879" type="curve" smooth="yes"/>
      <point x="622.1767676767677" y="423.6111111111111" type="line" smooth="yes"/>
      <point x="719.2474747474747" y="405.16161616161617"/>
      <point x="754.4015151515151" y="369.8308080808081"/>
      <point x="754.4015151515151" y="299.93939393939394" type="curve" smooth="yes"/>
      <point x="754.4015151515151" y="218.00505050505052"/>
      <point x="692.7575757575758" y="165.80808080808083"/>
      <point x="496.54545454545456" y="165.80808080808083" type="curve" smooth="yes"/>
      <point x="382.6439393939394" y="165.80808080808083"/>
      <point x="271.5151515151515" y="178.19949494949498"/>
      <point x="153.54292929292927" y="210.0378787878788" type="curve"/>
      <point x="153.54292929292927" y="23.1489898989899" type="line"/>
      <point x="260.7828282828283" y="-6.3106060606060606"/>
      <point x="385.1666666666667" y="-20.161616161616163"/>
    </contour>
    <contour>
      <point x="878.4318181818182" y="457.9318181818182" type="line"/>
      <point x="982.5050505050506" y="516.8762626262626"/>
      <point x="1046.6616161616162" y="601.7525252525253"/>
      <point x="1046.6616161616162" y="718.2878787878788" type="curve" smooth="yes"/>
      <point x="1046.6616161616162" y="890.5252525252525"/>
      <point x="946.2348484848485" y="980.3358585858587"/>
      <point x="753.4065656565657" y="1015.5808080808081" type="curve" smooth="yes"/>
      <point x="527.0075757575758" y="1053.7676767676767" type="line" smooth="yes"/>
      <point x="430.39646464646466" y="1072.2171717171718"/>
      <point x="397.0277777777778" y="1113.361111111111"/>
      <point x="397.0277777777778" y="1174.8181818181818" type="curve" smooth="yes"/>
      <point x="397.0277777777778" y="1248.3863636363635"/>
      <point x="458.19696969696975" y="1311.111111111111"/>
      <point x="694.0631313131313" y="1311.111111111111" type="curve" smooth="yes"/>
      <point x="784.8055555555555" y="1311.111111111111"/>
      <point x="867.7348484848485" y="1302.111111111111"/>
      <point x="961.4520202020203" y="1279.4343434343434" type="curve"/>
      <point x="961.4520202020203" y="1466.3232323232323" type="line"/>
      <point x="875.5606060606061" y="1486.080808080808"/>
      <point x="774.0252525252525" y="1497.080808080808"/>
      <point x="674.878787878788" y="1497.080808080808" type="curve" smooth="yes"/>
      <point x="300.80808080808083" y="1497.080808080808"/>
      <point x="149.3560606060606" y="1359.2727272727273"/>
      <point x="149.3560606060606" y="1159.888888888889" type="curve" smooth="yes"/>
      <point x="149.3560606060606" y="1007.7550505050505"/>
      <point x="252.06565656565658" y="915.3358585858585"/>
      <point x="451.44444444444446" y="877.8484848484849" type="curve" smooth="yes"/>
      <point x="669.7373737373738" y="838.040404040404" type="line" smooth="yes"/>
      <point x="782.209595959596" y="816.3484848484849"/>
      <point x="820.0126262626263" y="771.4520202020202"/>
      <point x="820.0126262626263" y="696.1565656565657" type="curve" smooth="yes"/>
      <point x="820.0126262626263" y="638.8939393939394"/>
      <point x="792.7676767676768" y="597.1186868686868"/>
      <point x="727.3611111111111" y="552.6338383838383" type="curve"/>
    </contour>
  </outline>
</glyph>
<glyph name="copyright" format="2">
  <advance width="1694.8232323232323"/>
  <unicode hex="00A9"/>
  <outline>
    <contour>
      <point x="847.4116161616162" y="-22.0" type="curve" smooth="yes"/>
      <point x="1296.6540404040404" y="-22.0"/>
      <point x="1594.6540404040404" y="282.0"/>
      <point x="1594.6540404040404" y="740.0" type="curve" smooth="yes"/>
      <point x="1594.6540404040404" y="1198.0"/>
      <point x="1296.6540404040404" y="1502.0"/>
      <point x="847.4116161616162" y="1502.0" type="curve" smooth="yes"/>
      <point x="398.1691919191919" y="1502.0"/>
      <point x="100.16919191919192" y="1198.0"/>
      <point x="100.16919191919192" y="740.0" type="curve" smooth="yes"/>
      <point x="100.16919191919192" y="282.0"/>
      <point x="398.1691919191919" y="-22.0"/>
    </contour>
    <contour>
      <point x="900.8661616161617" y="324.0" type="curve" smooth="yes"/>
      <point x="981.0277777777778" y="324.0"/>
      <point x="1053.0277777777778" y="336.0"/>
      <point x="1111.300505050505" y="359.5151515151515" type="curve"/>
      <point x="1111.300505050505" y="524.9494949494949" type="line"/>
      <point x="1031.4621212121212" y="500.51515151515156"/>
      <point x="975.6742424242424" y="492.6767676767677"/>
      <point x="918.7550505050505" y="492.6767676767677" type="curve" smooth="yes"/>
      <point x="768.14898989899" y="492.6767676767677"/>
      <point x="678.5732323232323" y="572.4141414141415"/>
      <point x="678.5732323232323" y="734.7575757575758" type="curve" smooth="yes"/>
      <point x="678.5732323232323" y="895.4242424242424"/>
      <point x="764.9065656565657" y="975.3232323232323"/>
      <point x="935.3510101010102" y="975.3232323232323" type="curve" smooth="yes"/>
      <point x="997.7853535353536" y="975.3232323232323"/>
      <point x="1050.3813131313132" y="967.4848484848485"/>
      <point x="1111.300505050505" y="953.8080808080808" type="curve"/>
      <point x="1111.300505050505" y="1119.2424242424242" type="line"/>
      <point x="1051.6237373737374" y="1136.0"/>
      <point x="990.5429292929293" y="1144.0"/>
      <point x="919.3005050505051" y="1144.0" type="curve" smooth="yes"/>
      <point x="646.6540404040404" y="1144.0"/>
      <point x="483.3611111111111" y="993.8383838383838"/>
      <point x="483.3611111111111" y="732.9191919191919" type="curve" smooth="yes"/>
      <point x="483.3611111111111" y="468.4848484848485"/>
      <point x="648.1691919191919" y="324.0"/>
    </contour>
    <contour>
      <point x="847.4116161616162" y="123.81818181818184" type="curve" smooth="yes"/>
      <point x="478.15909090909093" y="123.81818181818184"/>
      <point x="251.39141414141415" y="364.1515151515152"/>
      <point x="251.39141414141415" y="740.0" type="curve" smooth="yes"/>
      <point x="251.39141414141415" y="1115.8484848484848"/>
      <point x="478.15909090909093" y="1356.1818181818182"/>
      <point x="847.4116161616162" y="1356.1818181818182" type="curve" smooth="yes"/>
      <point x="1216.6641414141413" y="1356.1818181818182"/>
      <point x="1443.4318181818182" y="1115.8484848484848"/>
      <point x="1443.4318181818182" y="740.0" type="curve" smooth="yes"/>
      <point x="1443.4318181818182" y="364.1515151515152"/>
      <point x="1216.6641414141413" y="123.81818181818184"/>
    </contour>
  </outline>
</glyph>
<glyph name="ordfeminine" format="2">
  <advance width="975.8686868686868"/>
  <unicode hex="00AA"/>
  <outline>
    <contour>
      <point x="367.62373737373736" y="593.8383838383838" type="curve" smooth="yes"/>
      <point x="474.2348484848485" y="593.8383838383838"/>
      <point x="574.5757575757575" y="630.3005050505051"/>
      <point x="635.010101010101" y="699.679292929293" type="curve"/>
      <point x="647.2247474747475" y="699.679292929293" type="line"/>
      <point x="665.6540404040404" y="610.0" type="line"/>
      <point x="876.479797979798" y="610.0" type="line"/>
      <point x="876.479797979798" y="1125.4646464646464" type="line" smooth="yes"/>
      <point x="876.479797979798" y="1404.1666666666667"/>
      <point x="739.1060606060606" y="1497.4040404040404"/>
      <point x="439.06060606060606" y="1497.4040404040404" type="curve" smooth="yes"/>
      <point x="342.10353535353534" y="1497.4040404040404"/>
      <point x="227.04040404040404" y="1484.4848484848485"/>
      <point x="130.58585858585857" y="1456.5252525252524" type="curve"/>
      <point x="130.58585858585857" y="1274.9873737373737" type="line"/>
      <point x="218.37121212121212" y="1301.0429292929293"/>
      <point x="316.04545454545456" y="1313.8131313131312"/>
      <point x="395.48989898989896" y="1313.8131313131312" type="curve" smooth="yes"/>
      <point x="565.8282828282828" y="1313.8131313131312"/>
      <point x="625.2297979797979" y="1273.919191919192"/>
      <point x="625.2297979797979" y="1159.4292929292928" type="curve" smooth="yes"/>
      <point x="625.2297979797979" y="823.5858585858585" type="line"/>
      <point x="575.3838383838383" y="779.75"/>
      <point x="511.42676767676767" y="759.8661616161617"/>
      <point x="452.29292929292933" y="759.8661616161617" type="curve" smooth="yes"/>
      <point x="353.42929292929296" y="759.8661616161617"/>
      <point x="307.39646464646466" y="801.439393939394"/>
      <point x="307.39646464646466" y="871.9494949494949" type="curve" smooth="yes"/>
      <point x="307.39646464646466" y="939.8914141414141"/>
      <point x="352.22727272727275" y="978.3964646464647"/>
      <point x="469.5" y="988.6691919191919" type="curve" smooth="yes"/>
      <point x="700.179292929293" y="1006.5378787878788" type="line"/>
      <point x="674.280303030303" y="1130.6969696969697" type="line"/>
      <point x="432.33333333333337" y="1111.7474747474748" type="line" smooth="yes"/>
      <point x="168.0732323232323" y="1094.8131313131314"/>
      <point x="57.82070707070706" y="1007.7878787878788"/>
      <point x="57.82070707070706" y="844.7929292929293" type="curve" smooth="yes"/>
      <point x="57.82070707070706" y="696.1994949494949"/>
      <point x="162.78030303030303" y="593.8383838383838"/>
    </contour>
  </outline>
</glyph>
<glyph name="guillemetleft" format="2">
  <advance width="1236.270202020202"/>
  <unicode hex="00AB"/>
  <outline>
    <contour>
      <point x="381.0656565656566" y="134.59595959595958" type="line"/>
      <point x="662.3383838383838" y="134.59595959595958" type="line"/>
      <point x="381.52525252525254" y="565.4040404040404" type="line"/>
      <point x="662.3383838383838" y="996.2121212121212" type="line"/>
      <point x="381.0656565656566" y="996.2121212121212" type="line"/>
      <point x="100.25252525252525" y="565.4040404040404" type="line"/>
    </contour>
    <contour>
      <point x="894.7449494949495" y="134.59595959595958" type="line"/>
      <point x="1176.017676767677" y="134.59595959595958" type="line"/>
      <point x="895.2045454545455" y="565.4040404040404" type="line"/>
      <point x="1176.017676767677" y="996.2121212121212" type="line"/>
      <point x="894.7449494949495" y="996.2121212121212" type="line"/>
      <point x="613.9318181818182" y="565.4040404040404" type="line"/>
    </contour>
  </outline>
</glyph>
<glyph name="logicalnot" format="2">
  <advance width="1379.378787878788"/>
  <unicode hex="00AC"/>
  <outline>
    <contour>
      <point x="1031.1641414141413" y="199.02525252525254" type="line"/>
      <point x="1248.8560606060605" y="199.02525252525254" type="line"/>
      <point x="1248.8560606060605" y="863.8737373737374" type="line"/>
      <point x="138.78030303030303" y="863.8737373737374" type="line"/>
      <point x="138.78030303030303" y="656.1262626262626" type="line"/>
      <point x="1031.1641414141413" y="656.1262626262626" type="line"/>
    </contour>
  </outline>
</glyph>
<glyph name="softhyphen" format="2">
  <advance width="963.8383838383838"/>
  <unicode hex="00AD"/>
  <outline>
    <contour>
      <point x="138.78030303030303" y="454.2348484848485" type="line"/>
      <point x="825.0580808080808" y="454.2348484848485" type="line"/>
      <point x="825.0580808080808" y="676.5732323232323" type="line"/>
      <point x="138.78030303030303" y="676.5732323232323" type="line"/>
    </contour>
  </outline>
</glyph>
<glyph name="registered" format="2">
  <advance width="1483.3181818181818"/>
  <unicode hex="00AE"/>
  <outline>
    <contour>
      <point x="741.6590909090909" y="268.0" type="curve" smooth="yes"/>
      <point x="1103.659090909091" y="268.0"/>
      <point x="1351.659090909091" y="518.0"/>
      <point x="1351.659090909091" y="882.0" type="curve" smooth="yes"/>
      <point x="1351.659090909091" y="1246.0"/>
      <point x="1103.659090909091" y="1498.0"/>
      <point x="741.6590909090909" y="1498.0" type="curve" smooth="yes"/>
      <point x="379.6590909090909" y="1498.0"/>
      <point x="131.6590909090909" y="1246.0"/>
      <point x="131.6590909090909" y="882.0" type="curve" smooth="yes"/>
      <point x="131.6590909090909" y="518.0"/>
      <point x="379.6590909090909" y="268.0"/>
    </contour>
    <contour>
      <point x="880.75" y="600.0" type="line"/>
      <point x="1014.0328282828283" y="600.0" type="line"/>
      <point x="851.0025252525253" y="838.3838383838383" type="line"/>
      <point x="734.8005050505051" y="812.3838383838383" type="line"/>
    </contour>
    <contour>
      <point x="741.6590909090909" y="382.6363636363636" type="curve" smooth="yes"/>
      <point x="446.0833333333333" y="382.6363636363636"/>
      <point x="253.69949494949495" y="579.1818181818182"/>
      <point x="253.69949494949495" y="882.0" type="curve" smooth="yes"/>
      <point x="253.69949494949495" y="1185.8989898989898"/>
      <point x="446.0833333333333" y="1383.3636363636363"/>
      <point x="741.6590909090909" y="1383.3636363636363" type="curve" smooth="yes"/>
      <point x="1037.2348484848485" y="1383.3636363636363"/>
      <point x="1229.6186868686868" y="1185.8989898989898"/>
      <point x="1229.6186868686868" y="882.0" type="curve" smooth="yes"/>
      <point x="1229.6186868686868" y="579.1818181818182"/>
      <point x="1037.2348484848485" y="382.6363636363636"/>
    </contour>
    <contour>
      <point x="526.0934343434343" y="600.0" type="line"/>
      <point x="646.1338383838383" y="600.0" type="line"/>
      <point x="649.3762626262626" y="804.3838383838383" type="line"/>
      <point x="730.9015151515151" y="804.3838383838383" type="line" smooth="yes"/>
      <point x="902.6287878787879" y="804.3838383838383"/>
      <point x="985.709595959596" y="869.3030303030303"/>
      <point x="985.709595959596" y="997.1919191919192" type="curve" smooth="yes"/>
      <point x="985.709595959596" y="1125.080808080808"/>
      <point x="900.6287878787879" y="1192.0"/>
      <point x="730.9015151515151" y="1192.0" type="curve" smooth="yes"/>
      <point x="526.0934343434343" y="1192.0" type="line"/>
    </contour>
    <contour>
      <point x="649.3762626262626" y="904.2121212121212" type="line"/>
      <point x="649.3762626262626" y="1092.171717171717" type="line"/>
      <point x="750.4671717171717" y="1092.171717171717" type="line" smooth="yes"/>
      <point x="827.8813131313132" y="1092.171717171717"/>
      <point x="867.8308080808081" y="1060.8181818181818"/>
      <point x="867.8308080808081" y="997.1919191919192" type="curve" smooth="yes"/>
      <point x="867.8308080808081" y="933.5656565656566"/>
      <point x="829.8813131313132" y="904.2121212121212"/>
      <point x="750.4671717171717" y="904.2121212121212" type="curve" smooth="yes"/>
    </contour>
  </outline>
</glyph>
<glyph name="macron" format="2">
  <advance width="1154.0404040404042"/>
  <unicode hex="00AF"/>
  <anchor x="577.0202020202021" y="1200.0" name="_top"/>
  <anchor x="577.0202020202021" y="1588.4242424242425" name="top"/>
  <outline>
    <contour>
      <point x="222.66919191919192" y="1340.229797979798" type="line"/>
      <point x="931.3712121212121" y="1340.229797979798" type="line"/>
      <point x="931.3712121212121" y="1502.1363636363637" type="line"/>
      <point x="222.66919191919192" y="1502.1363636363637" type="line"/>
    </contour>
  </outline>
</glyph>
<glyph name="degree" format="2">
  <advance width="1006.489898989899"/>
  <unicode hex="00B0"/>
  <outline>
    <contour>
      <point x="503.2449494949495" y="762.5555555555555" type="curve" smooth="yes"/>
      <point x="718.6186868686868" y="762.5555555555555"/>
      <point x="874.8308080808081" y="917.5252525252525"/>
      <point x="874.8308080808081" y="1130.8989898989898" type="curve" smooth="yes"/>
      <point x="874.8308080808081" y="1344.2727272727273"/>
      <point x="718.6186868686868" y="1498.1616161616162"/>
      <point x="503.2449494949495" y="1498.1616161616162" type="curve" smooth="yes"/>
      <point x="287.8712121212121" y="1498.1616161616162"/>
      <point x="131.6590909090909" y="1344.2727272727273"/>
      <point x="131.6590909090909" y="1130.8989898989898" type="curve" smooth="yes"/>
      <point x="131.6590909090909" y="917.5252525252525"/>
      <point x="287.8712121212121" y="762.5555555555555"/>
    </contour>
    <contour>
      <point x="503.2449494949495" y="923.0176767676768" type="curve" smooth="yes"/>
      <point x="386.89646464646466" y="923.0176767676768"/>
      <point x="301.9166666666667" y="1003.0782828282828"/>
      <point x="301.9166666666667" y="1130.8989898989898" type="curve" smooth="yes"/>
      <point x="301.9166666666667" y="1259.530303030303"/>
      <point x="387.97727272727275" y="1337.699494949495"/>
      <point x="503.2449494949495" y="1337.699494949495" type="curve" smooth="yes"/>
      <point x="618.5126262626262" y="1337.699494949495"/>
      <point x="704.5732323232323" y="1259.530303030303"/>
      <point x="704.5732323232323" y="1130.8989898989898" type="curve" smooth="yes"/>
      <point x="704.5732323232323" y="1003.0782828282828"/>
      <point x="619.5934343434343" y="923.0176767676768"/>
    </contour>
  </outline>
</glyph>
<glyph name="plusminus" format="2">
  <advance width="1123.3686868686868"/>
  <unicode hex="00B1"/>
  <outline>
    <contour>
      <point x="452.83838383838383" y="363.55555555555554" type="line"/>
      <point x="670.530303030303" y="363.55555555555554" type="line"/>
      <point x="670.530303030303" y="669.2424242424242" type="line"/>
      <point x="984.5883838383838" y="669.2424242424242" type="line"/>
      <point x="984.5883838383838" y="876.9898989898991" type="line"/>
      <point x="670.530303030303" y="876.9898989898991" type="line"/>
      <point x="670.530303030303" y="1182.6767676767677" type="line"/>
      <point x="452.83838383838383" y="1182.6767676767677" type="line"/>
      <point x="452.83838383838383" y="876.9898989898991" type="line"/>
      <point x="138.78030303030303" y="876.9898989898991" type="line"/>
      <point x="138.78030303030303" y="669.2424242424242" type="line"/>
      <point x="452.83838383838383" y="669.2424242424242" type="line"/>
    </contour>
    <contour>
      <point x="138.78030303030303" y="0.27020202020202033" type="line"/>
      <point x="984.5883838383838" y="0.27020202020202033" type="line"/>
      <point x="984.5883838383838" y="208.01767676767682" type="line"/>
      <point x="138.78030303030303" y="208.01767676767682" type="line"/>
    </contour>
  </outline>
</glyph>
<glyph name="acute" format="2">
  <advance width="1154.0404040404042"/>
  <unicode hex="00B4"/>
  <anchor x="577.0202020202021" y="1200.0" name="_top"/>
  <anchor x="577.0202020202021" y="1610.0404040404042" name="top"/>
  <outline>
    <contour>
      <point x="449.530303030303" y="1240.2222222222222" type="line"/>
      <point x="704.510101010101" y="1240.2222222222222" type="line"/>
      <point x="987.1237373737374" y="1616.0" type="line"/>
      <point x="691.5833333333333" y="1616.0" type="line"/>
    </contour>
  </outline>
</glyph>
<glyph name="paragraph" format="2">
  <advance width="1357.891414141414"/>
  <unicode hex="00B6"/>
  <outline>
    <contour>
      <point x="671.9191919191919" y="0.0" type="line"/>
      <point x="868.2651515151515" y="0.0" type="line"/>
      <point x="868.2651515151515" y="1480.0" type="line"/>
      <point x="776.280303030303" y="1490.9722222222222"/>
      <point x="671.9974747474747" y="1497.2424242424242"/>
      <point x="566.9974747474747" y="1497.2424242424242" type="curve" smooth="yes"/>
      <point x="243.73484848484847" y="1497.2424242424242"/>
      <point x="84.93686868686868" y="1336.6641414141413"/>
      <point x="84.93686868686868" y="973.9141414141415" type="curve" smooth="yes"/>
      <point x="84.93686868686868" y="630.2727272727273"/>
      <point x="235.21969696969697" y="448.5580808080808"/>
      <point x="551.7954545454545" y="448.5580808080808" type="curve" smooth="yes"/>
      <point x="595.7878787878788" y="448.5580808080808"/>
      <point x="632.4545454545454" y="450.9772727272727"/>
      <point x="671.9191919191919" y="454.88383838383834" type="curve"/>
    </contour>
    <contour>
      <point x="1003.6691919191919" y="0.0" type="line"/>
      <point x="1200.0151515151515" y="0.0" type="line"/>
      <point x="1200.0151515151515" y="1480.0" type="line"/>
      <point x="1003.6691919191919" y="1480.0" type="line"/>
    </contour>
  </outline>
</glyph>
<glyph name="periodcentered" format="2">
  <advance width="552.7525252525253"/>
  <unicode hex="00B7"/>
  <anchor x="276.37626262626264" y="560.0" name="_periodcentered"/>
  <outline>
    <contour>
      <point x="276.37626262626264" y="394.13383838383834" type="curve" smooth="yes"/>
      <point x="386.1414141414142" y="394.13383838383834"/>
      <point x="455.64393939393943" y="459.47474747474746"/>
      <point x="455.64393939393943" y="559.0808080808081" type="curve" smooth="yes"/>
      <point x="455.64393939393943" y="658.6868686868687"/>
      <point x="388.30303030303037" y="724.9469696969697"/>
      <point x="276.37626262626264" y="724.9469696969697" type="curve" smooth="yes"/>
      <point x="164.44949494949495" y="724.9469696969697"/>
      <point x="97.10858585858584" y="660.8484848484849"/>
      <point x="97.10858585858584" y="559.0808080808081" type="curve" smooth="yes"/>
      <point x="97.10858585858584" y="457.3131313131313"/>
      <point x="166.61111111111111" y="394.13383838383834"/>
    </contour>
  </outline>
</glyph>
<glyph name="cedilla" format="2">
  <advance width="1154.0404040404042"/>
  <unicode hex="00B8"/>
  <anchor x="577.0202020202021" y="0.0" name="_bottom"/>
  <outline>
    <contour>
      <point x="577.3333333333333" y="-432.42424242424244" type="curve" smooth="yes"/>
      <point x="735.4166666666667" y="-432.42424242424244"/>
      <point x="818.5883838383838" y="-367.9949494949495"/>
      <point x="818.5883838383838" y="-261.09343434343435" type="curve" smooth="yes"/>
      <point x="818.5883838383838" y="-153.1919191919192"/>
      <point x="742.0505050505051" y="-88.18181818181817"/>
      <point x="591.5732323232323" y="-88.18181818181817" type="curve"/>
      <point x="651.3333333333334" y="-131.1919191919192" type="line"/>
      <point x="651.3333333333334" y="20.0" type="line"/>
      <point x="518.5959595959596" y="20.0" type="line"/>
      <point x="518.5959595959596" y="-173.99747474747474" type="line"/>
      <point x="565.4848484848485" y="-173.99747474747474" type="line" smooth="yes"/>
      <point x="636.5555555555555" y="-173.99747474747474"/>
      <point x="674.4621212121212" y="-196.5530303030303"/>
      <point x="674.4621212121212" y="-250.0151515151515" type="curve" smooth="yes"/>
      <point x="674.4621212121212" y="-303.05808080808083"/>
      <point x="637.5555555555555" y="-325.0328282828283"/>
      <point x="566.1338383838383" y="-325.0328282828283" type="curve" smooth="yes"/>
      <point x="514.6464646464647" y="-325.0328282828283"/>
      <point x="447.1489898989899" y="-314.84343434343435"/>
      <point x="390.7828282828283" y="-289.82828282828285" type="curve"/>
      <point x="390.7828282828283" y="-398.24747474747477" type="line"/>
      <point x="441.5378787878788" y="-420.0050505050505"/>
      <point x="509.9166666666667" y="-432.42424242424244"/>
    </contour>
  </outline>
</glyph>
<glyph name="onesuperior" format="2">
  <advance width="868.0732323232323"/>
  <unicode hex="00B9"/>
  <outline>
    <contour>
      <point x="369.72474747474746" y="-107.89393939393939" type="line"/>
      <point x="589.0909090909091" y="-107.89393939393939" type="line"/>
      <point x="589.0909090909091" y="868.0" type="line"/>
      <point x="443.91414141414145" y="868.0" type="line"/>
      <point x="135.89393939393938" y="664.9318181818181" type="line"/>
      <point x="135.89393939393938" y="473.3131313131313" type="line"/>
      <point x="443.91414141414145" y="676.381313131313" type="line"/>
      <point x="369.72474747474746" y="744.8131313131313" type="line"/>
    </contour>
    <contour>
      <point x="135.15151515151516" y="-136.0" type="line"/>
      <point x="810.9343434343434" y="-136.0" type="line"/>
      <point x="810.9343434343434" y="38.13383838383841" type="line"/>
      <point x="135.15151515151516" y="38.13383838383841" type="line"/>
    </contour>
  </outline>
</glyph>
<glyph name="ordmasculine" format="2">
  <advance width="1062.6262626262626"/>
  <unicode hex="00BA"/>
  <outline>
    <contour>
      <point x="531.0429292929293" y="593.8383838383838" type="curve" smooth="yes"/>
      <point x="822.4722222222223" y="593.8383838383838"/>
      <point x="999.1565656565657" y="754.4267676767677"/>
      <point x="999.1565656565657" y="1047.3510101010102" type="curve" smooth="yes"/>
      <point x="999.1565656565657" y="1340.2752525252524"/>
      <point x="822.4722222222223" y="1497.4040404040404"/>
      <point x="531.0429292929293" y="1497.4040404040404" type="curve" smooth="yes"/>
      <point x="239.61363636363637" y="1497.4040404040404"/>
      <point x="63.46969696969696" y="1341.6262626262626"/>
      <point x="63.46969696969696" y="1047.3510101010102" type="curve" smooth="yes"/>
      <point x="63.46969696969696" y="753.0757575757576"/>
      <point x="239.61363636363637" y="593.8383838383838"/>
    </contour>
    <contour>
      <point x="531.0429292929293" y="784.6035353535353" type="curve" smooth="yes"/>
      <point x="400.5277777777778" y="784.6035353535353"/>
      <point x="315.74747474747477" y="857.219696969697"/>
      <point x="315.74747474747477" y="1047.3510101010102" type="curve" smooth="yes"/>
      <point x="315.74747474747477" y="1237.7525252525252"/>
      <point x="400.5277777777778" y="1306.638888888889"/>
      <point x="531.0429292929293" y="1306.638888888889" type="curve" smooth="yes"/>
      <point x="663.179292929293" y="1306.638888888889"/>
      <point x="746.8787878787879" y="1237.7525252525252"/>
      <point x="746.8787878787879" y="1047.3510101010102" type="curve" smooth="yes"/>
      <point x="746.8787878787879" y="857.219696969697"/>
      <point x="663.179292929293" y="784.6035353535353"/>
    </contour>
  </outline>
</glyph>
<glyph name="guillemetright" format="2">
  <advance width="1236.270202020202"/>
  <unicode hex="00BB"/>
  <outline>
    <contour>
      <point x="60.252525252525245" y="134.59595959595958" type="line"/>
      <point x="341.52525252525254" y="134.59595959595958" type="line"/>
      <point x="622.3383838383838" y="565.4040404040404" type="line"/>
      <point x="341.52525252525254" y="996.2121212121212" type="line"/>
      <point x="60.252525252525245" y="996.2121212121212" type="line"/>
      <point x="341.0656565656566" y="565.4040404040404" type="line"/>
    </contour>
    <contour>
      <point x="573.9318181818182" y="134.59595959595958" type="line"/>
      <point x="855.2045454545455" y="134.59595959595958" type="line"/>
      <point x="1136.017676767677" y="565.4040404040404" type="line"/>
      <point x="855.2045454545455" y="996.2121212121212" type="line"/>
      <point x="573.9318181818182" y="996.2121212121212" type="line"/>
      <point x="854.7449494949495" y="565.4040404040404" type="line"/>
    </contour>
  </outline>
</glyph>
<glyph name="onequarter" format="2">
  <advance width="2103.479797979798"/>
  <unicode hex="00BC"/>
  <outline>
    <contour>
      <point x="369.72474747474746" y="644.1060606060606" type="line"/>
      <point x="589.0909090909091" y="644.1060606060606" type="line"/>
      <point x="589.0909090909091" y="1620.0" type="line"/>
      <point x="443.91414141414145" y="1620.0" type="line"/>
      <point x="135.89393939393938" y="1416.9318181818182" type="line"/>
      <point x="135.89393939393938" y="1225.3131313131312" type="line"/>
      <point x="443.91414141414145" y="1428.3813131313132" type="line"/>
      <point x="369.72474747474746" y="1496.8131313131312" type="line"/>
    </contour>
    <contour>
      <point x="135.15151515151516" y="616.0" type="line"/>
      <point x="810.9343434343434" y="616.0" type="line"/>
      <point x="810.9343434343434" y="790.1338383838385" type="line"/>
      <point x="135.15151515151516" y="790.1338383838385" type="line"/>
    </contour>
    <contour>
      <point x="518.5530303030303" y="-136.0" type="line"/>
      <point x="746.4040404040404" y="-136.0" type="line"/>
      <point x="1584.9267676767677" y="1616.0" type="line"/>
      <point x="1357.0757575757575" y="1616.0" type="line"/>
    </contour>
    <contour>
      <point x="1261.6919191919192" y="70.33585858585857" type="line"/>
      <point x="2080.681818181818" y="70.33585858585857" type="line"/>
      <point x="2080.681818181818" y="236.79545454545456" type="line"/>
      <point x="1447.550505050505" y="236.79545454545456" type="line"/>
      <point x="1465.8737373737374" y="185.84343434343435" type="line"/>
      <point x="1806.7020202020203" y="864.0" type="line"/>
      <point x="1603.6010101010102" y="864.0" type="line"/>
      <point x="1261.6919191919192" y="186.5328282828283" type="line"/>
    </contour>
    <contour>
      <point x="1753.0075757575758" y="-136.0" type="line"/>
      <point x="1946.3257575757577" y="-136.0" type="line"/>
      <point x="1946.3257575757577" y="526.0" type="line"/>
      <point x="1787.9747474747476" y="526.0" type="line"/>
      <point x="1753.0075757575758" y="236.79545454545456" type="line"/>
    </contour>
  </outline>
</glyph>
<glyph name="onehalf" format="2">
  <advance width="2103.479797979798"/>
  <unicode hex="00BD"/>
  <outline>
    <contour>
      <point x="369.72474747474746" y="644.1060606060606" type="line"/>
      <point x="589.0909090909091" y="644.1060606060606" type="line"/>
      <point x="589.0909090909091" y="1620.0" type="line"/>
      <point x="443.91414141414145" y="1620.0" type="line"/>
      <point x="135.89393939393938" y="1416.9318181818182" type="line"/>
      <point x="135.89393939393938" y="1225.3131313131312" type="line"/>
      <point x="443.91414141414145" y="1428.3813131313132" type="line"/>
      <point x="369.72474747474746" y="1496.8131313131312" type="line"/>
    </contour>
    <contour>
      <point x="135.15151515151516" y="616.0" type="line"/>
      <point x="810.9343434343434" y="616.0" type="line"/>
      <point x="810.9343434343434" y="790.1338383838385" type="line"/>
      <point x="135.15151515151516" y="790.1338383838385" type="line"/>
    </contour>
    <contour>
      <point x="518.5530303030303" y="-136.0" type="line"/>
      <point x="746.4040404040404" y="-136.0" type="line"/>
      <point x="1584.9267676767677" y="1616.0" type="line"/>
      <point x="1357.0757575757575" y="1616.0" type="line"/>
    </contour>
    <contour>
      <point x="1317.9772727272727" y="-136.0" type="line"/>
      <point x="2027.6944444444446" y="-136.0" type="line"/>
      <point x="2027.6944444444446" y="38.13383838383841" type="line"/>
      <point x="1564.270202020202" y="38.13383838383841" type="line"/>
      <point x="1562.8131313131314" y="-17.68181818181816" type="line"/>
      <point x="1812.1616161616162" y="259.17424242424244" type="line" smooth="yes"/>
      <point x="1929.6919191919192" y="389.77525252525254"/>
      <point x="1976.8409090909092" y="482.1262626262626"/>
      <point x="1977.0707070707072" y="589.4116161616162" type="curve" smooth="yes"/>
      <point x="1977.300505050505" y="786.6237373737374"/>
      <point x="1843.9267676767677" y="877.0808080808081"/>
      <point x="1582.239898989899" y="877.0808080808081" type="curve" smooth="yes"/>
      <point x="1480.9848484848485" y="877.0808080808081"/>
      <point x="1378.5429292929293" y="863.310606060606"/>
      <point x="1305.7070707070707" y="838.35101010101" type="curve"/>
      <point x="1305.7070707070707" y="665.1893939393939" type="line"/>
      <point x="1373.1818181818182" y="689.4469696969696"/>
      <point x="1464.0707070707072" y="707.0"/>
      <point x="1553.800505050505" y="707.0" type="curve" smooth="yes"/>
      <point x="1700.2777777777778" y="707.0"/>
      <point x="1760.29797979798" y="662.2929292929293"/>
      <point x="1760.29797979798" y="566.5782828282828" type="curve" smooth="yes"/>
      <point x="1760.29797979798" y="500.3282828282828"/>
      <point x="1723.1742424242425" y="434.8636363636364"/>
      <point x="1628.060606060606" y="326.97727272727275" type="curve" smooth="yes"/>
      <point x="1317.9772727272727" y="-23.19444444444443" type="line"/>
    </contour>
  </outline>
</glyph>
<glyph name="questiondown" format="2">
  <advance width="1018.1186868686868"/>
  <unicode hex="00BF"/>
  <outline>
    <contour>
      <point x="638.6843434343434" y="665.4343434343434" type="line"/>
      <point x="472.0656565656566" y="665.4343434343434" type="line"/>
      <point x="452.0681818181818" y="417.87373737373736" type="line"/>
      <point x="187.29040404040404" y="334.55555555555554"/>
      <point x="58.70454545454545" y="206.08333333333334"/>
      <point x="58.70454545454545" y="-7.401515151515142" type="curve" smooth="yes"/>
      <point x="58.70454545454545" y="-255.31313131313132"/>
      <point x="240.739898989899" y="-400.0"/>
      <point x="597.5454545454545" y="-400.0" type="curve" smooth="yes"/>
      <point x="728.2323232323233" y="-400.0"/>
      <point x="875.1439393939395" y="-378.25757575757575"/>
      <point x="978.6035353535353" y="-344.10858585858585" type="curve"/>
      <point x="978.6035353535353" y="-129.9292929292929" type="line"/>
      <point x="868.0075757575758" y="-167.53787878787873"/>
      <point x="741.4570707070707" y="-187.28030303030297"/>
      <point x="625.2550505050506" y="-187.28030303030297" type="curve" smooth="yes"/>
      <point x="420.81313131313135" y="-187.28030303030297"/>
      <point x="324.60101010101016" y="-113.86616161616158"/>
      <point x="324.60101010101016" y="11.431818181818194" type="curve" smooth="yes"/>
      <point x="324.60101010101016" y="136.05555555555554"/>
      <point x="406.239898989899" y="220.88636363636363"/>
      <point x="685.5404040404042" y="283.5580808080808" type="curve"/>
    </contour>
    <contour>
      <point x="554.969696969697" y="1106.2121212121212" type="curve" smooth="yes"/>
      <point x="444.2853535353535" y="1106.2121212121212"/>
      <point x="375.7020202020202" y="1043.1944444444443"/>
      <point x="375.7020202020202" y="950.1818181818181" type="curve" smooth="yes"/>
      <point x="375.7020202020202" y="856.25"/>
      <point x="443.0429292929293" y="793.2323232323232"/>
      <point x="554.969696969697" y="793.2323232323232" type="curve" smooth="yes"/>
      <point x="666.8964646464647" y="793.2323232323232"/>
      <point x="734.2373737373738" y="854.0883838383838"/>
      <point x="734.2373737373738" y="950.1818181818181" type="curve" smooth="yes"/>
      <point x="734.2373737373738" y="1045.3560606060605"/>
      <point x="664.7348484848485" y="1106.2121212121212"/>
    </contour>
  </outline>
</glyph>
<glyph name="Agrave" format="2">
  <advance width="1515.8535353535353"/>
  <unicode hex="00C0"/>
  <anchor x="757.5757575757576" y="1520.0" name="_top"/>
  <anchor x="758.3863636363636" y="0.0" name="bottom"/>
  <anchor x="1490.9166666666667" y="0.0" name="ogonek"/>
  <anchor x="757.5757575757576" y="1520.0" name="top"/>
  <outline>
    <contour>
      <point x="24.936868686868685" y="0.0" type="line"/>
      <point x="296.49494949494954" y="0.0" type="line"/>
      <point x="772.1691919191919" y="1358.669191919192" type="line"/>
      <point x="740.0631313131313" y="1358.669191919192" type="line"/>
      <point x="1216.2777777777778" y="0.0" type="line"/>
      <point x="1490.9166666666667" y="0.0" type="line"/>
      <point x="956.8333333333334" y="1480.0" type="line"/>
      <point x="559.020202020202" y="1480.0" type="line"/>
    </contour>
    <contour>
      <point x="375.1439393939394" y="424.5126262626262" type="line"/>
      <point x="1138.8181818181818" y="424.5126262626262" type="line"/>
      <point x="1076.1262626262626" y="641.2853535353536" type="line"/>
      <point x="438.64646464646466" y="641.2853535353536" type="line"/>
    </contour>
    <contour>
      <point x="633.5984848484849" y="1599.7878787878788" type="line"/>
      <point x="881.5530303030304" y="1599.7878787878788" type="line"/>
      <point x="685.7550505050506" y="1895.5656565656566" type="line"/>
      <point x="396.010101010101" y="1895.5656565656566" type="line"/>
    </contour>
  </outline>
</glyph>
<glyph name="Atilde" format="2">
  <advance width="1515.8535353535353"/>
  <unicode hex="00C3"/>
  <anchor x="757.5757575757576" y="1520.0" name="_top"/>
  <anchor x="758.3863636363636" y="0.0" name="bottom"/>
  <anchor x="1490.9166666666667" y="0.0" name="ogonek"/>
  <anchor x="757.5757575757576" y="1520.0" name="top"/>
  <outline>
    <contour>
      <point x="24.936868686868685" y="0.0" type="line"/>
      <point x="296.49494949494954" y="0.0" type="line"/>
      <point x="772.1691919191919" y="1358.669191919192" type="line"/>
      <point x="740.0631313131313" y="1358.669191919192" type="line"/>
      <point x="1216.2777777777778" y="0.0" type="line"/>
      <point x="1490.9166666666667" y="0.0" type="line"/>
      <point x="956.8333333333334" y="1480.0" type="line"/>
      <point x="559.020202020202" y="1480.0" type="line"/>
    </contour>
    <contour>
      <point x="375.1439393939394" y="424.5126262626262" type="line"/>
      <point x="1138.8181818181818" y="424.5126262626262" type="line"/>
      <point x="1076.1262626262626" y="641.2853535353536" type="line"/>
      <point x="438.64646464646466" y="641.2853535353536" type="line"/>
    </contour>
    <contour>
      <point x="930.6515151515152" y="1637.2449494949494" type="curve" smooth="yes"/>
      <point x="1021.0934343434344" y="1637.2449494949494"/>
      <point x="1082.969696969697" y="1658.7853535353536"/>
      <point x="1134.25" y="1705.310606060606" type="curve"/>
      <point x="1134.25" y="1861.9772727272727" type="line"/>
      <point x="1074.159090909091" y="1815.328282828283"/>
      <point x="1018.1338383838383" y="1793.3686868686868"/>
      <point x="936.0555555555557" y="1793.3686868686868" type="curve" smooth="yes"/>
      <point x="817.709595959596" y="1793.3686868686868"/>
      <point x="722.2247474747475" y="1868.909090909091"/>
      <point x="584.5" y="1868.909090909091" type="curve" smooth="yes"/>
      <point x="494.05808080808083" y="1868.909090909091"/>
      <point x="432.1818181818182" y="1846.2878787878788"/>
      <point x="380.9015151515151" y="1799.7626262626263" type="curve"/>
      <point x="380.9015151515151" y="1643.0959595959596" type="line"/>
      <point x="440.99242424242425" y="1689.7449494949494"/>
      <point x="497.0176767676768" y="1711.7045454545455"/>
      <point x="579.0959595959596" y="1711.7045454545455" type="curve" smooth="yes"/>
      <point x="697.4419191919192" y="1711.7045454545455"/>
      <point x="792.9267676767677" y="1637.2449494949494"/>
    </contour>
  </outline>
</glyph>
<glyph name="Adieresis" format="2">
  <advance width="1515.8535353535353"/>
  <unicode hex="00C4"/>
  <anchor x="757.5757575757576" y="1520.0" name="_top"/>
  <anchor x="758.3863636363636" y="0.0" name="bottom"/>
  <anchor x="1490.9166666666667" y="0.0" name="ogonek"/>
  <anchor x="757.5757575757576" y="1520.0" name="top"/>
  <outline>
    <contour>
      <point x="24.936868686868685" y="0.0" type="line"/>
      <point x="296.49494949494954" y="0.0" type="line"/>
      <point x="772.1691919191919" y="1358.669191919192" type="line"/>
      <point x="740.0631313131313" y="1358.669191919192" type="line"/>
      <point x="1216.2777777777778" y="0.0" type="line"/>
      <point x="1490.9166666666667" y="0.0" type="line"/>
      <point x="956.8333333333334" y="1480.0" type="line"/>
      <point x="559.020202020202" y="1480.0" type="line"/>
    </contour>
    <contour>
      <point x="375.1439393939394" y="424.5126262626262" type="line"/>
      <point x="1138.8181818181818" y="424.5126262626262" type="line"/>
      <point x="1076.1262626262626" y="641.2853535353536" type="line"/>
      <point x="438.64646464646466" y="641.2853535353536" type="line"/>
    </contour>
    <contour>
      <point x="1021.6237373737374" y="1625.151515151515" type="curve" smooth="yes"/>
      <point x="1120.8510101010102" y="1625.151515151515"/>
      <point x="1170.628787878788" y="1672.388888888889"/>
      <point x="1170.628787878788" y="1750.919191919192" type="curve" smooth="yes"/>
      <point x="1170.628787878788" y="1829.449494949495"/>
      <point x="1120.8510101010102" y="1877.6060606060605"/>
      <point x="1021.6237373737374" y="1877.6060606060605" type="curve" smooth="yes"/>
      <point x="922.3964646464647" y="1877.6060606060605"/>
      <point x="872.6186868686868" y="1829.449494949495"/>
      <point x="872.6186868686868" y="1750.919191919192" type="curve" smooth="yes"/>
      <point x="872.6186868686868" y="1672.388888888889"/>
      <point x="922.3964646464647" y="1625.151515151515"/>
    </contour>
    <contour>
      <point x="493.52777777777777" y="1625.151515151515" type="curve" smooth="yes"/>
      <point x="592.7550505050506" y="1625.151515151515"/>
      <point x="642.5328282828283" y="1672.388888888889"/>
      <point x="642.5328282828283" y="1750.919191919192" type="curve" smooth="yes"/>
      <point x="642.5328282828283" y="1829.449494949495"/>
      <point x="592.7550505050506" y="1877.6060606060605"/>
      <point x="493.52777777777777" y="1877.6060606060605" type="curve" smooth="yes"/>
      <point x="394.3005050505051" y="1877.6060606060605"/>
      <point x="344.52272727272725" y="1829.449494949495"/>
      <point x="344.52272727272725" y="1750.919191919192" type="curve" smooth="yes"/>
      <point x="344.52272727272725" y="1672.388888888889"/>
      <point x="394.3005050505051" y="1625.151515151515"/>
    </contour>
  </outline>
</glyph>
<glyph name="Aring" format="2">
  <advance width="1515.8535353535353"/>
  <unicode hex="00C5"/>
  <anchor x="758.7247474747475" y="1437.2727272727273" name="_top"/>
  <anchor x="758.3863636363636" y="0.0" name="bottom"/>
  <anchor x="1490.9166666666667" y="0.0" name="ogonek"/>
  <anchor x="757.5757575757576" y="1520.0" name="top"/>
  <outline>
    <contour>
      <point x="24.936868686868685" y="0.0" type="line"/>
      <point x="296.49494949494954" y="0.0" type="line"/>
      <point x="772.1691919191919" y="1358.669191919192" type="line"/>
      <point x="740.0631313131313" y="1358.669191919192" type="line"/>
      <point x="1216.2777777777778" y="0.0" type="line"/>
      <point x="1490.9166666666667" y="0.0" type="line"/>
      <point x="956.8333333333334" y="1480.0" type="line"/>
      <point x="559.020202020202" y="1480.0" type="line"/>
    </contour>
    <contour>
      <point x="375.1439393939394" y="424.5126262626262" type="line"/>
      <point x="1138.8181818181818" y="424.5126262626262" type="line"/>
      <point x="1076.1262626262626" y="641.2853535353536" type="line"/>
      <point x="438.64646464646466" y="641.2853535353536" type="line"/>
    </contour>
    <contour>
      <point x="758.7247474747475" y="1506.3459595959596" type="curve" smooth="yes"/>
      <point x="878.7752525252525" y="1506.3459595959596"/>
      <point x="966.5025252525253" y="1591.9116161616162"/>
      <point x="966.5025252525253" y="1709.800505050505" type="curve" smooth="yes"/>
      <point x="966.5025252525253" y="1827.689393939394"/>
      <point x="878.7752525252525" y="1913.2550505050506"/>
      <point x="758.7247474747475" y="1913.2550505050506" type="curve" smooth="yes"/>
      <point x="638.6742424242425" y="1913.2550505050506"/>
      <point x="550.9469696969697" y="1827.689393939394"/>
      <point x="550.9469696969697" y="1709.800505050505" type="curve" smooth="yes"/>
      <point x="550.9469696969697" y="1591.9116161616162"/>
      <point x="638.6742424242425" y="1506.3459595959596"/>
    </contour>
    <contour>
      <point x="758.7247474747475" y="1604.8207070707072" type="curve" smooth="yes"/>
      <point x="698.9368686868687" y="1604.8207070707072"/>
      <point x="656.8257575757576" y="1645.0934343434344"/>
      <point x="656.8257575757576" y="1709.800505050505" type="curve" smooth="yes"/>
      <point x="656.8257575757576" y="1774.5075757575758"/>
      <point x="698.9368686868687" y="1814.780303030303"/>
      <point x="758.7247474747475" y="1814.780303030303" type="curve" smooth="yes"/>
      <point x="818.5126262626263" y="1814.780303030303"/>
      <point x="860.6237373737374" y="1774.5075757575758"/>
      <point x="860.6237373737374" y="1709.800505050505" type="curve" smooth="yes"/>
      <point x="860.6237373737374" y="1645.0934343434344"/>
      <point x="818.5126262626263" y="1604.8207070707072"/>
    </contour>
  </outline>
</glyph>
<glyph name="AE" format="2">
  <advance width="2068.906565656566"/>
  <unicode hex="00C6"/>
  <anchor x="1089.6666666666667" y="0.0" name="bottom"/>
  <anchor x="1041.1792929292928" y="1520.0" name="top"/>
  <outline>
    <contour>
      <point x="24.936868686868685" y="0.0" type="line"/>
      <point x="297.3055555555556" y="0.0" type="line"/>
      <point x="747.3510101010102" y="1262.6868686868686" type="line"/>
      <point x="1025.3838383838383" y="1262.6868686868686" type="line"/>
      <point x="1026.7626262626263" y="1480.0" type="line"/>
      <point x="563.8459595959596" y="1480.0" type="line"/>
    </contour>
    <contour>
      <point x="378.8207070707071" y="424.2424242424242" type="line"/>
      <point x="1057.5580808080808" y="424.2424242424242" type="line"/>
      <point x="1057.5580808080808" y="641.5555555555555" type="line"/>
      <point x="442.32323232323233" y="641.5555555555555" type="line"/>
    </contour>
    <contour>
      <point x="1017.4469696969697" y="0.0" type="line"/>
      <point x="1985.080808080808" y="0.0" type="line"/>
      <point x="1985.080808080808" y="217.31313131313138" type="line"/>
      <point x="1275.6818181818182" y="217.31313131313138" type="line"/>
      <point x="1187.7323232323233" y="1262.6868686868686" type="line"/>
      <point x="1975.080808080808" y="1262.6868686868686" type="line"/>
      <point x="1975.080808080808" y="1480.0" type="line"/>
      <point x="900.8813131313132" y="1480.0" type="line"/>
    </contour>
    <contour>
      <point x="1091.8459595959596" y="649.10101010101" type="line"/>
      <point x="1873.257575757576" y="649.10101010101" type="line"/>
      <point x="1873.257575757576" y="866.4141414141415" type="line"/>
      <point x="1091.8459595959596" y="866.4141414141415" type="line"/>
    </contour>
  </outline>
</glyph>
<glyph name="Ccedilla" format="2">
  <advance width="1297.2828282828282"/>
  <unicode hex="00C7"/>
  <anchor x="787.189393939394" y="0.0" name="_bottom"/>
  <anchor x="787.189393939394" y="0.0" name="bottom"/>
  <anchor x="779.1464646464647" y="1520.0" name="top"/>
  <outline>
    <contour>
      <point x="885.6616161616162" y="-19.08080808080808" type="curve" smooth="yes"/>
      <point x="1014.0959595959596" y="-19.08080808080808"/>
      <point x="1137.080808080808" y="-0.7424242424242431"/>
      <point x="1242.8257575757575" y="32.11111111111111" type="curve"/>
      <point x="1242.8257575757575" y="260.0707070707071" type="line"/>
      <point x="1128.2121212121212" y="226.12121212121218"/>
      <point x="1021.8207070707072" y="209.85101010101016"/>
      <point x="906.1161616161617" y="209.85101010101016" type="curve" smooth="yes"/>
      <point x="571.4646464646465" y="209.85101010101016"/>
      <point x="390.4924242424243" y="354.5454545454546"/>
      <point x="390.4924242424243" y="740.9191919191919" type="curve" smooth="yes"/>
      <point x="390.4924242424243" y="1114.6818181818182"/>
      <point x="567.4898989898991" y="1270.1489898989898"/>
      <point x="919.9671717171718" y="1270.1489898989898" type="curve" smooth="yes"/>
      <point x="1033.4823232323233" y="1270.1489898989898"/>
      <point x="1139.9848484848485" y="1256.6616161616162"/>
      <point x="1242.8257575757575" y="1230.888888888889" type="curve"/>
      <point x="1242.8257575757575" y="1458.8484848484848" type="line"/>
      <point x="1133.3383838383838" y="1485.8636363636363"/>
      <point x="1023.3661616161617" y="1499.080808080808"/>
      <point x="900.5" y="1499.080808080808" type="curve" smooth="yes"/>
      <point x="390.24242424242425" y="1499.080808080808"/>
      <point x="100.16919191919192" y="1244.8737373737374"/>
      <point x="100.16919191919192" y="736.9191919191919" type="curve" smooth="yes"/>
      <point x="100.16919191919192" y="204.34343434343435"/>
      <point x="391.70454545454544" y="-19.08080808080808"/>
    </contour>
    <contour>
      <point x="767.0353535353536" y="-432.42424242424244" type="curve" smooth="yes"/>
      <point x="937.2929292929293" y="-432.42424242424244"/>
      <point x="1027.141414141414" y="-368.6717171717172"/>
      <point x="1027.141414141414" y="-258.4318181818182" type="curve" smooth="yes"/>
      <point x="1027.141414141414" y="-149.27272727272728"/>
      <point x="943.2373737373738" y="-87.9520202020202"/>
      <point x="782.8838383838383" y="-87.9520202020202" type="curve"/>
      <point x="838.9671717171718" y="-131.1919191919192" type="line"/>
      <point x="838.9671717171718" y="20.0" type="line"/>
      <point x="706.2297979797979" y="20.0" type="line"/>
      <point x="706.2297979797979" y="-173.99747474747474" type="line"/>
      <point x="754.4974747474747" y="-173.99747474747474" type="line" smooth="yes"/>
      <point x="837.040404040404" y="-173.99747474747474"/>
      <point x="882.7853535353536" y="-196.32323232323233"/>
      <point x="882.7853535353536" y="-250.59595959595958" type="curve" smooth="yes"/>
      <point x="882.7853535353536" y="-303.5176767676768"/>
      <point x="837.5808080808081" y="-325.0328282828283"/>
      <point x="755.1464646464647" y="-325.0328282828283" type="curve" smooth="yes"/>
      <point x="694.9570707070707" y="-325.0328282828283"/>
      <point x="627.459595959596" y="-314.6136363636364"/>
      <point x="559.5656565656566" y="-289.36868686868684" type="curve"/>
      <point x="559.5656565656566" y="-397.7878787878788" type="line"/>
      <point x="620.3484848484849" y="-420.0050505050505"/>
      <point x="691.3762626262626" y="-432.42424242424244"/>
    </contour>
  </outline>
</glyph>
<glyph name="Egrave" format="2">
  <advance width="1310.8232323232323"/>
  <unicode hex="00C8"/>
  <anchor x="709.2070707070707" y="1520.0" name="_top"/>
  <anchor x="710.5858585858587" y="0.0" name="bottom"/>
  <anchor x="1138.891414141414" y="0.0" name="ogonek"/>
  <anchor x="709.2070707070707" y="1520.0" name="top"/>
  <anchor x="41.06818181818182" y="1480.0" name="topleft"/>
  <outline>
    <contour>
      <point x="157.87626262626262" y="0.0" type="line"/>
      <point x="1226.9974747474748" y="0.0" type="line"/>
      <point x="1226.9974747474748" y="217.31313131313138" type="line"/>
      <point x="431.7702020202021" y="217.31313131313138" type="line"/>
      <point x="431.7702020202021" y="1262.6868686868686" type="line"/>
      <point x="1216.9974747474748" y="1262.6868686868686" type="line"/>
      <point x="1216.9974747474748" y="1480.0" type="line"/>
      <point x="157.87626262626262" y="1480.0" type="line"/>
    </contour>
    <contour>
      <point x="308.52525252525254" y="649.10101010101" type="line"/>
      <point x="1115.1742424242425" y="649.10101010101" type="line"/>
      <point x="1115.1742424242425" y="866.4141414141415" type="line"/>
      <point x="308.52525252525254" y="866.4141414141415" type="line"/>
    </contour>
    <contour>
      <point x="585.2297979797979" y="1599.7878787878788" type="line"/>
      <point x="833.1843434343434" y="1599.7878787878788" type="line"/>
      <point x="637.3863636363636" y="1895.5656565656566" type="line"/>
      <point x="347.64141414141415" y="1895.5656565656566" type="line"/>
    </contour>
  </outline>
</glyph>
<glyph name="Eacute" format="2">
  <advance width="1310.8232323232323"/>
  <unicode hex="00C9"/>
  <anchor x="709.2070707070707" y="1520.0" name="_top"/>
  <anchor x="710.5858585858587" y="0.0" name="bottom"/>
  <anchor x="1138.891414141414" y="0.0" name="ogonek"/>
  <anchor x="709.2070707070707" y="1520.0" name="top"/>
  <anchor x="41.06818181818182" y="1480.0" name="topleft"/>
  <outline>
    <contour>
      <point x="157.87626262626262" y="0.0" type="line"/>
      <point x="1226.9974747474748" y="0.0" type="line"/>
      <point x="1226.9974747474748" y="217.31313131313138" type="line"/>
      <point x="431.7702020202021" y="217.31313131313138" type="line"/>
      <point x="431.7702020202021" y="1262.6868686868686" type="line"/>
      <point x="1216.9974747474748" y="1262.6868686868686" type="line"/>
      <point x="1216.9974747474748" y="1480.0" type="line"/>
      <point x="157.87626262626262" y="1480.0" type="line"/>
    </contour>
    <contour>
      <point x="308.52525252525254" y="649.10101010101" type="line"/>
      <point x="1115.1742424242425" y="649.10101010101" type="line"/>
      <point x="1115.1742424242425" y="866.4141414141415" type="line"/>
      <point x="308.52525252525254" y="866.4141414141415" type="line"/>
    </contour>
    <contour>
      <point x="583.6085858585858" y="1599.7878787878788" type="line"/>
      <point x="831.5631313131314" y="1599.7878787878788" type="line"/>
      <point x="1069.1515151515152" y="1895.5656565656566" type="line"/>
      <point x="779.4065656565656" y="1895.5656565656566" type="line"/>
    </contour>
  </outline>
</glyph>
<glyph name="Ecircumflex" format="2">
  <advance width="1310.8232323232323"/>
  <unicode hex="00CA"/>
  <anchor x="709.2070707070707" y="1520.0" name="_top"/>
  <anchor x="710.5858585858587" y="0.0" name="bottom"/>
  <anchor x="1138.891414141414" y="0.0" name="ogonek"/>
  <anchor x="709.2070707070707" y="1520.0" name="top"/>
  <anchor x="41.06818181818182" y="1480.0" name="topleft"/>
  <outline>
    <contour>
      <point x="157.87626262626262" y="0.0" type="line"/>
      <point x="1226.9974747474748" y="0.0" type="line"/>
      <point x="1226.9974747474748" y="217.31313131313138" type="line"/>
      <point x="431.7702020202021" y="217.31313131313138" type="line"/>
      <point x="431.7702020202021" y="1262.6868686868686" type="line"/>
      <point x="1216.9974747474748" y="1262.6868686868686" type="line"/>
      <point x="1216.9974747474748" y="1480.0" type="line"/>
      <point x="157.87626262626262" y="1480.0" type="line"/>
    </contour>
    <contour>
      <point x="308.52525252525254" y="649.10101010101" type="line"/>
      <point x="1115.1742424242425" y="649.10101010101" type="line"/>
      <point x="1115.1742424242425" y="866.4141414141415" type="line"/>
      <point x="308.52525252525254" y="866.4141414141415" type="line"/>
    </contour>
    <contour>
      <point x="311.12373737373736" y="1599.7878787878788" type="line"/>
      <point x="532.9949494949495" y="1599.7878787878788" type="line"/>
      <point x="734.7045454545455" y="1818.969696969697" type="line"/>
      <point x="683.709595959596" y="1818.969696969697" type="line"/>
      <point x="885.4191919191919" y="1599.7878787878788" type="line"/>
      <point x="1107.2904040404042" y="1599.7878787878788" type="line"/>
      <point x="826.3762626262626" y="1895.5656565656566" type="line"/>
      <point x="592.0378787878788" y="1895.5656565656566" type="line"/>
    </contour>
  </outline>
</glyph>
<glyph name="Edieresis" format="2">
  <advance width="1310.8232323232323"/>
  <unicode hex="00CB"/>
  <anchor x="709.2070707070707" y="1520.0" name="_top"/>
  <anchor x="710.5858585858587" y="0.0" name="bottom"/>
  <anchor x="1138.891414141414" y="0.0" name="ogonek"/>
  <anchor x="709.2070707070707" y="1520.0" name="top"/>
  <anchor x="41.06818181818182" y="1480.0" name="topleft"/>
  <outline>
    <contour>
      <point x="157.87626262626262" y="0.0" type="line"/>
      <point x="1226.9974747474748" y="0.0" type="line"/>
      <point x="1226.9974747474748" y="217.31313131313138" type="line"/>
      <point x="431.7702020202021" y="217.31313131313138" type="line"/>
      <point x="431.7702020202021" y="1262.6868686868686" type="line"/>
      <point x="1216.9974747474748" y="1262.6868686868686" type="line"/>
      <point x="1216.9974747474748" y="1480.0" type="line"/>
      <point x="157.87626262626262" y="1480.0" type="line"/>
    </contour>
    <contour>
      <point x="308.52525252525254" y="649.10101010101" type="line"/>
      <point x="1115.1742424242425" y="649.10101010101" type="line"/>
      <point x="1115.1742424242425" y="866.4141414141415" type="line"/>
      <point x="308.52525252525254" y="866.4141414141415" type="line"/>
    </contour>
    <contour>
      <point x="973.2550505050506" y="1625.151515151515" type="curve" smooth="yes"/>
      <point x="1072.4823232323233" y="1625.151515151515"/>
      <point x="1122.2601010101012" y="1672.388888888889"/>
      <point x="1122.2601010101012" y="1750.919191919192" type="curve" smooth="yes"/>
      <point x="1122.2601010101012" y="1829.449494949495"/>
      <point x="1072.4823232323233" y="1877.6060606060605"/>
      <point x="973.2550505050506" y="1877.6060606060605" type="curve" smooth="yes"/>
      <point x="874.0277777777778" y="1877.6060606060605"/>
      <point x="824.25" y="1829.449494949495"/>
      <point x="824.25" y="1750.919191919192" type="curve" smooth="yes"/>
      <point x="824.25" y="1672.388888888889"/>
      <point x="874.0277777777778" y="1625.151515151515"/>
    </contour>
    <contour>
      <point x="445.1590909090909" y="1625.151515151515" type="curve" smooth="yes"/>
      <point x="544.3863636363636" y="1625.151515151515"/>
      <point x="594.1641414141415" y="1672.388888888889"/>
      <point x="594.1641414141415" y="1750.919191919192" type="curve" smooth="yes"/>
      <point x="594.1641414141415" y="1829.449494949495"/>
      <point x="544.3863636363636" y="1877.6060606060605"/>
      <point x="445.1590909090909" y="1877.6060606060605" type="curve" smooth="yes"/>
      <point x="345.9318181818182" y="1877.6060606060605"/>
      <point x="296.15404040404036" y="1829.449494949495"/>
      <point x="296.15404040404036" y="1750.919191919192" type="curve" smooth="yes"/>
      <point x="296.15404040404036" y="1672.388888888889"/>
      <point x="345.9318181818182" y="1625.151515151515"/>
    </contour>
  </outline>
</glyph>
<glyph name="Igrave" format="2">
  <advance width="592.8888888888889"/>
  <unicode hex="00CC"/>
  <anchor x="296.44444444444446" y="1520.0" name="_top"/>
  <anchor x="295.6338383838384" y="0.0" name="bottom"/>
  <anchor x="435.0126262626263" y="0.0" name="ogonek"/>
  <anchor x="296.44444444444446" y="1520.0" name="top"/>
  <outline>
    <contour>
      <point x="157.87626262626262" y="0.0" type="line"/>
      <point x="435.0126262626263" y="0.0" type="line"/>
      <point x="435.0126262626263" y="1480.0" type="line"/>
      <point x="157.87626262626262" y="1480.0" type="line"/>
    </contour>
    <contour>
      <point x="172.4671717171717" y="1599.7878787878788" type="line"/>
      <point x="420.4217171717172" y="1599.7878787878788" type="line"/>
      <point x="224.6237373737374" y="1895.5656565656566" type="line"/>
      <point x="-65.12121212121214" y="1895.5656565656566" type="line"/>
    </contour>
  </outline>
</glyph>
<glyph name="Iacute" format="2">
  <advance width="592.8888888888889"/>
  <unicode hex="00CD"/>
  <anchor x="296.44444444444446" y="1520.0" name="_top"/>
  <anchor x="295.6338383838384" y="0.0" name="bottom"/>
  <anchor x="435.0126262626263" y="0.0" name="ogonek"/>
  <anchor x="296.44444444444446" y="1520.0" name="top"/>
  <outline>
    <contour>
      <point x="157.87626262626262" y="0.0" type="line"/>
      <point x="435.0126262626263" y="0.0" type="line"/>
      <point x="435.0126262626263" y="1480.0" type="line"/>
      <point x="157.87626262626262" y="1480.0" type="line"/>
    </contour>
    <contour>
      <point x="170.84595959595958" y="1599.7878787878788" type="line"/>
      <point x="418.8005050505051" y="1599.7878787878788" type="line"/>
      <point x="656.3888888888889" y="1895.5656565656566" type="line"/>
      <point x="366.6439393939394" y="1895.5656565656566" type="line"/>
    </contour>
  </outline>
</glyph>
<glyph name="Icircumflex" format="2">
  <advance width="592.8888888888889"/>
  <unicode hex="00CE"/>
  <anchor x="296.44444444444446" y="1520.0" name="_top"/>
  <anchor x="295.6338383838384" y="0.0" name="bottom"/>
  <anchor x="435.0126262626263" y="0.0" name="ogonek"/>
  <anchor x="296.44444444444446" y="1520.0" name="top"/>
  <outline>
    <contour>
      <point x="157.87626262626262" y="0.0" type="line"/>
      <point x="435.0126262626263" y="0.0" type="line"/>
      <point x="435.0126262626263" y="1480.0" type="line"/>
      <point x="157.87626262626262" y="1480.0" type="line"/>
    </contour>
    <contour>
      <point x="-101.6388888888889" y="1599.7878787878788" type="line"/>
      <point x="120.23232323232325" y="1599.7878787878788" type="line"/>
      <point x="321.9419191919192" y="1818.969696969697" type="line"/>
      <point x="270.94696969696975" y="1818.969696969697" type="line"/>
      <point x="472.6565656565657" y="1599.7878787878788" type="line"/>
      <point x="694.5277777777778" y="1599.7878787878788" type="line"/>
      <point x="413.6136363636364" y="1895.5656565656566" type="line"/>
      <point x="179.2752525252525" y="1895.5656565656566" type="line"/>
    </contour>
  </outline>
</glyph>
<glyph name="Idieresis" format="2">
  <advance width="592.8888888888889"/>
  <unicode hex="00CF"/>
  <anchor x="296.44444444444446" y="1520.0" name="_top"/>
  <anchor x="295.6338383838384" y="0.0" name="bottom"/>
  <anchor x="435.0126262626263" y="0.0" name="ogonek"/>
  <anchor x="296.44444444444446" y="1520.0" name="top"/>
  <outline>
    <contour>
      <point x="157.87626262626262" y="0.0" type="line"/>
      <point x="435.0126262626263" y="0.0" type="line"/>
      <point x="435.0126262626263" y="1480.0" type="line"/>
      <point x="157.87626262626262" y="1480.0" type="line"/>
    </contour>
    <contour>
      <point x="560.4924242424242" y="1625.151515151515" type="curve" smooth="yes"/>
      <point x="659.719696969697" y="1625.151515151515"/>
      <point x="709.4974747474748" y="1672.388888888889"/>
      <point x="709.4974747474748" y="1750.919191919192" type="curve" smooth="yes"/>
      <point x="709.4974747474748" y="1829.449494949495"/>
      <point x="659.719696969697" y="1877.6060606060605"/>
      <point x="560.4924242424242" y="1877.6060606060605" type="curve" smooth="yes"/>
      <point x="461.2651515151515" y="1877.6060606060605"/>
      <point x="411.48737373737373" y="1829.449494949495"/>
      <point x="411.48737373737373" y="1750.919191919192" type="curve" smooth="yes"/>
      <point x="411.48737373737373" y="1672.388888888889"/>
      <point x="461.2651515151515" y="1625.151515151515"/>
    </contour>
    <contour>
      <point x="32.39646464646466" y="1625.151515151515" type="curve" smooth="yes"/>
      <point x="131.6237373737374" y="1625.151515151515"/>
      <point x="181.40151515151518" y="1672.388888888889"/>
      <point x="181.40151515151518" y="1750.919191919192" type="curve" smooth="yes"/>
      <point x="181.40151515151518" y="1829.449494949495"/>
      <point x="131.6237373737374" y="1877.6060606060605"/>
      <point x="32.39646464646466" y="1877.6060606060605" type="curve" smooth="yes"/>
      <point x="-66.83080808080808" y="1877.6060606060605"/>
      <point x="-116.60858585858588" y="1829.449494949495"/>
      <point x="-116.60858585858588" y="1750.919191919192" type="curve" smooth="yes"/>
      <point x="-116.60858585858588" y="1672.388888888889"/>
      <point x="-66.83080808080808" y="1625.151515151515"/>
    </contour>
  </outline>
</glyph>
<glyph name="Ntilde" format="2">
  <advance width="1614.5833333333335"/>
  <unicode hex="00D1"/>
  <anchor x="807.6363636363636" y="1520.0" name="_top"/>
  <anchor x="807.6363636363636" y="0.0" name="bottom"/>
  <anchor x="807.6363636363636" y="1520.0" name="top"/>
  <outline>
    <contour>
      <point x="157.87626262626262" y="0.0" type="line"/>
      <point x="419.23232323232327" y="0.0" type="line"/>
      <point x="419.23232323232327" y="1156.8232323232323" type="line"/>
      <point x="367.3863636363637" y="1156.8232323232323" type="line"/>
      <point x="1176.8535353535353" y="0.0" type="line"/>
      <point x="1456.7070707070707" y="0.0" type="line"/>
      <point x="1456.7070707070707" y="1480.0" type="line"/>
      <point x="1195.3510101010102" y="1480.0" type="line"/>
      <point x="1195.3510101010102" y="323.1767676767677" type="line"/>
      <point x="1247.1969696969697" y="323.1767676767677" type="line"/>
      <point x="437.72979797979804" y="1480.0" type="line"/>
      <point x="157.87626262626262" y="1480.0" type="line"/>
    </contour>
    <contour>
      <point x="980.7121212121212" y="1637.2449494949494" type="curve" smooth="yes"/>
      <point x="1071.1540404040404" y="1637.2449494949494"/>
      <point x="1133.030303030303" y="1658.7853535353536"/>
      <point x="1184.310606060606" y="1705.310606060606" type="curve"/>
      <point x="1184.310606060606" y="1861.9772727272727" type="line"/>
      <point x="1124.219696969697" y="1815.328282828283"/>
      <point x="1068.1944444444443" y="1793.3686868686868"/>
      <point x="986.1161616161617" y="1793.3686868686868" type="curve" smooth="yes"/>
      <point x="867.7702020202021" y="1793.3686868686868"/>
      <point x="772.2853535353536" y="1868.909090909091"/>
      <point x="634.560606060606" y="1868.909090909091" type="curve" smooth="yes"/>
      <point x="544.1186868686868" y="1868.909090909091"/>
      <point x="482.24242424242425" y="1846.2878787878788"/>
      <point x="430.9621212121212" y="1799.7626262626263" type="curve"/>
      <point x="430.9621212121212" y="1643.0959595959596" type="line"/>
      <point x="491.0530303030303" y="1689.7449494949494"/>
      <point x="547.0782828282828" y="1711.7045454545455"/>
      <point x="629.1565656565657" y="1711.7045454545455" type="curve" smooth="yes"/>
      <point x="747.5025252525253" y="1711.7045454545455"/>
      <point x="842.9873737373738" y="1637.2449494949494"/>
    </contour>
  </outline>
</glyph>
<glyph name="Otilde" format="2">
  <advance width="1631.0404040404042"/>
  <unicode hex="00D5"/>
  <anchor x="815.5202020202021" y="1520.0" name="_top"/>
  <anchor x="815.5202020202021" y="0.0" name="bottom"/>
  <anchor x="815.5202020202021" y="740.0" name="center"/>
  <anchor x="983.6287878787879" y="0.0" name="ogonek"/>
  <anchor x="815.5202020202021" y="1520.0" name="top"/>
  <anchor x="51.593434343434346" y="1480.0" name="topleft"/>
  <anchor x="1011.040404040404" y="1480.0" name="topright"/>
  <outline>
    <contour>
      <point x="815.5202020202021" y="-19.08080808080808" type="curve" smooth="yes"/>
      <point x="1246.9065656565656" y="-19.08080808080808"/>
      <point x="1530.8712121212122" y="231.22222222222223"/>
      <point x="1530.8712121212122" y="740.0" type="curve" smooth="yes"/>
      <point x="1530.8712121212122" y="1248.7777777777778"/>
      <point x="1249.7853535353536" y="1499.080808080808"/>
      <point x="815.5202020202021" y="1499.080808080808" type="curve" smooth="yes"/>
      <point x="383.32323232323233" y="1499.080808080808"/>
      <point x="100.16919191919192" y="1250.3989898989898"/>
      <point x="100.16919191919192" y="740.0" type="curve" smooth="yes"/>
      <point x="100.16919191919192" y="229.6010101010101"/>
      <point x="382.0656565656566" y="-19.08080808080808"/>
    </contour>
    <contour>
      <point x="815.5202020202021" y="204.86616161616166" type="curve" smooth="yes"/>
      <point x="549.3181818181819" y="204.86616161616166"/>
      <point x="384.0075757575758" y="357.5631313131313"/>
      <point x="384.0075757575758" y="746.1616161616162" type="curve" smooth="yes"/>
      <point x="384.0075757575758" y="1122.4368686868686"/>
      <point x="551.75" y="1275.1338383838383"/>
      <point x="815.5202020202021" y="1275.1338383838383" type="curve" smooth="yes"/>
      <point x="1079.2904040404042" y="1275.1338383838383"/>
      <point x="1247.0328282828282" y="1120.0050505050506"/>
      <point x="1247.0328282828282" y="733.8383838383838" type="curve" smooth="yes"/>
      <point x="1247.0328282828282" y="359.99494949494954"/>
      <point x="1081.7222222222222" y="204.86616161616166"/>
    </contour>
    <contour>
      <point x="988.5959595959596" y="1637.2449494949494" type="curve" smooth="yes"/>
      <point x="1079.0378787878788" y="1637.2449494949494"/>
      <point x="1140.9141414141413" y="1658.7853535353536"/>
      <point x="1192.1944444444443" y="1705.310606060606" type="curve"/>
      <point x="1192.1944444444443" y="1861.9772727272727" type="line"/>
      <point x="1132.1035353535353" y="1815.328282828283"/>
      <point x="1076.078282828283" y="1793.3686868686868"/>
      <point x="994.0" y="1793.3686868686868" type="curve" smooth="yes"/>
      <point x="875.6540404040404" y="1793.3686868686868"/>
      <point x="780.1691919191919" y="1868.909090909091"/>
      <point x="642.4444444444445" y="1868.909090909091" type="curve" smooth="yes"/>
      <point x="552.0025252525253" y="1868.909090909091"/>
      <point x="490.12626262626264" y="1846.2878787878788"/>
      <point x="438.8459595959596" y="1799.7626262626263" type="curve"/>
      <point x="438.8459595959596" y="1643.0959595959596" type="line"/>
      <point x="498.9368686868687" y="1689.7449494949494"/>
      <point x="554.9621212121212" y="1711.7045454545455"/>
      <point x="637.040404040404" y="1711.7045454545455" type="curve" smooth="yes"/>
      <point x="755.3863636363636" y="1711.7045454545455"/>
      <point x="850.8712121212121" y="1637.2449494949494"/>
    </contour>
  </outline>
</glyph>
<glyph name="multiply" format="2">
  <advance width="1048.3636363636365"/>
  <unicode hex="00D7"/>
  <outline>
    <contour>
      <point x="249.6868686868687" y="339.36868686868684" type="line"/>
      <point x="524.1818181818182" y="613.8636363636364" type="line"/>
      <point x="798.6767676767677" y="339.36868686868684" type="line"/>
      <point x="944.8131313131313" y="485.5050505050505" type="line"/>
      <point x="670.3181818181819" y="760.0" type="line"/>
      <point x="944.8131313131313" y="1034.4949494949494" type="line"/>
      <point x="798.6767676767677" y="1180.6313131313132" type="line"/>
      <point x="524.1818181818182" y="906.1363636363636" type="line"/>
      <point x="249.6868686868687" y="1180.6313131313132" type="line"/>
      <point x="103.55050505050504" y="1034.4949494949494" type="line"/>
      <point x="378.0454545454545" y="760.0" type="line"/>
      <point x="103.55050505050504" y="485.5050505050505" type="line"/>
    </contour>
  </outline>
</glyph>
<glyph name="Ucircumflex" format="2">
  <advance width="1563.0277777777778"/>
  <unicode hex="00DB"/>
  <anchor x="784.2702020202021" y="1520.0" name="_top"/>
  <anchor x="784.2702020202021" y="0.0" name="bottom"/>
  <anchor x="988.8358585858587" y="1.3787878787878785" name="ogonek"/>
  <anchor x="784.2702020202021" y="1520.0" name="top"/>
  <anchor x="1149.3636363636363" y="1480.0" name="topright"/>
  <outline>
    <contour>
      <point x="784.2702020202021" y="-19.08080808080808" type="curve" smooth="yes"/>
      <point x="1220.1035353535353" y="-19.08080808080808"/>
      <point x="1412.0707070707072" y="190.9090909090909"/>
      <point x="1412.0707070707072" y="614.510101010101" type="curve" smooth="yes"/>
      <point x="1412.0707070707072" y="1480.0" type="line"/>
      <point x="1140.1767676767677" y="1480.0" type="line"/>
      <point x="1140.1767676767677" y="588.5681818181819" type="line" smooth="yes"/>
      <point x="1140.1767676767677" y="322.4545454545455"/>
      <point x="1025.439393939394" y="207.95959595959602"/>
      <point x="784.2702020202021" y="207.95959595959602" type="curve" smooth="yes"/>
      <point x="543.1010101010102" y="207.95959595959602"/>
      <point x="428.0934343434344" y="322.4545454545455"/>
      <point x="428.0934343434344" y="588.5681818181819" type="curve" smooth="yes"/>
      <point x="428.0934343434344" y="1480.0" type="line"/>
      <point x="150.9570707070707" y="1480.0" type="line"/>
      <point x="150.9570707070707" y="614.510101010101" type="line" smooth="yes"/>
      <point x="150.9570707070707" y="190.9090909090909"/>
      <point x="343.84343434343435" y="-19.08080808080808"/>
    </contour>
    <contour>
      <point x="386.18686868686865" y="1599.7878787878788" type="line"/>
      <point x="608.0580808080808" y="1599.7878787878788" type="line"/>
      <point x="809.7676767676768" y="1818.969696969697" type="line"/>
      <point x="758.7727272727273" y="1818.969696969697" type="line"/>
      <point x="960.4823232323232" y="1599.7878787878788" type="line"/>
      <point x="1182.3535353535353" y="1599.7878787878788" type="line"/>
      <point x="901.439393939394" y="1895.5656565656566" type="line"/>
      <point x="667.1010101010102" y="1895.5656565656566" type="line"/>
    </contour>
  </outline>
</glyph>
<glyph name="Udieresis" format="2">
  <advance width="1563.0277777777778"/>
  <unicode hex="00DC"/>
  <anchor x="784.2702020202021" y="1520.0" name="_top"/>
  <anchor x="784.2702020202021" y="0.0" name="bottom"/>
  <anchor x="988.8358585858587" y="1.3787878787878785" name="ogonek"/>
  <anchor x="784.2702020202021" y="1520.0" name="top"/>
  <anchor x="1149.3636363636363" y="1480.0" name="topright"/>
  <outline>
    <contour>
      <point x="784.2702020202021" y="-19.08080808080808" type="curve" smooth="yes"/>
      <point x="1220.1035353535353" y="-19.08080808080808"/>
      <point x="1412.0707070707072" y="190.9090909090909"/>
      <point x="1412.0707070707072" y="614.510101010101" type="curve" smooth="yes"/>
      <point x="1412.0707070707072" y="1480.0" type="line"/>
      <point x="1140.1767676767677" y="1480.0" type="line"/>
      <point x="1140.1767676767677" y="588.5681818181819" type="line" smooth="yes"/>
      <point x="1140.1767676767677" y="322.4545454545455"/>
      <point x="1025.439393939394" y="207.95959595959602"/>
      <point x="784.2702020202021" y="207.95959595959602" type="curve" smooth="yes"/>
      <point x="543.1010101010102" y="207.95959595959602"/>
      <point x="428.0934343434344" y="322.4545454545455"/>
      <point x="428.0934343434344" y="588.5681818181819" type="curve" smooth="yes"/>
      <point x="428.0934343434344" y="1480.0" type="line"/>
      <point x="150.9570707070707" y="1480.0" type="line"/>
      <point x="150.9570707070707" y="614.510101010101" type="line" smooth="yes"/>
      <point x="150.9570707070707" y="190.9090909090909"/>
      <point x="343.84343434343435" y="-19.08080808080808"/>
    </contour>
    <contour>
      <point x="1048.318181818182" y="1625.151515151515" type="curve" smooth="yes"/>
      <point x="1147.5454545454545" y="1625.151515151515"/>
      <point x="1197.3232323232323" y="1672.388888888889"/>
      <point x="1197.3232323232323" y="1750.919191919192" type="curve" smooth="yes"/>
      <point x="1197.3232323232323" y="1829.449494949495"/>
      <point x="1147.5454545454545" y="1877.6060606060605"/>
      <point x="1048.318181818182" y="1877.6060606060605" type="curve" smooth="yes"/>
      <point x="949.0909090909091" y="1877.6060606060605"/>
      <point x="899.3131313131313" y="1829.449494949495"/>
      <point x="899.3131313131313" y="1750.919191919192" type="curve" smooth="yes"/>
      <point x="899.3131313131313" y="1672.388888888889"/>
      <point x="949.0909090909091" y="1625.151515151515"/>
    </contour>
    <contour>
      <point x="520.2222222222222" y="1625.151515151515" type="curve" smooth="yes"/>
      <point x="619.4494949494949" y="1625.151515151515"/>
      <point x="669.2272727272727" y="1672.388888888889"/>
      <point x="669.2272727272727" y="1750.919191919192" type="curve" smooth="yes"/>
      <point x="669.2272727272727" y="1829.449494949495"/>
      <point x="619.4494949494949" y="1877.6060606060605"/>
      <point x="520.2222222222222" y="1877.6060606060605" type="curve" smooth="yes"/>
      <point x="420.9949494949495" y="1877.6060606060605"/>
      <point x="371.2171717171717" y="1829.449494949495"/>
      <point x="371.2171717171717" y="1750.919191919192" type="curve" smooth="yes"/>
      <point x="371.2171717171717" y="1672.388888888889"/>
      <point x="420.9949494949495" y="1625.151515151515"/>
    </contour>
  </outline>
</glyph>
<glyph name="Yacute" format="2">
  <advance width="1322.5580808080808"/>
  <unicode hex="00DD"/>
  <anchor x="660.8737373737374" y="1520.0" name="_top"/>
  <anchor x="660.6035353535353" y="0.0" name="bottom"/>
  <anchor x="660.8737373737374" y="1520.0" name="top"/>
  <anchor x="5.542929292929287" y="1480.0" name="topleft"/>
  <outline>
    <contour>
      <point x="524.4671717171717" y="0.0" type="line"/>
      <point x="801.6035353535353" y="0.0" type="line"/>
      <point x="801.6035353535353" y="743.2474747474747" type="line"/>
      <point x="744.7752525252525" y="550.6742424242424" type="line"/>
      <point x="1352.0530303030305" y="1480.0" type="line"/>
      <point x="1073.8863636363637" y="1480.0" type="line"/>
      <point x="626.5808080808081" y="800.9520202020202" type="line"/>
      <point x="710.5959595959596" y="800.9520202020202" type="line"/>
      <point x="256.0606060606061" y="1480.0" type="line"/>
      <point x="-42.08838383838385" y="1480.0" type="line"/>
      <point x="581.2954545454545" y="550.6742424242424" type="line"/>
      <point x="524.4671717171717" y="746.489898989899" type="line"/>
    </contour>
    <contour>
      <point x="535.2752525252525" y="1599.7878787878788" type="line"/>
      <point x="783.229797979798" y="1599.7878787878788" type="line"/>
      <point x="1020.8181818181819" y="1895.5656565656566" type="line"/>
      <point x="731.0732323232323" y="1895.5656565656566" type="line"/>
    </contour>
  </outline>
</glyph>
<glyph name="Thorn" format="2">
  <advance width="1367.891414141414"/>
  <unicode hex="00DE"/>
  <outline>
    <contour>
      <point x="157.87626262626262" y="0.0" type="line"/>
      <point x="435.0126262626263" y="0.0" type="line"/>
      <point x="435.0126262626263" y="242.61868686868686" type="line"/>
      <point x="496.1414141414142" y="238.4823232323232"/>
      <point x="551.469696969697" y="235.79292929292927"/>
      <point x="614.1111111111111" y="235.79292929292927" type="curve" smooth="yes"/>
      <point x="1058.2727272727273" y="235.79292929292927"/>
      <point x="1272.9545454545455" y="416.9671717171717"/>
      <point x="1272.9545454545455" y="761.14898989899" type="curve" smooth="yes"/>
      <point x="1272.9545454545455" y="1123.8989898989898"/>
      <point x="1048.919191919192" y="1284.4772727272727"/>
      <point x="612.1515151515151" y="1284.4772727272727" type="curve" smooth="yes"/>
      <point x="541.8939393939394" y="1284.4772727272727"/>
      <point x="483.20959595959596" y="1278.340909090909"/>
      <point x="435.0126262626263" y="1271.9065656565656" type="curve"/>
      <point x="435.0126262626263" y="1480.689393939394" type="line"/>
      <point x="157.87626262626262" y="1480.689393939394" type="line"/>
    </contour>
    <contour>
      <point x="614.8005050505051" y="440.6767676767677" type="curve" smooth="yes"/>
      <point x="546.969696969697" y="440.6767676767677"/>
      <point x="494.24747474747477" y="444.0555555555556"/>
      <point x="435.0126262626263" y="451.2727272727273" type="curve"/>
      <point x="435.0126262626263" y="1063.780303030303" type="line"/>
      <point x="495.0606060606061" y="1074.3762626262626"/>
      <point x="555.2449494949495" y="1079.5934343434344"/>
      <point x="631.3358585858587" y="1079.5934343434344" type="curve" smooth="yes"/>
      <point x="882.4924242424242" y="1079.5934343434344"/>
      <point x="1002.8964646464647" y="983.4772727272727"/>
      <point x="1002.8964646464647" y="759.459595959596" type="curve" smooth="yes"/>
      <point x="1002.8964646464647" y="538.2828282828283"/>
      <point x="887.5479797979798" y="440.6767676767677"/>
    </contour>
  </outline>
</glyph>
